<svg xmlns="http://www.w3.org/2000/svg" viewBox="0 0 500 500"><g id="freepik--Floor--inject-5"><path id="freepik--floor--inject-5" d="M86.65,260.63C-5,313.57-5,399.4,86.66,452.34s240.36,52.94,332,0,91.69-138.77,0-191.71S178.34,207.7,86.65,260.63Z" style="fill:#fafafa"></path></g><g id="freepik--Picture--inject-5"><g id="freepik--picture--inject-5"><g id="freepik--Frame--inject-5"><polygon points="169.41 29.73 172.66 31.55 172.66 107.29 169.41 105.48 169.41 29.73" style="fill:#fafafa"></polygon><polygon points="169.41 105.48 169.41 33.43 38.12 109.14 38.15 181.18 169.41 105.48" style="fill:#fff"></polygon><path d="M178.69,110.78V21.1L32.09,105.66v89.67ZM38.12,184.88V109.14L172.66,31.55v75.74Z" style="fill:#f0f0f0"></path><polygon points="172.66 107.29 169.41 105.48 38.15 181.18 38.12 184.88 172.66 107.29" style="fill:#e0e0e0"></polygon><polygon points="32.09 195.33 28.86 193.45 28.86 103.77 32.09 105.66 32.09 195.33" style="fill:#fafafa"></polygon><polygon points="28.86 103.77 32.09 105.66 178.69 21.1 175.46 19.22 28.86 103.77" style="fill:#e0e0e0"></polygon></g><g id="freepik--Land--inject-5"><polygon points="163.84 103.29 163.84 42.05 45.34 110.37 45.34 171.62 163.84 103.29" style="fill:#f0f0f0"></polygon></g><g id="freepik--land--inject-5"><polygon points="163.84 103.29 163.84 42.05 45.34 110.37 45.34 171.62 163.84 103.29" style="fill:#f0f0f0"></polygon></g><path d="M127,63.33a48.65,48.65,0,0,1,3.73,6.6,95.16,95.16,0,0,1,8.06,25.18c1.15,6.74,1.7,13.83,4.93,19.81l20.17-11.63V95a24.34,24.34,0,0,1-9.66-5.79c-7.44-7.51-8.23-19.16-12.44-28.85a42.2,42.2,0,0,0-2.19-4.29Z" style="fill:#fafafa"></path><path d="M101.12,78.17c2.89,12,6.45,24,3.15,35.72-2.67,9.42-9.48,17.07-16.61,23.78s-14.88,13-20.33,21.09c-.06.08-.1.17-.15.25l54-31.1c.53-1.07,1.06-2.14,1.54-3.24,5.24-12,7.14-26.38,1.18-38.07-2.8-5.49-7.24-10.29-10.27-15.58Z" style="fill:#fafafa"></path><path d="M70.56,95.82c-2.4,11.89-11.12,22.55-22.62,26.62-.86.31-1.72.57-2.6.81v23.56c1.12-.74,2.25-1.47,3.39-2.17,6.64-4.08,13.6-7.79,19.32-13.09A45.75,45.75,0,0,0,82.46,96.4a43.79,43.79,0,0,0-.9-6.94Z" style="fill:#fafafa"></path></g></g><g id="freepik--Shadows--inject-5"><path id="freepik--Shadow--inject-5" d="M349.39,266c-28.48,16.44-28.48,43.09,0,59.54s74.65,16.44,103.13,0,28.48-43.1,0-59.54S377.87,249.5,349.39,266Z" style="fill:#e0e0e0"></path><path id="freepik--shadow--inject-5" d="M208.26,457.14l-136.74-79c-1.92-1.11-1.92-2.91,0-4L237.86,278a7.65,7.65,0,0,1,6.94,0l136.75,79c1.92,1.11,1.92,2.9,0,4L215.21,457.14A7.67,7.67,0,0,1,208.26,457.14Z" style="fill:#e0e0e0"></path><path id="freepik--shadow--inject-5" d="M106.19,467.24l50.19-29c1.5-.87,1.5-2.28,0-3.15L78.15,390a6,6,0,0,0-5.44,0l-50.19,29c-1.5.87-1.5,2.28,0,3.15l78.22,45.16A6,6,0,0,0,106.19,467.24Z" style="fill:#e0e0e0"></path></g><g id="freepik--Table--inject-5"><g id="freepik--table--inject-5"><g id="freepik--table--inject-5"><path d="M365.24,173.6a2,2,0,0,1,1.19-1.66,6.33,6.33,0,0,1,5.75,0,2,2,0,0,1,1.2,1.66L342.81,300.51h0a1.46,1.46,0,0,1-.84,1.15,4.49,4.49,0,0,1-4.07,0,1.44,1.44,0,0,1-.84-1.15h0Z" style="fill:#455a64"></path><path d="M435.68,173.6a2,2,0,0,0-1.19-1.66,6.36,6.36,0,0,0-5.76,0,2,2,0,0,0-1.19,1.66L458.1,300.51h0a1.44,1.44,0,0,0,.84,1.15,4.49,4.49,0,0,0,4.07,0,1.45,1.45,0,0,0,.83-1.15h0Z" style="fill:#455a64"></path><path d="M405,177.79a2,2,0,0,0-1.19-1.66,6.33,6.33,0,0,0-5.75,0,2,2,0,0,0-1.2,1.66l1.2,143.13h0a1.44,1.44,0,0,0,.84,1.15,4.49,4.49,0,0,0,4.07,0,1.46,1.46,0,0,0,.84-1.15h0Z" style="fill:#455a64"></path><path d="M473.88,195h-.07c0-10.78-7.05-21.55-21.29-29.77-28.48-16.44-74.65-16.44-103.13,0-14.24,8.22-21.3,19-21.29,29.77H328v5.79h0c.17,10.63,7.31,21.23,21.36,29.35,28.48,16.44,74.65,16.44,103.13,0,14.05-8.12,21.19-18.72,21.36-29.35h0Z" style="fill:#BA68C8"></path><path d="M349.39,165.2c-28.48,16.44-28.48,43.1,0,59.54s74.65,16.44,103.13,0,28.48-43.1,0-59.54S377.87,148.76,349.39,165.2Z" style="fill:#BA68C8"></path><path d="M349.39,165.2c-28.48,16.44-28.48,43.1,0,59.54s74.65,16.44,103.13,0,28.48-43.1,0-59.54S377.87,148.76,349.39,165.2Z" style="fill:#fff;opacity:0.45"></path></g><g id="freepik--Pot--inject-5"><g style="opacity:0.1"><path d="M451.51,179.68c7.87,4.55,7.87,11.93,0,16.48s-20.65,4.54-28.53,0-7.88-11.93,0-16.48S443.63,175.13,451.51,179.68Z"></path></g><path d="M424.69,188.93c-6.87-7-10.9-24.48-4.2-30h34.05c6.7,5.56,2.67,23-4.19,30l-.19.19-.23.23c-.2.19-.4.37-.62.55l-.17.13c-.17.13-.33.27-.52.39a9.4,9.4,0,0,1-.88.57c-5.65,3.26-14.8,3.26-20.44,0h0c-.3-.17-.59-.36-.89-.57s-.32-.24-.48-.37l-.2-.15q-.33-.27-.6-.54l-.27-.26Z" style="fill:#ebebeb"></path><path d="M451.59,156.66c7.77,4.48,7.77,11.76,0,16.24s-20.37,4.49-28.14,0-7.77-11.76,0-16.24S443.82,152.17,451.59,156.66Z" style="fill:#fafafa"></path><path d="M446.08,159.84c4.72,2.73,4.72,7.15,0,9.88s-12.4,2.73-17.12,0-4.73-7.15,0-9.88S441.35,157.11,446.08,159.84Z" style="fill:#ebebeb"></path><path d="M429,164.53c4.72-2.73,12.39-2.73,17.12,0a7.92,7.92,0,0,1,2.83,2.6,8,8,0,0,1-2.83,2.59c-4.73,2.73-12.4,2.73-17.12,0a8,8,0,0,1-2.84-2.59A7.88,7.88,0,0,1,429,164.53Z" style="fill:#e0e0e0"></path><path d="M445,167.13a38.8,38.8,0,0,0,6.2-8.24c2.86-5,3.38-11.83,1.91-12.66s-7.5,5.92-7.5,5.92a36.29,36.29,0,0,0,.63-8.63c-.25-4.51-1.35-8.6-2.64-9.43s-4.17,4.86-5.41,9-2,7.5-2,7.5a63,63,0,0,0-2.22-9.48c-1.5-4.27-2.86-5.24-3.91-4.81s-1.76,2.41-2.07,8.11a56.92,56.92,0,0,0,.26,8.14s-2.12-2.33-4.48-4.59c-2.58-2.49-3.69-2.83-4.43-2.36s-.94,4.34,3.06,11.59a40.83,40.83,0,0,0,7.56,10S435.56,170.7,445,167.13Z" style="fill:#BA68C8"></path><path d="M445,167.13a38.8,38.8,0,0,0,6.2-8.24c2.86-5,3.38-11.83,1.91-12.66s-7.5,5.92-7.5,5.92a36.29,36.29,0,0,0,.63-8.63c-.25-4.51-1.35-8.6-2.64-9.43s-4.17,4.86-5.41,9-2,7.5-2,7.5a63,63,0,0,0-2.22-9.48c-1.5-4.27-2.86-5.24-3.91-4.81s-1.76,2.41-2.07,8.11a56.92,56.92,0,0,0,.26,8.14s-2.12-2.33-4.48-4.59c-2.58-2.49-3.69-2.83-4.43-2.36s-.94,4.34,3.06,11.59a40.83,40.83,0,0,0,7.56,10S435.56,170.7,445,167.13Z" style="opacity:0.30000000000000004"></path></g><g id="freepik--Lamp--inject-5"><path d="M392.48,183.21h0c0-2.83-1.85-5.66-5.59-7.82-7.48-4.32-19.61-4.32-27.09,0-3.74,2.16-5.59,5-5.59,7.82h0V185h0c.05,2.8,1.92,5.58,5.61,7.71,7.48,4.32,19.61,4.32,27.09,0,3.69-2.13,5.56-4.91,5.61-7.71h0Z" style="fill:#37474f"></path><path d="M359.78,175.39c-7.48,4.32-7.48,11.32,0,15.64s19.61,4.32,27.09,0,7.48-11.32,0-15.64S367.26,171.07,359.78,175.39Z" style="fill:#455a64"></path><path d="M371,128.06h4.79v52.52h0a1.13,1.13,0,0,1-.69,1.09,3.69,3.69,0,0,1-3.39,0,1.11,1.11,0,0,1-.68-1.09h0Z" style="fill:#37474f"></path><path d="M342.32,117.22h0l14.63-37.3h32.88l14.62,37.3h0c2.08,5.83-.78,12.13-8.62,16.66-12.39,7.15-32.48,7.15-44.87,0C343.1,129.35,340.24,123.05,342.32,117.22Z" style="fill:#BA68C8"></path><g style="opacity:0.4"><path d="M342.32,117.22h0l14.63-37.3h32.88l14.62,37.3h0c2.08,5.83-.78,12.13-8.62,16.66-12.39,7.15-32.48,7.15-44.87,0C343.1,129.35,340.24,123.05,342.32,117.22Z" style="fill:#fff"></path></g><path d="M358.5,124.3c-5.95-9.67,1.67-28,7.27-43.28v-1.1h-8.83l-14.63,37.3h0c-2.08,5.83.78,12.13,8.62,16.66,12.39,7.15,32.48,7.15,44.87,0C384.61,138.27,364.46,134,358.5,124.3Z" style="fill:#BA68C8;opacity:0.2"></path><path d="M385.27,88.85c-6.57,3.8-17.22,3.8-23.79,0s-6.57-9.94,0-13.73,17.22-3.8,23.79,0S391.84,85.06,385.27,88.85Z" style="fill:#BA68C8"></path><g style="opacity:0.6000000000000001"><path d="M385.27,88.85c-6.57,3.8-17.22,3.8-23.79,0s-6.57-9.94,0-13.73,17.22-3.8,23.79,0S391.84,85.06,385.27,88.85Z" style="fill:#fff"></path></g><path d="M373.38,89.75a22.14,22.14,0,0,0,10.91-2.59c2.55-1.47,4-3.31,4-5.17s-1.41-3.71-4-5.18a24.29,24.29,0,0,0-21.83,0c-2.55,1.47-4,3.31-4,5.18s1.41,3.7,4,5.17A22.15,22.15,0,0,0,373.38,89.75Z" style="fill:#BA68C8"></path></g></g></g><g id="freepik--Character--inject-5"><g id="freepik--Couch--inject-5"><polygon points="212.87 449.04 215.18 415.95 231.21 406.7 222.04 443.75 212.87 449.04" style="fill:#b16668"></polygon><polygon points="212.87 449.04 203.71 443.75 203.88 409.43 215.18 415.95 212.87 449.04" style="fill:#9a4a4d"></polygon><polygon points="100.56 384.21 102.87 351.12 118.89 341.87 109.73 378.92 100.56 384.21" style="fill:#b16668"></polygon><polygon points="100.56 384.21 91.39 378.92 91.57 344.6 102.87 351.12 100.56 384.21" style="fill:#9a4a4d"></polygon><polygon points="367.73 359.64 365.42 329.22 349.39 338.47 358.56 364.94 367.73 359.64" style="fill:#b16668"></polygon><polygon points="358.56 364.94 349.39 359.64 338.09 331.95 349.39 338.48 358.56 364.94" style="fill:#9a4a4d"></polygon><polygon points="212.87 414.62 369.22 324.36 369.22 334.95 212.87 425.2 212.87 414.62" style="fill:#b16668"></polygon><polygon points="84.52 351.1 212.87 425.2 212.87 414.62 84.52 340.52 84.52 351.1" style="fill:#9a4a4d"></polygon><polygon points="212.87 414.62 369.22 324.36 240.87 250.26 84.52 340.52 212.87 414.62" style="fill:#9a4a4d"></polygon><path d="M369.39,259.19v55.92c0,5.69-4,12.69-9,15.52l-2.59,1.51-.13.06a20.1,20.1,0,0,1-11.19,1.93l-113,60.08c-.25,5.55-4.12,12.11-8.86,14.9l-.08,0-2.58,1.5a3.74,3.74,0,0,1-.69.35,2.58,2.58,0,0,1-.37.19s-.08,0-.1,0a20.42,20.42,0,0,1-13.91.64,12.4,12.4,0,0,1-1.55-.58l-.25-.1c-.37-.17-.72-.35-1.06-.54L87.44,343.34c-4.94-2.86-9-9.83-9-15.52l0-121.14c0-5.69,4-12.67,9-15.52l138.47-80c5-2.86,13-2.86,17.93,0l7.3,4.2c4.93,2.86,9.59,9.79,10.33,15.44l7,59.8,91.94,53.09C365.35,246.5,369.39,253.5,369.39,259.19Z" style="fill:#37474f"></path><path d="M251.12,115.35l-7.29-4.21c-5-2.86-13-2.86-17.93,0l-138.47,80c-.52.3-1.09.7-.92.58a20.47,20.47,0,0,0-7.94,13.43c.66-4.58,4.38-6.23,8.85-3.66l7.31,4.21c5,2.86,13,2.86,17.93,0l138.46-80C256.07,122.84,256.07,118.21,251.12,115.35Z" style="fill:#455a64"></path><path d="M369.39,259.19v55.92c0,5.69-4,12.69-9,15.52l-2.59,1.51-.13.06a19,19,0,0,1-10.49,2,17.63,17.63,0,0,1-7.31-2.05l-83-47.92c-4.93-2.83-9-9.83-9-15.52V212.78c0-5.69,4-12.69,9-15.52l11.53-6.68,91.94,53.09C365.35,246.5,369.39,253.5,369.39,259.19Z" style="fill:#263238"></path><path d="M268.49,190.58,257,197.25c-4.93,2.85-4.93,7.51,0,10.35l83,47.9c4.93,2.85,9,9.83,9,15.52V327c0,5.69,4,8,9,5.17l2.58-1.5c4.93-2.84,9-9.83,9-15.52V259.18c0-5.69-4-12.68-9-15.52Z" style="fill:#455a64"></path><path d="M348.88,271V327c0,5.69,4,8,9,5.17l2.58-1.5c4.93-2.84,9-9.83,9-15.52V259.18a18.36,18.36,0,0,0-2.63-8.83l-20.5,11.85A18.36,18.36,0,0,1,348.88,271Z" style="fill:#37474f"></path><path d="M345.15,334.19a21.89,21.89,0,0,1-3.27,4.93c-1.91,2.13-6,4.47-8.44,5.9-31.52,18.21-57.59,33.31-89.12,51.51a9.89,9.89,0,0,1-9,0L206.22,379.7l-58.31-33.65c-4.94-2.86-9-9.52-9-14.88s4-12,9-14.89L181,297.18l25.23-14.55L237,264.81a19.93,19.93,0,0,1,17.93,0l82.95,47.91c5,2.86,9,5.07,9,11.64C346.8,326.45,346.18,332,345.15,334.19Z" style="fill:#263238"></path><path d="M244.33,377.12l98-56.65c2.48-1.42,4.48-.27,4.48,2.59v9.07a9.89,9.89,0,0,1-4.48,7.76l-98,56.64c-2.48,1.43-4.49.27-4.48-2.58v-9.07A9.93,9.93,0,0,1,244.33,377.12Z" style="fill:#37474f"></path><path d="M235.94,233.16l-88,50.88c-4.95,2.86-9,9.81-9,15.52v6c0,5.72,4,12.67,9,15.52l83,47.9c5,2.86,13,2.86,17.93,0l88-50.88c4.95-2.85,9-9.8,9-15.52v-6c0-5.72-4-12.67-9-15.52l-83-47.9C248.91,230.3,240.89,230.3,235.94,233.16Z" style="fill:#37474f"></path><path d="M239.85,344.42v26.74a18.24,18.24,0,0,1-9-2.15l-83-47.89c-4.94-2.86-9-9.81-9-15.53v-6c0-5.36,3.54-11.8,8.05-14.95-4,2.88-3.7,7.1.91,9.77l83,47.9A18.4,18.4,0,0,0,239.85,344.42Z" style="fill:#263238"></path><path d="M248.81,342.29l88-50.88c4.95-2.86,4.95-7.5,0-10.35l-83-47.9c-5-2.86-13-2.86-17.92,0l-88,50.88c-4.95,2.86-4.95,7.49,0,10.35l83,47.9C235.83,345.14,243.86,345.14,248.81,342.29Z" style="fill:#455a64"></path><g id="freepik--Cushion--inject-5"><path d="M189.35,186.26c-5.74-.57-10.49,6-20.06,10.72-17.82,8.72-25.85,16.65-34.15,26.33s-11.44,8-14,14.06,4.47,8.62,7.82,17.17c5.63,14.42,12.63,24.1,19.93,30.11,12.87,10.61,10.9,18,16.76,17.92,6.24-.07,5.79-5.42,15.59-9.23,23.2-9,32.72-17,43.44-32.9,4.19-6.2,9.52-5.68,10.54-11.66.5-3-3.85-4.6-7.78-14-6.52-15.6-16.94-30.24-27.09-37.84C195.94,193.63,195.19,186.84,189.35,186.26Z" style="fill:#BA68C8"></path><path d="M189.35,186.26c-5.74-.57-10.49,6-20.06,10.72-17.82,8.72-25.85,16.65-34.15,26.33s-11.44,8-14,14.06,4.47,8.62,7.82,17.17c5.63,14.42,12.63,24.1,19.93,30.11,12.87,10.61,10.9,18,16.76,17.92,6.24-.07,5.79-5.42,15.59-9.23,23.2-9,32.72-17,43.44-32.9,4.19-6.2,9.52-5.68,10.54-11.66.5-3-3.85-4.6-7.78-14-6.52-15.6-16.94-30.24-27.09-37.84C195.94,193.63,195.19,186.84,189.35,186.26Z" style="opacity:0.30000000000000004"></path><path d="M127.48,247.42c4.9,7,4.25,13.88,14.33,26.65,9.68,12.26,16.69,15.7,19.59,21.21,2.41,4.57,5.7,6.71,6.49,1.36S164.47,276,154.71,262.9c-11.23-15.07-18.4-20.84-23.25-23C123.86,236.38,123.62,242,127.48,247.42Z" style="opacity:0.2"></path><path d="M181.66,287.44c-6.4,2.21-6.68,7.89-9.89,12.27a25.38,25.38,0,0,1,9.5-6.37c10.57-4.11,18.3-8,24.59-12.54C197.67,285.12,186.31,285.84,181.66,287.44ZM221.74,258c-4,3.66-3.58,10.16-8.35,16.43a89.88,89.88,0,0,0,11.32-14c3.83-5.66,8.6-5.73,10.17-10.25C231.37,254.63,226.51,253.63,221.74,258Z" style="opacity:0.2"></path><path d="M181.37,200.07c-13.66,2.56-27.32,9.6-36.72,20.11a10.9,10.9,0,0,0-2.5,7.92,10.65,10.65,0,0,0,5.52,8.65c3.21,1.81,7.91,1.82,11.26,1.39,7.07-.91,11.24-2.76,20.38-2.9a21,21,0,0,1,9.64,2.44c4.51,2.51,7.88,5.34,11.83,7.46,5.44,2.91,15.1,1.58,18.45-1.78,3.58-3.58,4.39-9,1.18-15.72C213.29,212.64,200,198,181.37,200.07Z" style="fill:#BA68C8;opacity:0.30000000000000004"></path></g><path d="M213,405.48V349.55c0-5.69-4-12.68-9-15.52L112.1,281l-7-59.79c-.75-5.65-5.4-12.59-10.33-15.44l-7.3-4.21c-4.92-2.85-9-.52-9,5.17V327.82c0,5.69,4,12.67,9,15.52L204,410.66C209,413.5,213,411.17,213,405.48Z" style="fill:#263238"></path><path d="M233.5,337.69v55.94a5.62,5.62,0,0,1,0,.58c-.25,5.55-4.12,12.11-8.86,14.9l-.08,0-2.58,1.5a3.74,3.74,0,0,1-.69.35,2.58,2.58,0,0,1-.37.19s-.08,0-.1,0a6.6,6.6,0,0,1-.73.27,20.84,20.84,0,0,1-13.18.37,12.4,12.4,0,0,1-1.55-.58c4.3,1.78,7.64-.64,7.66-5.79V349.55c0-5.69-4-12.68-9-15.52l-16.26-9.4L112.1,281l11.56-6.69c4.92-2.83,13-2.83,17.92,0l66.71,38.52,16.25,9.38C229.48,325,233.5,332,233.5,337.69Z" style="fill:#455a64"></path><path d="M213,349.55V405.5c0,5.15-3.36,7.57-7.66,5.79a12.4,12.4,0,0,0,1.55.58,20.84,20.84,0,0,0,13.18-.37,6.6,6.6,0,0,0,.73-.27s.06,0,.1,0a2.58,2.58,0,0,0,.37-.19,3.74,3.74,0,0,0,.69-.35l2.58-1.5.08,0c4.74-2.79,8.61-9.35,8.86-14.9a5.62,5.62,0,0,0,0-.58V337.69a18.22,18.22,0,0,0-2.63-8.82l-20.51,11.85A18.33,18.33,0,0,1,213,349.55Z" style="fill:#37474f"></path><g style="opacity:0.2"><path d="M112.1,281c2.85-1.71,9-5.42,11.79-7a19.92,19.92,0,0,1,17.91.05c17.81,10.1,49.67,28.52,67.36,38.86l15.78,9.28a19.7,19.7,0,0,1,8.56,15.56,19.67,19.67,0,0,0-8.81-15.14l-15.91-9c-17.84-10.17-49.66-28.53-67.33-38.92a19.56,19.56,0,0,0-17.38-.33c-2.81,1.52-9.12,5.12-12,6.69Z" style="fill:#fff"></path></g></g><g id="freepik--character--inject-5"><path d="M286.71,327l16-20.43,24.36,18.32c-16.47,10.93-34.61,24.59-39.09,29.9,0,0-13.89-6.07-14.71-13.91S282.33,328.68,286.71,327Z" style="fill:#c8856a"></path><path d="M268.63,332.69a12.08,12.08,0,0,0-3.91,2.87c-1.21,1.21-2.24,8-3.74,10.92s-2.36,3.64-4.62,7.26c-2.5,4-6.34,7.36-5.08,19.17s5.75,18.2,9.88,21.83a12.43,12.43,0,0,0,5.35,2.48s6.57-1.11,6.34-4.91S268.63,332.69,268.63,332.69Z" style="fill:#263238"></path><path d="M293,350.18c-.4,1.11-2.35,2.56-3.18,3.37-2.81,2.72-4.66,6.77-6.15,10.35-7.07,16.9-1.83,27.23-12.61,32-3.09,1.19-8.69-.4-15.17-13.21-3.31-6.54-3.54-18.7-.77-23.64s5.8-7.92,7.71-11.76,2.83-11.53,5.76-14.57a16.59,16.59,0,0,1,6.43-3.65c1.88-.69,5.82-1.32,7.73-2s3.07-1.56,3.92-.1L284.25,329c-3.93,3.67-3.19,4.47-3.56,6.76s-1.68,4.75-2.58,7c2.74-2.34,4.12-4.59,6.43-3.69s2.63.84,5.43,4.74S293.39,349.19,293,350.18Z" style="fill:#BA68C8"></path><path d="M293,350.18c-.4,1.11-2.35,2.56-3.18,3.37-2.81,2.72-4.66,6.77-6.15,10.35-7.07,16.9-1.83,27.23-12.61,32-3.09,1.19-8.69-.4-15.17-13.21-3.31-6.54-3.54-18.7-.77-23.64s5.8-7.92,7.71-11.76,2.83-11.53,5.76-14.57a16.59,16.59,0,0,1,6.43-3.65c1.88-.69,5.82-1.32,7.73-2s3.07-1.56,3.92-.1L284.25,329c-3.93,3.67-3.19,4.47-3.56,6.76s-1.68,4.75-2.58,7c2.74-2.34,4.12-4.59,6.43-3.69s2.63.84,5.43,4.74S293.39,349.19,293,350.18Z" style="opacity:0.4"></path><path d="M255.93,382.66c-3.31-6.54-3.54-18.7-.77-23.64a49,49,0,0,1,3-4.72c-.15.34-.33.69-.43,1-.25.67-.47,1.33-.67,2a16.12,16.12,0,0,0-.7,8.17c.57,2.39,1.78,8.35,4.72,9.05,1.67.4,3.41-1,4.42-2.71.43-.74,1.3-2.79,1.3-2.79a26.83,26.83,0,0,1,7.09,4.66c3.74,3.69,3.46,4.29,3.46,4.29a11.59,11.59,0,0,0-.88,3.75,9.35,9.35,0,0,0,.86,4.07,5.82,5.82,0,0,0,.92,1.09c-1,4-2.67,7-7.19,9C268,397.06,262.41,395.47,255.93,382.66Z" style="opacity:0.30000000000000004"></path><path d="M283.71,363.9a60.2,60.2,0,0,0-3.87,13.86c-2.51,4.19-3.9,3.78-3.63,1.4s5.28-11.46,9.18-19C284.77,361.4,284.22,362.68,283.71,363.9Z" style="fill:#37474f"></path><path d="M278.55,333.54a10,10,0,0,1,3-6.1c.46-.12.9-.24,1.25-.35,2.06-.69,3.07-1.56,3.92-.1L284.25,329c-3.93,3.67-3.19,4.47-3.56,6.76s-1.68,4.75-2.58,7c-3.3,7.29-5.44,9.53-7.71,16.58s-1.78,12.2-2.88,12.41-3-1-2.23-6.88,5.23-15.09,7.94-19.35S278.31,336.7,278.55,333.54Z" style="fill:#37474f"></path><path d="M266.23,369.41a.75.75,0,0,0,.33.28c4.87,2,7.32,3.85,10.22,9a.75.75,0,0,0,1,.28.74.74,0,0,0,.28-1c-3.07-5.48-5.76-7.51-10.93-9.68a.73.73,0,0,0-1,.4A.71.71,0,0,0,266.23,369.41Z" style="fill:#ebebeb"></path><path d="M268.33,363.57a.76.76,0,0,0,.32.27c5,2.25,7.63,4.31,10.71,9.78a.74.74,0,0,0,1,.29.77.77,0,0,0,.29-1c-3.26-5.76-6.1-8-11.41-10.41a.76.76,0,0,0-1,.38A.74.74,0,0,0,268.33,363.57Z" style="fill:#ebebeb"></path><path d="M269.51,356.91a.79.79,0,0,0,.35.3c5.52,2.48,8.57,4.94,12,11a.85.85,0,0,0,1.14.32.82.82,0,0,0,.31-1.13c-3.58-6.34-6.88-9.05-12.73-11.68a.83.83,0,0,0-1,1.22Z" style="fill:#ebebeb"></path><path d="M271.59,351.43a.83.83,0,0,0,.34.3c5.42,2.42,8.36,4.79,11.7,10.72a.84.84,0,0,0,1.11.31.81.81,0,0,0,.31-1.11c-3.5-6.22-6.71-8.84-12.45-11.41a.82.82,0,0,0-1.08.41A.8.8,0,0,0,271.59,351.43Z" style="fill:#ebebeb"></path><path d="M274.75,346.32a.79.79,0,0,0,.35.3c5.41,2.43,8.35,4.79,11.7,10.72a.83.83,0,0,0,1.11.31.82.82,0,0,0,.31-1.11c-3.52-6.22-6.72-8.83-12.46-11.41a.81.81,0,0,0-1.07.41A.8.8,0,0,0,274.75,346.32Z" style="fill:#ebebeb"></path><path d="M269.19,232.38c.31,4.58,26.53,12.25,46.66,17.94,23.11,6.54,34.18,11.43,42.9,19.62,4.92,4.63,7.87,10.59,6.72,18.39-.84,5.68-5.39,15-15.83,23.84C329.85,329,320.11,333,306.09,342.81c0,0-15-9.2-17.7-20.37l19.69-23.1L248.8,284Z" style="fill:#BA68C8"></path><path d="M269.19,232.38c.31,4.58,26.53,12.25,46.66,17.94,23.11,6.54,34.18,11.43,42.9,19.62,4.92,4.63,7.87,10.59,6.72,18.39-.84,5.68-5.39,15-15.83,23.84C329.85,329,320.11,333,306.09,342.81c0,0-15-9.2-17.7-20.37l19.69-23.1L248.8,284Z" style="fill:#fff;opacity:0.4"></path><path d="M317.27,321.37c1.23,4.1,3.26,11.45,3.28,12-3.59,2.26-10.51,6.65-14.46,9.4,0,0-15-9.2-17.7-20.37l17.25-20.23C311.89,308,314,310.55,317.27,321.37Z" style="fill:#BA68C8;opacity:0.5"></path><path d="M313.66,286.8c-4.93,4.64-6.93,4.38-17,2.43l-3.9-.77-21.35-17c2.36-7.84,3.25-14,.62-20.54l-9.65-7.83L248.8,284l7.26,1.89,52,13.48c7.16-9.28,14.82-18,22.27-19.14C325.39,279.22,320.51,280.35,313.66,286.8Z" style="fill:#BA68C8;opacity:0.5"></path><path d="M317.38,417.51l-17.5-29.93,29-18.21c6.84,18.8,12.14,41.11,17.51,48.72,0,0-8.07,13.78-16.86,12.6S318.09,422.64,317.38,417.51Z" style="fill:#c8856a"></path><path d="M319.39,433.47a13.54,13.54,0,0,0,2.14,4.94c1,1.61,8.15,4.5,11,6.88s3.37,3.48,6.74,6.85c3.73,3.74,6.41,8.72,19.65,10.49,13.42,1.8,21.4-1.33,26.44-4.79a13.5,13.5,0,0,0,4.08-5.07s.49-7.31-3.72-8.07S319.39,433.47,319.39,433.47Z" style="fill:#263238"></path><path d="M344.83,412c1.11.71,2.19,3.18,2.86,4.29,2.25,3.72,6.21,6.76,9.73,9.3,16.67,12,29.32,9.15,31.72,21.93.51,3.61-2.69,9.18-18.37,12.72-8,1.81-21.36-1.16-26-5.42s-7.16-8.29-10.87-11.35-11.88-6.06-14.46-10c-1.51-2.31-2-5.16-2.33-7.83-.27-2.2-.75-9.64-.75-9.64,3,5.17,7.19,4.4,9.6,5.41s4.76,3,7,4.61c-1.85-3.56-3.95-5.62-2.37-7.86s1.59-2.58,6.59-4.55S343.84,411.36,344.83,412Z" style="fill:#BA68C8"></path><path d="M344.83,412c1.11.71,2.19,3.18,2.86,4.29,2.25,3.72,6.21,6.76,9.73,9.3,16.67,12,29.32,9.15,31.72,21.93.51,3.61-2.69,9.18-18.37,12.72-8,1.81-21.36-1.16-26-5.42s-7.16-8.29-10.87-11.35-11.88-6.06-14.46-10c-1.51-2.31-2-5.16-2.33-7.83-.27-2.2-.75-9.64-.75-9.64,3,5.17,7.19,4.4,9.6,5.41s4.76,3,7,4.61c-1.85-3.56-3.95-5.62-2.37-7.86s1.59-2.58,6.59-4.55S343.84,411.36,344.83,412Z" style="opacity:0.4"></path><path d="M370.77,460.24c-8,1.81-21.36-1.16-26-5.42a55.09,55.09,0,0,1-4.38-4.49c.34.24.67.53,1,.72.66.43,1.34.85,2,1.24,2.64,1.52,5.65,2.87,8.76,2.9,2.76,0,9.59.31,11.12-2.65.87-1.68-.17-3.9-1.83-5.44-.69-.66-2.71-2.13-2.71-2.13a29.25,29.25,0,0,1,6.93-6.34c5-3,5.58-2.57,5.58-2.57A13.25,13.25,0,0,0,375,438a11.13,11.13,0,0,0,4.68.15,6.77,6.77,0,0,0,1.43-.69c4.16,2.1,7,4.7,8,10.06C389.64,451.13,386.45,456.7,370.77,460.24Z" style="opacity:0.30000000000000004"></path><path d="M357.42,425.59a69,69,0,0,0,14.17,7.8c3.93,3.79,3.12,5.17.59,4.25S361,429,353.75,422.8C355,423.8,356.22,424.73,357.42,425.59Z" style="fill:#37474f"></path><path d="M322.89,423.1c-2.42-.78-4.37-1.09-6.21-2.72-1.18-1-1.22-4.16-.83-5.49l1.64,2.78c3.32,2.5,6,2.73,8.42,3.74s4.76,3,7,4.61c7.13,5.45,9,8.33,16.15,12.62S362,443.76,361.91,445s-1.89,2.94-8.1.57S338.65,436,334.7,432,326.28,424.19,322.89,423.1Z" style="fill:#37474f"></path><path d="M358.94,445.73a.77.77,0,0,0,.39-.28c3.49-4.66,6.1-6.8,12.52-8.53a.82.82,0,0,0,.57-1,.83.83,0,0,0-1-.56c-6.79,1.83-9.69,4.17-13.41,9.13a.82.82,0,0,0,.95,1.24Z" style="fill:#ebebeb"></path><path d="M353.09,441.94a.86.86,0,0,0,.39-.27c3.75-4.75,6.67-7,13.46-8.86a.8.8,0,0,0,.57-1,.84.84,0,0,0-1-.57c-7.15,2-10.36,4.4-14.34,9.44a.84.84,0,0,0,1,1.29Z" style="fill:#ebebeb"></path><path d="M346.11,438.93a1.05,1.05,0,0,0,.43-.3c4.13-5.25,7.61-7.85,15.08-9.89a.9.9,0,0,0,.64-1.13,1,1,0,0,0-1.16-.64c-7.86,2.16-11.66,5-16.05,10.53a.92.92,0,0,0,.18,1.29A1,1,0,0,0,346.11,438.93Z" style="fill:#ebebeb"></path><path d="M340.66,435.26a.84.84,0,0,0,.41-.29c4.05-5.15,7.41-7.67,14.75-9.68a.9.9,0,0,0,.62-1.1.93.93,0,0,0-1.13-.63c-7.71,2.11-11.4,4.85-15.69,10.3a.89.89,0,0,0,.17,1.26A.92.92,0,0,0,340.66,435.26Z" style="fill:#ebebeb"></path><path d="M335.89,430.53a1,1,0,0,0,.41-.3c4.06-5.14,7.4-7.66,14.75-9.67a.9.9,0,0,0,.62-1.11.93.93,0,0,0-1.13-.62c-7.72,2.11-11.4,4.85-15.7,10.3a.9.9,0,0,0,.17,1.26A.94.94,0,0,0,335.89,430.53Z" style="fill:#ebebeb"></path><path d="M269.37,232.65h0c-26.78,2.77-55.07,6.78-81.77,9.44-.69,12.91-2.64,23.64,1.51,36.85,3.79,12.1,14.95,22,26.07,28.89C228.37,316,254.41,326,264.81,331.5c15,7.95,10.2,11,15.2,24.89,3.21,8.87,7.89,16.63,17,30.41,5.69,8.61,8.12,12.53,13.48,19.94,9.65,3.39,21.73-2.64,27.88-10.54-7.66-23.79-15.68-48.47-22.84-72-4-13.12-7.36-17.7-19-27.18-9.1-7.44-19.72-15.27-31.71-24.05C277.46,254.42,269.69,242.66,269.37,232.65Z" style="fill:#BA68C8"></path><path d="M269.37,232.65h0c-26.78,2.77-55.07,6.78-81.77,9.44-.69,12.91-2.64,23.64,1.51,36.85,3.79,12.1,14.95,22,26.07,28.89C228.37,316,254.41,326,264.81,331.5c15,7.95,10.2,11,15.2,24.89,3.21,8.87,7.89,16.63,17,30.41,5.69,8.61,8.12,12.53,13.48,19.94,9.65,3.39,21.73-2.64,27.88-10.54-7.66-23.79-15.68-48.47-22.84-72-4-13.12-7.36-17.7-19-27.18-9.1-7.44-19.72-15.27-31.71-24.05C277.46,254.42,269.69,242.66,269.37,232.65Z" style="fill:#fff;opacity:0.4"></path><path d="M336.27,388.63c-5.88,9.65-19.44,13.2-30,12.55,1.71,3,3.82,5.67,5.52,8.65,11.19,2.08,20.37-2.63,27.21-11.41C338.14,395.14,337.22,391.88,336.27,388.63Z" style="fill:#BA68C8"></path><g id="freepik--Top--inject-5"><path d="M232.51,136.56c16.3-1.24,23-.09,37.82,23.5,10.4,16.59,33,46.48,33,46.48l-22.89,19.92c-10.37-15.29-21.63-25.88-38.26-48.17Z" style="fill:#e0e0e0"></path><g id="freepik--Chest--inject-5"><path d="M259.29,168.92c-4.51-24.93-13.87-32.6-26.78-32.36-.24,0-17.68,3-27.76,5.24-4.77,1.07-22.56,8.91-27.59,12-6.43,3.91-9.38,15.93-7.91,33.74a398.52,398.52,0,0,0,7.92,51c3.06,14.36,3.6,20.9,9.72,39.23,18.23,4.33,89.47-19.18,86.93-41.6-2.28-5-6-10.64-8.34-20.93C262,197.1,260.7,176.75,259.29,168.92Z" style="fill:#fafafa"></path><g id="freepik--Head--inject-5"><path d="M196.16,132.07c-.94-7.1-7.7-14.72-10.64-21-2.84-6-4-10.69-3.94-16.28.17-20.28,18.58-31.47,36.12-29.48,31.82,3.61,28.81,26.93,28,31.18-.4,2.12-3,5.57-4.28,7.34s-3.27,1.77-5.38,1.55-4.17.58-6.3,1c-2.46.45-5,.79-7.42,1.21l-6.71,1.14c-.39.07-2.4.12-2.65.45Z" style="fill:#263238"></path><path d="M187.27,119.35c4.86,3.14,8.33.06,8.33.06L195.07,146c3.51,10.1,18.49,10.62,24.78,8s5.69-6.65,3.81-10.24l.57-3.79a68.88,68.88,0,0,0,8.41-.07c5.56-.56,9.88-4.89,11.68-10.83,1.88-6.2,2.63-16.17,1.54-23.73a22.14,22.14,0,0,1-.06-6c1.21-9.43-5.07-19-13.39-23-2.59-.13,0,2.1.19,4.44.15,1.69-1.85,2.87-3.53,3.13a13.18,13.18,0,0,1-6.37-1.08c-4.75-1.7-9.61-3.74-14.64-3.35-1.06.08-2.38.58-2.37,1.64a2.28,2.28,0,0,0,.36,1c.87,1.6,1.94,3.15,2.72,4.78,1.23,2.54,2.44,6.66,1.54,9.49a12,12,0,0,1-2.74,4.39c-.36.4-4.25,3.11-4.25,3.1.19,2.12.26,7.47-3.21,7.24-2.49-.16-3.21-6.59-5.68-9.44s-8.42-3.81-10.89.17C180.09,107.44,182,115.91,187.27,119.35Z" style="fill:#c8856a"></path><path d="M224.23,140c-8.74-1.36-15.38-2.55-19.72-9.08a54.34,54.34,0,0,1-4.91-10.6s.61,7.81,3.29,13.18c2.06,4.14,7.15,7.92,20.87,9.6Z" style="fill:#af6152"></path><path d="M230.6,117.56c-8-.29-9.34,1.79-16.74,2.79-9.92,1.34-11.18-8.86-10.54-13.4l-7.06-2.46c2,4.75.49,13.23,2.47,21.43s7,11,13.81,13.15,19.75,3.18,26.77-.75c8.22-4.59,6.83-19.78,6.83-19.78C240.89,120.68,238.62,117.86,230.6,117.56Z" style="fill:#263238"></path><path d="M229,122c-4.49-.3-7.49,1-8.56,4.1s-.67,5.27.83,5.53,5.07,0,5.33-1.53-2-3.21,1.49-2.88,1.07,2.08,1,3.34,1.65,2.19,5.65,1.63c2.19-.31,1.73-3.39,1.42-5.36S233.56,122.25,229,122Z" style="fill:#c8856a"></path><path d="M228.94,125a3.56,3.56,0,0,0-.8,0l-.71,0a6.31,6.31,0,0,1-1.14-.19,5.23,5.23,0,0,1-1.17-.48,7.58,7.58,0,0,0-1.26-.79c-.19-.05-.52.07-.51.3a1.47,1.47,0,0,0,.71,1,4.9,4.9,0,0,0,1.06.62,7.05,7.05,0,0,0,2.31.52,9.11,9.11,0,0,0,1.28,0c.24,0,.54,0,.64-.3S229.22,125,228.94,125Z" style="fill:#af6152"></path><path d="M211.14,97.6l-17.75,3.13a6.77,6.77,0,0,1,2.31,2.77l15.58-2Z" style="fill:#37474f"></path><path d="M249.9,95.84l-1.09-.09c-3.52-.23-8.15-.13-11,.87-3.62,1.27-5,2.56-6.94,2.66s-3.27-1.09-6.9-2c-2.89-.74-7.87-.4-11.73.18l-1.2.19a2.4,2.4,0,0,0-1.59,2.08,3.93,3.93,0,0,0,.82,2.33,2.37,2.37,0,0,1,.26.94c.19,1.64,0,4.84.59,6.59a6.76,6.76,0,0,0,1.22,2.36,5.62,5.62,0,0,0,.7.68,3.91,3.91,0,0,0,.41.3,5.36,5.36,0,0,0,1.27.62l.22.07.34.1.37.08a8.15,8.15,0,0,0,1.17.14l.51,0H218a9.82,9.82,0,0,0,8.79-5.41c1.49-2.58,1.55-6.12,3.8-6.21h.21l.19,0c1.62.33,1.1,3.59,1.92,5.9a8,8,0,0,0,1.35,2.53c.11.13.23.26.35.38l.19.19.19.17a1.33,1.33,0,0,0,.19.14l.19.15.16.1.11.08a6.28,6.28,0,0,0,1.9.74l.17,0a9.49,9.49,0,0,0,2.39.14,8.09,8.09,0,0,0,7.34-5c.88-1.83,1.4-5,1.89-6.7a2.37,2.37,0,0,1,.48-.88,5.18,5.18,0,0,0,1.2-2.46C251.09,96.81,250.5,95.9,249.9,95.84Zm-24.17,10.35a9.2,9.2,0,0,1-2.1,3.61h0a7.88,7.88,0,0,1-5.61,2.28c-2.68.08-4.1-1-4.86-2.36,0-.09-.09-.17-.13-.25l-.12-.25-.09-.23a1.31,1.31,0,0,1-.08-.21l-.06-.16s0-.1-.05-.15l-.07-.25h0a7.44,7.44,0,0,1-.16-.73v0c0-.15-.05-.3-.07-.44s-.06-.49-.08-.71c0,0,0-.09,0-.13s0-.09,0-.13c-.15-1.74-.15-5.15.78-6s3.24-1.7,6.8-1.5l.38,0a14.34,14.34,0,0,1,1.62.21l.62.14a12.67,12.67,0,0,1,1.54.47l.47.19a3.85,3.85,0,0,1,.5.24l.1,0,.19.1a2.75,2.75,0,0,1,1,.86C226.82,101.94,226.35,104.21,225.73,106.19ZM247,104.47c-.39,1.38-1.23,4.39-3.9,5.83a6.62,6.62,0,0,1-2.78.75c-2.92.19-4.45-1-5.24-2.42,0,0,0,0,0,0s-.06-.11-.08-.16a.82.82,0,0,1-.09-.19.41.41,0,0,1-.05-.09c0-.09-.08-.19-.11-.28a3,3,0,0,1-.12-.32s0-.1-.05-.15l0-.09,0-.13,0-.11a8.83,8.83,0,0,1-.22-1.3c-.19-1.93-.17-4.19.62-5.28s3.55-2.38,6.14-2.83a15.54,15.54,0,0,1,1.66-.2h1.46l.44,0a6.51,6.51,0,0,1,.82.11l.19,0h0l.13,0,.19,0,.23.07a2.77,2.77,0,0,1,.38.14l.07,0a2.83,2.83,0,0,1,.84.54C248.23,99.26,247.53,102.7,247,104.47Z" style="fill:#455a64"></path><path d="M239.29,114.48,230.48,117l-1.91-13c.44-1,1-1.63,2-1.68a.37.37,0,0,1,.21,0,.68.68,0,0,1,.2,0,1,1,0,0,1,.28.09s0,0,.05,0,.28.25.41.4a23.85,23.85,0,0,1,2.67,3.47c.83,1.25,1.7,2.65,2.55,4.09.48.81.94,1.62,1.42,2.43C238.64,113.41,239,113.94,239.29,114.48Z" style="fill:#af6152"></path><path d="M222.3,105.19a2.47,2.47,0,1,1-2.41-2.64A2.51,2.51,0,0,1,222.3,105.19Z" style="fill:#263238"></path><path d="M221.69,95l-5.83,1.59a3.17,3.17,0,0,1,2.19-3.8A3,3,0,0,1,221.69,95Z" style="fill:#263238"></path><path d="M244,95.22l-6-1.13a2.92,2.92,0,0,1,3.44-2.47A3.2,3.2,0,0,1,244,95.22Z" style="fill:#263238"></path><path d="M241.52,104.71a2.47,2.47,0,1,1-2.17-2.84A2.52,2.52,0,0,1,241.52,104.71Z" style="fill:#263238"></path></g><path d="M216,157.09c-12.31,1.37-22.95-5.53-24.24-8.18s1.55-7.61,1.51-9.83.52-4.06,2.32-3.44l-.14,2.91s2,4.2,13.38,5.8,15-1.8,15-1.8l.25-1.65c.93,0,1.91,0,2.85,0a12.84,12.84,0,0,0,.26,4.79C227.92,148.17,228.33,155.72,216,157.09Z" style="fill:#ebebeb"></path></g><path d="M306.39,186.93s-.52-2.62,2.63-5.63,7.43-5.66,8.08-12.24l5.15,2.15-6.32,14.6Z" style="fill:#BA68C8"></path><path d="M306.39,186.93s-.52-2.62,2.63-5.63,7.43-5.66,8.08-12.24l5.15,2.15-6.32,14.6Z" style="fill:#fff;opacity:0.75"></path><path d="M306.39,186.93s-5.57-2-16.73,1.89-20.15,8.12-42.23,10.47l6.14,2.56,56.77-10.68Z" style="fill:#BA68C8"></path><path d="M306.39,186.93s-5.57-2-16.73,1.89-20.15,8.12-42.23,10.47l6.14,2.56,56.77-10.68Z" style="fill:#fff;opacity:0.75"></path><polygon points="247.43 199.29 235.45 267.74 241.59 270.3 253.56 201.85 247.43 199.29" style="fill:#BA68C8"></polygon><polygon points="247.43 199.29 235.45 267.74 241.59 270.3 253.56 201.85 247.43 199.29" style="fill:#fff;opacity:0.8"></polygon><polygon points="247.43 199.29 235.45 267.74 241.59 270.3 253.56 201.85 247.43 199.29" style="opacity:0.1"></polygon><g style="opacity:0.1"><path d="M317.55,172.59a11.35,11.35,0,0,1-1.88,4,33.46,33.46,0,0,1-2.9,3.39,22.33,22.33,0,0,0-2.84,3.34,8.46,8.46,0,0,0-.9,1.93,4.21,4.21,0,0,0-.16,2l-.69.19a4.83,4.83,0,0,1,.26-2.38,8.21,8.21,0,0,1,1.05-2,23.19,23.19,0,0,1,3-3.29,34.07,34.07,0,0,0,3-3.24A11.47,11.47,0,0,0,317.55,172.59Z"></path><path d="M317.11,176.42a10.92,10.92,0,0,1-1.46,2.49c-.57.77-1.16,1.53-1.71,2.31a14.82,14.82,0,0,0-1.44,2.45,5.93,5.93,0,0,0-.58,2.65h-.71a6.48,6.48,0,0,1,.81-2.89,15.62,15.62,0,0,1,1.63-2.43c.61-.75,1.24-1.47,1.85-2.21A10.61,10.61,0,0,0,317.11,176.42Z"></path><path d="M269.51,196.94a85.25,85.25,0,0,0,9.16-2.58c3-1,5.95-2.17,8.93-3.28a43.81,43.81,0,0,1,9.22-2.43,34.65,34.65,0,0,1,4.78-.42,18,18,0,0,1,2.42.14,5.85,5.85,0,0,1,2.39.83l-.42.57a5.39,5.39,0,0,0-2.07-.74,16.25,16.25,0,0,0-2.32-.18,33.65,33.65,0,0,0-4.7.33,43.19,43.19,0,0,0-9.18,2.24c-3,1.05-6,2.15-9,3.11A85.35,85.35,0,0,1,269.51,196.94Z"></path><path d="M284.6,194.71c1.75-.47,3.45-1.06,5.17-1.62s3.43-1.12,5.18-1.58a34.31,34.31,0,0,1,5.34-1,14.75,14.75,0,0,1,5.49.3l-.2.68a14.16,14.16,0,0,0-5.24-.45,33.07,33.07,0,0,0-5.3.86c-1.76.41-3.49.9-5.22,1.4S286.36,194.3,284.6,194.71Z"></path></g><polygon points="321.84 167.91 314.48 185.21 301.63 258.6 304.7 259.88 311.58 238.96 324.9 169.19 321.84 167.91" style="fill:#BA68C8"></polygon><polygon points="317.55 186.49 324.9 169.19 311.58 238.96 304.7 259.88 317.55 186.49" style="opacity:0.2"></polygon><polygon points="305.78 191.84 249.83 202.72 236.98 276.11 240.05 277.4 295.99 266.52 308.85 193.13 305.78 191.84" style="fill:#BA68C8"></polygon><polygon points="252.9 204 240.05 277.4 295.99 266.52 308.85 193.13 252.9 204" style="opacity:0.2"></polygon><polygon points="249.83 202.72 252.9 204 240.05 277.4 236.98 276.11 249.83 202.72" style="opacity:0.35000000000000003"></polygon><path d="M308.85,193.13l8.7-6.64L304.7,259.88c-1,4-4,6.11-8.71,6.64Z" style="fill:#BA68C8"></path><path d="M308.85,193.13l8.7-6.64L304.7,259.88c-1.13,4.24-4.25,6.2-8.71,6.64Z" style="opacity:0.35000000000000003"></path><path d="M314.14,185.06c-1.88-.79-5.34,0-7.75,1.87s-2.82,4-.94,4.76l3.4,1.44,8.7-6.64-3.07-1.28Z" style="fill:#455a64"></path><path d="M314.48,185.21c-.21,2.77-3.45,4.91-8.7,6.63l3.07,1.29c4.55-1.13,7.38-3.4,8.7-6.64Z" style="fill:#BA68C8"></path><path d="M177,155.83c-11.55,6.78-17.64,10.95-18.51,26.87-1,17.91-1.29,31.89.6,61.28.44,7-.88,15.64,15,17.92,20.3,2.92,49.59,2.9,56.91,2.85,4.68,0,15,0,18.57-.79,11.19-2.37,16.61-9.65,19.84-13.48,1.79-2.12,3.49-4.67,3.2-7.43a9.94,9.94,0,0,1-.23-2.65,12.61,12.61,0,0,1,1.06-2.42,4.62,4.62,0,0,0,.21-2.89,14.53,14.53,0,0,1-.74-2.55c-.12-1.78,1.39-3.21,2-4.9a1.43,1.43,0,0,0,.1-.79c-.12-.57-.78-.87-1.36-.95-2.38-.33-5.58,1-7.5,2.41-6.76,5-10.36,10.79-20.37,12-2.39.28-5.37-.43-5-2.8l.82-4.69c-5.63,1.68-8.21,7.61-12.85,9-4.11,1.24-39.1-7.06-39.1-7.06l-.22-35.14S191.75,165.63,177,155.83Z" style="fill:#c8856a"></path><path d="M177.16,153.76c-9.18,4.93-17.9,9.82-19.09,24.29s-1.23,37.89-.35,57.67,1.32,21.49,7.33,24.53c10.76,5.44,43.38,4.22,43.38,4.22s-3.25-3.41-2.32-12.54,4.2-12.64,4.2-12.64l-19.54-4.92s.45-32.67.1-42.57S187.58,161.78,177.16,153.76Z" style="fill:#e0e0e0"></path><path d="M317.15,209.77c-.46,2.4-2.14,5.58-3.08,7.63s-.54,4.12.76,4.55l-2.32,12.16s1.68,0,4.77-4.3,4.78-12.06,5.07-16.18.12-11.44-3.48-12.86Z" style="fill:#c8856a"></path></g></g></g><g id="freepik--speech-bubble--inject-5"><g id="freepik--speech-bubble--inject-5"><g id="freepik--speech-bubble--inject-5"><path d="M312.21,95.74a28.76,28.76,0,0,1-20.91,3.53l-3.19-.87a28.86,28.86,0,0,1,13.74-55.87l3.23.71a28.86,28.86,0,0,1,7.13,52.5Z" style="fill:#fff"></path><path d="M324.07,54.8a31.33,31.33,0,0,0-55.94,27.76l-5.95,7.7a1.82,1.82,0,0,0,1.76,2.91l9.59-1.69A31.33,31.33,0,0,0,324.07,54.8ZM312.21,95.74a28.76,28.76,0,0,1-20.91,3.53l-3.19-.87a28.86,28.86,0,0,1,13.74-55.87l3.23.71a28.86,28.86,0,0,1,7.13,52.5Z" style="fill:#e0e0e0"></path></g><path id="freepik--Heart--inject-5" d="M297.24,87.81c-20.38-10.88-22-22.54-16.07-28.23,5.31-5.09,15-1.72,16.09,5.58,1.09-7.29,10.81-10.65,16.11-5.54C319.29,65.32,317.63,77,297.24,87.81Z" style="fill:#BA68C8"></path></g></g><g id="freepik--Books--inject-5"><g id="freepik--books--inject-5"><g id="freepik--Book--inject-5"><polygon points="147.19 433.96 103.27 458.76 35.83 420.06 79.74 395.26 147.19 433.96" style="fill:#BA68C8"></polygon><polygon points="147.19 433.96 103.27 458.76 35.83 420.06 79.74 395.26 147.19 433.96" style="opacity:0.6000000000000001"></polygon><path d="M102.79,457l42.44-24.11c-1-3-1-3.9.22-7.88l-42.18,23.86S102.5,448.77,102.79,457Z" style="fill:#f5f5f5"></path><path d="M105.33,445.55a8.52,8.52,0,0,0-3.88,6.68v5.21c0,2.46,1.74,3.46,3.88,2.23l41.85-23.77V434l-41.33,23.33c-1.28.74-2.32.14-2.32-1.33l0-4.65a5.1,5.1,0,0,1,2.32-4L147.18,424v-2.19Z" style="fill:#BA68C8"></path><path d="M105.33,445.55a8.52,8.52,0,0,0-3.88,6.68v5.21c0,2.46,1.74,3.46,3.88,2.23l41.85-23.77V434l-41.33,23.33c-1.28.74-2.32.14-2.32-1.33l0-4.65a5.1,5.1,0,0,1,2.32-4L147.18,424v-2.19Z" style="opacity:0.5"></path><path d="M147.18,421.78l-67.44-38.7L37.89,406.85A8.52,8.52,0,0,0,34,413.53v5.22a2.7,2.7,0,0,0,1.14,2.49l67.44,38.7a2.68,2.68,0,0,1-1.14-2.49v-5.22a8.51,8.51,0,0,1,3.87-6.68Z" style="fill:#BA68C8"></path><path d="M147.18,421.78l-67.44-38.7L37.89,406.85A8.52,8.52,0,0,0,34,413.53v5.22a2.7,2.7,0,0,0,1.14,2.49l67.44,38.7a2.68,2.68,0,0,1-1.14-2.49v-5.22a8.51,8.51,0,0,1,3.87-6.68Z" style="opacity:0.35000000000000003"></path><path d="M102.58,448.43a7.86,7.86,0,0,0-1.13,3.8v5.22a2.68,2.68,0,0,0,1.14,2.49l-67.44-38.7A2.7,2.7,0,0,1,34,418.75v-5.22a7.77,7.77,0,0,1,1.14-3.8Z" style="fill:#BA68C8"></path><path d="M102.58,448.43a7.86,7.86,0,0,0-1.13,3.8v5.22a2.68,2.68,0,0,0,1.14,2.49l-67.44-38.7A2.7,2.7,0,0,1,34,418.75v-5.22a7.77,7.77,0,0,1,1.14-3.8Z" style="opacity:0.25"></path><path d="M44.26,414.9c-1.26,5.46-1.24,7.59,0,11.6l3.22,1.85c-1.24-4-1.26-6.13,0-11.59Z" style="fill:#BA68C8"></path><path d="M88.49,440.32c-1.26,5.46-1.24,7.52,0,11.53l3.21,1.85c-1.24-4-1.25-6.07,0-11.52Z" style="fill:#BA68C8"></path></g><g id="freepik--book--inject-5"><polygon points="156.05 421.13 112.13 445.93 44.68 407.23 88.6 382.43 156.05 421.13" style="fill:#BA68C8"></polygon><polygon points="156.05 421.13 112.13 445.93 44.68 407.23 88.6 382.43 156.05 421.13" style="opacity:0.4"></polygon><path d="M111.65,444.12,154.09,420c-1.06-3-1-4.33.22-8.31l-42.18,23.86S111.36,435.93,111.65,444.12Z" style="fill:#f5f5f5"></path><path d="M114.19,432.29a8.5,8.5,0,0,0-3.88,6.68v5.64c0,2.46,1.73,3.46,3.88,2.23L156,423.06v-1.93l-41.33,23.33c-1.28.74-2.32.14-2.32-1.34l0-5.07a5.15,5.15,0,0,1,2.33-4L156,410.71v-2.19Z" style="fill:#BA68C8"></path><path d="M114.19,432.29a8.5,8.5,0,0,0-3.88,6.68v5.64c0,2.46,1.73,3.46,3.88,2.23L156,423.06v-1.93l-41.33,23.33c-1.28.74-2.32.14-2.32-1.34l0-5.07a5.15,5.15,0,0,1,2.33-4L156,410.71v-2.19Z" style="opacity:0.25"></path><path d="M156,408.52,88.6,369.82,46.75,393.59a8.52,8.52,0,0,0-3.88,6.68v5.64a2.72,2.72,0,0,0,1.13,2.5l67.45,38.7a2.7,2.7,0,0,1-1.14-2.49V439a8.51,8.51,0,0,1,3.87-6.67Z" style="fill:#BA68C8"></path><path d="M111.44,435.17a7.82,7.82,0,0,0-1.13,3.79v5.66a2.7,2.7,0,0,0,1.14,2.49L44,408.41a2.72,2.72,0,0,1-1.13-2.5v-5.64a7.86,7.86,0,0,1,1.13-3.8Z" style="fill:#BA68C8"></path><path d="M111.44,435.17a7.82,7.82,0,0,0-1.13,3.79v5.66a2.7,2.7,0,0,0,1.14,2.49L44,408.41a2.72,2.72,0,0,1-1.13-2.5v-5.64a7.86,7.86,0,0,1,1.13-3.8Z" style="opacity:0.15"></path><path d="M53.11,401.64c-1.25,5.46-1.23,8,0,12l3.21,1.85c-1.23-4-1.25-6.57,0-12Z" style="fill:#BA68C8"></path><path d="M97.35,427.09c-1.26,5.46-1.24,7.93,0,11.94l3.21,1.85c-1.24-4-1.26-6.49,0-11.95Z" style="fill:#BA68C8"></path><g style="opacity:0.4"><path d="M53.11,401.64c-1.25,5.46-1.23,8,0,12l3.21,1.85c-1.23-4-1.25-6.57,0-12Z" style="fill:#fff"></path><path d="M97.35,427.09c-1.26,5.46-1.24,7.93,0,11.94l3.21,1.85c-1.24-4-1.26-6.49,0-11.95Z" style="fill:#fff"></path></g></g><g id="freepik--book--inject-5"><path d="M150.56,406.88l-1.84-1,1.68-.4A1.28,1.28,0,0,1,150.56,406.88Z" style="fill:#BA68C8"></path><path d="M150.56,406.88l-1.84-1,1.68-.4A1.28,1.28,0,0,1,150.56,406.88Z" style="opacity:0.5"></path><path d="M101.74,431.47a4.19,4.19,0,0,0,3.75,0l42.07-24.3-63-35.78-1.48-.85L41,394.24a1.14,1.14,0,0,0,0,2.17Z" style="fill:#BA68C8"></path><path d="M117.54,386.16l14.67,8.45,9.5-5.49,11,6.39v7.37c0,1-1.08,2.34-1.48,2.11a11.18,11.18,0,0,0-2.11.75,16.1,16.1,0,0,0-3,2.26L112.4,389.12Z" style="fill:#BA68C8"></path><path d="M117.54,386.16l14.67,8.45,9.5-5.49,11,6.39v7.37c0,1-1.08,2.34-1.48,2.11a11.18,11.18,0,0,0-2.11.75,16.1,16.1,0,0,0-3,2.26L112.4,389.12Z" style="opacity:0.15"></path><path d="M146.7,396.39v8l.13-.08a3.79,3.79,0,0,1,1.79-.56,1.9,1.9,0,0,1,1.19.27V394.6Z" style="fill:#37474f"></path><path d="M144.63,407.15a2.52,2.52,0,0,1,.53-1.37,4.78,4.78,0,0,1,.52-.59l.18-.17a2.11,2.11,0,0,1,.23-.19l.19-.15.42-.28v-8l-2.06,1.19v9.53Z" style="fill:#e0e0e0"></path><path d="M152.76,402.88c0,1-1.08,2.34-1.48,2.11h0l-1.47-.95V398l1.48-2.54.8-.29.67.39Z" style="opacity:0.4"></path><path d="M103.61,421.27v9.13a2.51,2.51,0,0,0,1.25-.29l4.62-2.66,35.16-20.3v-9.57Z" style="fill:#ebebeb"></path><path d="M42.08,387v6.9A2.75,2.75,0,0,0,43.33,396l54.42,31.43,4.61,2.66a2.54,2.54,0,0,0,1.25.29v-8.1Z" style="fill:#f5f5f5"></path><path d="M84.58,359.52l63,36.37v.85c0,.47.66.64,1.47.17s1.47-1.05,1.47-1.86l.08-.8L86.4,357.2l-.26-.15a.92.92,0,0,0-.11.39v.39C86,358.29,85.38,359,84.58,359.52Z" style="fill:#BA68C8"></path><path d="M84.58,359.52l63,36.37v.85c0,.47.66.64,1.47.17s1.47-1.05,1.47-1.86l.08-.8L86.4,357.2l-.26-.15a.92.92,0,0,0-.11.39v.39C86,358.29,85.38,359,84.58,359.52Z" style="opacity:0.1"></path><path d="M105.49,420.19l41.14-23.76c.52-.27,1-.49,1.2-.39l-.27-.15-63-36.37-.74-.42a2.35,2.35,0,0,0-2,.29L41,383a1.14,1.14,0,0,0,0,2.17l60.71,35.06A4.19,4.19,0,0,0,105.49,420.19Z" style="fill:#BA68C8"></path><path d="M86.14,357.05l.26.15,64.18,37.05a.49.49,0,0,1,.14-.18l.21-.12.47-.27.57-.33a.57.57,0,0,1,.72.07.21.21,0,0,1,.08.06,1.43,1.43,0,0,1,.19.27,2,2,0,0,1,.17.36,4.17,4.17,0,0,1,.13.42l.09.49a2.54,2.54,0,0,1,0,.29,1.94,1.94,0,0,0,0,.24c0,.18,0,.37,0,.57v-1.81a3.83,3.83,0,0,0-1.88-2.88L90.84,356.37a3.77,3.77,0,0,0-3.34-.24l-.77.45h0s-.18.11-.32.19a0,0,0,0,0,0,0A.59.59,0,0,0,86.14,357.05Z" style="fill:#BA68C8"></path><path d="M105.49,431.46,108,430l38.09-22a2.5,2.5,0,0,1,.52-1.37,5.5,5.5,0,0,1,1.67-1.46,3.75,3.75,0,0,1,1.79-.56,1.89,1.89,0,0,1,1.19.39,6.66,6.66,0,0,0,.7-3.16h1.44c0,2-.66,4-1.46,4.45l-.73.43c-.42.24-.74.25-.74,0v-.39c0-.43-.66-.41-1.47.06s-1.47,1.19-1.47,1.63v.39c0,.22-.56.72-1.24,1.12l-36.84,21.27-4,2.3h0a3.91,3.91,0,0,1-1.87.44v-1.67A3.74,3.74,0,0,0,105.49,431.46Z" style="fill:#BA68C8"></path><path d="M105.49,431.46,108,430l38.09-22a2.5,2.5,0,0,1,.52-1.37,5.5,5.5,0,0,1,1.67-1.46,3.75,3.75,0,0,1,1.79-.56,1.89,1.89,0,0,1,1.19.39,6.66,6.66,0,0,0,.7-3.16h1.44c0,2-.66,4-1.46,4.45l-.73.43c-.42.24-.74.25-.74,0v-.39c0-.43-.66-.41-1.47.06s-1.47,1.19-1.47,1.63v.39c0,.22-.56.72-1.24,1.12l-36.84,21.27-4,2.3h0a3.91,3.91,0,0,1-1.87.44v-1.67A3.74,3.74,0,0,0,105.49,431.46Z" style="opacity:0.30000000000000004"></path><path d="M105.47,420.19h0l2.54-1.47,29.26-16.89,9.34-5.4c.67-.39,1.21-.52,1.24-.32v.45c0,.46.66.46,1.47,0a2,2,0,0,0,1.15-1.48v-.46a.66.66,0,0,1,.22-.55l.21-.12.47-.27.57-.33a.57.57,0,0,1,.72.07.21.21,0,0,1,.08.06.83.83,0,0,1,.13.18l.06.09a2,2,0,0,1,.17.36,4.17,4.17,0,0,1,.13.42l.09.49a2.54,2.54,0,0,1,0,.29,1.94,1.94,0,0,0,0,.24c0,.18,0,.37,0,.57v5.72H152v-5.72c0-.16,0-.31,0-.45l0-.36a.06.06,0,0,0,0,0,4.14,4.14,0,0,1-2.18,2.71,3.56,3.56,0,0,1-1.76.55,2,2,0,0,1-1.29-.47l-.13.07-.25.15-36.84,21.27-4,2.3h0l0,0a3.9,3.9,0,0,1-1.84.42v-1.66A3.79,3.79,0,0,0,105.47,420.19Z" style="fill:#BA68C8"></path><path d="M105.47,420.19h0l2.54-1.47,29.26-16.89,9.34-5.4c.67-.39,1.21-.52,1.24-.32v.45c0,.46.66.46,1.47,0a2,2,0,0,0,1.15-1.48v-.46a.66.66,0,0,1,.22-.55l.21-.12.47-.27.57-.33a.57.57,0,0,1,.72.07.21.21,0,0,1,.08.06.83.83,0,0,1,.13.18l.06.09a2,2,0,0,1,.17.36,4.17,4.17,0,0,1,.13.42l.09.49a2.54,2.54,0,0,1,0,.29,1.94,1.94,0,0,0,0,.24c0,.18,0,.37,0,.57v5.72H152v-5.72c0-.16,0-.31,0-.45l0-.36a.06.06,0,0,0,0,0,4.14,4.14,0,0,1-2.18,2.71,3.56,3.56,0,0,1-1.76.55,2,2,0,0,1-1.29-.47l-.13.07-.25.15-36.84,21.27-4,2.3h0l0,0a3.9,3.9,0,0,1-1.84.42v-1.66A3.79,3.79,0,0,0,105.47,420.19Z" style="opacity:0.30000000000000004"></path><path d="M40.26,384v1.69a1.29,1.29,0,0,0,.74,1.07h0l56.72,32.75,4,2.31h0a3.91,3.91,0,0,0,1.87.44v-1.66a3.8,3.8,0,0,1-1.87-.45l-2.54-1.47h0L41,385.13A1.27,1.27,0,0,1,40.26,384Z" style="fill:#BA68C8"></path><path d="M40.26,384v1.69a1.29,1.29,0,0,0,.74,1.07h0l56.72,32.75,4,2.31h0a3.91,3.91,0,0,0,1.87.44v-1.66a3.8,3.8,0,0,1-1.87-.45l-2.54-1.47h0L41,385.13A1.27,1.27,0,0,1,40.26,384Z" style="opacity:0.2"></path><path d="M40.26,395.3V397a1.27,1.27,0,0,0,.74,1.06l0,0,56.72,32.75,4,2.3h0a3.91,3.91,0,0,0,1.87.44v-1.67a3.7,3.7,0,0,1-1.87-.45L99.2,430h0L41,396.4A1.26,1.26,0,0,1,40.26,395.3Z" style="fill:#BA68C8"></path><path d="M40.26,395.3V397a1.27,1.27,0,0,0,.74,1.06l0,0,56.72,32.75,4,2.3h0a3.91,3.91,0,0,0,1.87.44v-1.67a3.7,3.7,0,0,1-1.87-.45L99.2,430h0L41,396.4A1.26,1.26,0,0,1,40.26,395.3Z" style="opacity:0.2"></path></g><g id="freepik--book--inject-5"><polygon points="151.01 385.81 101.81 413.83 36.38 376.28 85.58 348.25 151.01 385.81" style="fill:#BA68C8"></polygon><polygon points="151.01 385.81 101.81 413.83 36.38 376.28 85.58 348.25 151.01 385.81" style="fill:#fff;opacity:0.2"></polygon><path d="M101.36,412.11l47.8-27.37q-1.5-4.25.2-9.91L101.81,402S101.08,404.36,101.36,412.11Z" style="fill:#f5f5f5"></path><path d="M103.76,398.88a8,8,0,0,0-3.67,6.32v7.38c0,2.33,1.64,3.27,3.67,2.11L151,387.63v-1.82l-46.74,26.63c-1.22.69-2.2.13-2.2-1.27l0-6.84a4.83,4.83,0,0,1,2.21-3.79L151,373.9v-2.08Z" style="fill:#BA68C8"></path><path d="M103.76,398.88a8,8,0,0,0-3.67,6.32v7.38c0,2.33,1.64,3.27,3.67,2.11L151,387.63v-1.82l-46.74,26.63c-1.22.69-2.2.13-2.2-1.27l0-6.84a4.83,4.83,0,0,1,2.21-3.79L151,373.9v-2.08Z" style="fill:#fff;opacity:0.4"></path><path d="M151,371.83,85.57,334.28,38.33,361.33a8.06,8.06,0,0,0-3.67,6.32V375a2.55,2.55,0,0,0,1.08,2.36l65.43,37.55a2.55,2.55,0,0,1-1.08-2.36V405.2a8,8,0,0,1,3.67-6.32Z" style="fill:#BA68C8"></path><path d="M151,371.83,85.57,334.28,38.33,361.33a8.06,8.06,0,0,0-3.67,6.32V375a2.55,2.55,0,0,0,1.08,2.36l65.43,37.55a2.55,2.55,0,0,1-1.08-2.36V405.2a8,8,0,0,1,3.67-6.32Z" style="fill:#fff;opacity:0.85"></path><path d="M101.16,401.6a7.45,7.45,0,0,0-1.07,3.6v7.38a2.55,2.55,0,0,0,1.08,2.36L35.74,377.39A2.55,2.55,0,0,1,34.66,375v-7.38a7.42,7.42,0,0,1,1.08-3.6Z" style="fill:#BA68C8"></path><path d="M101.16,401.6a7.45,7.45,0,0,0-1.07,3.6v7.38a2.55,2.55,0,0,0,1.08,2.36L35.74,377.39A2.55,2.55,0,0,1,34.66,375v-7.38a7.42,7.42,0,0,1,1.08-3.6Z" style="fill:#fff;opacity:0.6000000000000001"></path><path d="M44.36,369c-1.19,5.17-1.17,9.63,0,13.42l3,1.76c-1.17-3.79-1.19-8.26,0-13.42Z" style="fill:#fff"></path><path d="M87.82,394c-1.19,5.17-1.17,9.63,0,13.42l3,1.76c-1.17-3.79-1.19-8.25,0-13.42Z" style="fill:#fff"></path></g></g></g></svg>
