<?xml version="1.0" encoding="iso-8859-1"?>
<!-- Generator: Adobe Illustrator 27.5.0, SVG Export Plug-In . SVG Version: 6.00 Build 0)  -->
<svg version="1.1" id="OBJECTS" xmlns="http://www.w3.org/2000/svg" xmlns:xlink="http://www.w3.org/1999/xlink" x="0px" y="0px"
	 viewBox="0 0 500 500" style="enable-background:new 0 0 500 500;" xml:space="preserve">
<g>
	<path style="fill:#E0D5F8;" d="M218.389,165.49c-15.37-55.757-84.633-73.718-124.326-32.048c-0.57,0.598-1.139,1.207-1.709,1.825
		c-56.907,61.86-30.024,214.303,88.74,252.94c118.764,38.637,242.294-31.918,249.234-94.99c6.94-63.072-47.852-82.89-132.882-65.254
		C249.404,237.927,227.957,200.2,218.389,165.49z"/>
	<path style="fill:#E0D5F8;" d="M317.184,175.027c-15.89,2.587-20.294,16.665-8.025,26.652c4.055,3.301,9.847,6.044,18.097,7.412
		c31.429,5.214,48.106-8.691,35.508-26.72C354.99,171.244,332.932,172.463,317.184,175.027z"/>
	<path style="fill:#E0D5F8;" d="M71.265,288.974c-7.803-14.082-22.541-13.471-27.796,1.45c-1.737,4.932-2.362,11.309-0.863,19.537
		c5.709,31.342,24.431,42.342,37.144,24.395C87.597,323.279,78.998,302.93,71.265,288.974z"/>
	<path style="fill:#E0D5F8;" d="M441.528,300.547c-1.464,7.663,4.864,13.091,12.034,10.138c2.37-0.976,4.76-2.858,6.887-6.166
		c8.101-12.602,3.998-23.412-7.281-22.302C446.205,282.902,442.978,292.953,441.528,300.547z"/>
	<path style="fill:#E0D5F8;" d="M401.357,219.682c7.637,1.594,13.172-4.64,10.341-11.859c-0.936-2.386-2.776-4.808-6.047-6.991
		c-12.462-8.314-23.34-4.396-22.423,6.9C383.794,214.705,393.789,218.103,401.357,219.682z"/>
	<path style="fill:#E0D5F8;" d="M215.736,137.68c6.047,4.93,13.83,1.942,14.639-5.77c0.268-2.549-0.252-5.547-2.152-8.99
		c-7.238-13.117-18.699-14.644-23.083-4.193C202.434,125.179,209.744,132.795,215.736,137.68z"/>
</g>
<g>
	<g>
		<path style="fill:#9C78ED;" d="M457.557,412.874c2.623,0.438,5.359-0.296,7.186-2.228c1.191-1.259,2-2.814,1.999-4.304
			c0-0.021,0-0.043,0-0.064c-0.035-10.689,13.098-9.978,17.314-23.047c4.216-13.069-12.445-14.17-21.962-6.101
			c-6.842,5.802-15.054-2.303-25,4.464c-8.635,5.873-3.826,20.334-17.99,15.813c-4.523-1.445-8.573-0.052-11.991,2.513
			c-3.935,2.953-6.497,7.092-7.564,11.587l1.128,0.797C428.615,429.427,441.204,410.143,457.557,412.874z"/>
		<g>
			<path style="fill:#7846D1;" d="M429.875,412.303l37.037-23.774c0.496-0.318,0.639-0.979,0.321-1.474
				c-0.318-0.496-0.979-0.639-1.474-0.321l-39.833,25.569H429.875z"/>
		</g>
	</g>
	<g>
		<g>
			<path style="fill:#5B23A9;" d="M427.88,341.573c-1.563-23.303-1.821-47.739-0.086-63.941
				c2.266-21.167,7.391-35.902,15.234-43.794c0.52-0.523,1.365-0.526,1.889-0.006c0.523,0.52,0.526,1.366,0.006,1.889
				c-13.711,13.797-18.641,50.844-14.286,107.21L427.88,341.573z"/>
		</g>
		<path style="fill:#7846D1;" d="M431.386,258.932c0,0-11.164-0.018-10.366-19.645C421.02,239.287,438.101,244.16,431.386,258.932z"
			/>
		<path style="fill:#7846D1;" d="M430.451,269.029c0,0-0.604-11.148,19.038-11.443C449.489,257.586,445.573,274.912,430.451,269.029
			z"/>
		<path style="fill:#7846D1;" d="M438.988,241.498c0,0-4.286-10.309,14.133-17.136C453.122,224.362,455.207,242.003,438.988,241.498
			z"/>
		<path style="fill:#7846D1;" d="M427.944,289.286c0,0-10.512,3.76-16.4-14.981C411.544,274.305,429.267,273.113,427.944,289.286z"
			/>
		<path style="fill:#7846D1;" d="M428.549,299.717c0,0-2.522-10.876,16.772-14.563C445.321,285.154,444.46,302.896,428.549,299.717z
			"/>
		<path style="fill:#7846D1;" d="M427.958,314.081c0,0-10.439,3.958-16.681-14.667C411.277,299.414,428.974,297.887,427.958,314.081
			z"/>
	</g>
	<g>
		<path style="fill:#7846D1;" d="M103.982,393.508l-3.042-0.12l-1.613-0.065l-4.57-0.183c0,0-42.238-71.705-15.778-95.089
			c8.146-7.199,22.387-1.23,19.239,31.856C95.3,360.578,103.982,393.508,103.982,393.508z"/>
		<g>
			<path style="fill:#5B23A9;" d="M100.94,393.388l-1.613-0.065c-7.374-17.374-11.096-36.037-12.944-49.137
				c-2.194-15.555-2.296-26.85-2.296-26.962c-0.004-0.403,0.321-0.733,0.724-0.734c0.403-0.004,0.733,0.321,0.735,0.723
				c0.001,0.113,0.101,11.329,2.286,26.793C89.691,357.17,93.453,375.986,100.94,393.388z"/>
		</g>
	</g>
	<g>
		<path style="fill:#9C78ED;" d="M112.373,407.874l-4.131,1.534l-2.192,0.812l-6.209,2.302c0,0-96.395-72.28-74.066-118.269
			c6.874-14.158,29.229-14.118,43.458,31.847C82.424,368.709,112.373,407.874,112.373,407.874z"/>
		<g>
			<path style="fill:#7846D1;" d="M108.242,409.408l-2.192,0.812c-19.534-19.106-34.907-41.971-44.675-58.446
				c-11.599-19.562-18.029-34.598-18.09-34.748c-0.23-0.537,0.021-1.158,0.558-1.384c0.537-0.23,1.158,0.021,1.385,0.556
				c0.064,0.151,6.448,15.082,17.983,34.528C73.03,367.281,88.541,390.328,108.242,409.408z"/>
		</g>
	</g>
	<g>
		<path style="fill:#7846D1;" d="M441.867,411.964c-0.047-1.666-0.243-3.349-0.608-5.019c-3.466-15.864,5.962-18.857,18.393-23.867
			c12.427-5.011,13.906-19.894,5.105-32.261c-8.803-12.37,7.013-22.311,1.19-40.926c-5.824-18.615-26.05-6.233-30.475,10.928
			c-3.179,12.339-19.35,9.669-25.338,25.671c-5.202,13.891,12.232,26.721-7.903,33.089c-6.431,2.031-9.986,6.967-11.848,12.744
			c-2.143,6.651-1.722,13.553,0.725,19.64H441.867z"/>
		<g>
			<path style="fill:#5B23A9;" d="M417.24,411.964l33.165-81.873c0.314-0.775-0.061-1.659-0.837-1.973
				c-0.775-0.314-1.659,0.061-1.973,0.837l-33.625,83.009H417.24z"/>
		</g>
	</g>
</g>
<g>
	<path style="fill:#403657;" d="M140.905,164.441c0,0,0.697-14.74-8.268-17.571c-13.96-4.409-17.846,2.831-20,7.615
		c-2.761,6.131-1.584,18.157,6.745,19.318C131.816,175.537,140.137,168.56,140.905,164.441z"/>
	<path style="fill:#403657;" d="M149.904,213.732c7.255,0,13.522-5.084,15.008-12.186c1.07-5.115,2.115-9.643,2.115-12.187v-0.066
		c0.065-0.804,0.101-1.608,0.107-2.4c0.095-11.631-7.075-32.874-32.297-29.498c0,0-20.928,2.388-23.31,22.839
		c0,0-0.992,9.435-1.651,16.267c-0.012,0.121-0.024,0.241-0.036,0.36c-0.92,9.03,6.181,16.869,15.257,16.869H149.904z"/>
	<g>
		<g>
			<path style="fill:#7846D1;" d="M179.847,238.041c0,0,4.46,35.331,9.554,53.469c0,0,7.238-3.371,16.711-7.948
				c10.272-4.962,25.039-14.016,25.039-14.016l3.732,8.99c0,0-38.145,36.001-50.78,38.04c-12.635,2.038-20.379-43.204-20.379-43.204
				L179.847,238.041z"/>
			<path style="fill:#FFA681;" d="M230.369,270.6c0,0-1.048-5.02,1.198-8.417c2.246-3.397,5.666-9.757,9.681-11.085
				c3.36-1.111-1.597,4.56-1.745,8.158c0,0,4.997-0.627,8.601-1.798c3.17-1.03,9.443-2.315,12.352-2.887
				c0.797-0.157,1.309,0.848,0.695,1.38c-0.992,0.86-3.065,1.941-7.352,2.974c0,0,10.449-1.978,11.533-0.378
				c1.084,1.6-12.025,3.834-12.025,3.834s10.171-0.602,10.436,0.994c0.161,0.971-10.376,3.196-10.376,3.196s9.616,0.258,7.29,1.776
				c-0.677,0.442-19.293,2.537-25.774,10.189C234.883,278.537,230.523,274.03,230.369,270.6z"/>
		</g>
	</g>
	<g>
		<g>
			<path style="fill:#7846D1;" d="M115.526,231.082c0,0-21.34,6.294-39.718,10.44c0,0-0.477-7.97-0.958-18.48
				c-0.522-11.396,0.417-28.692,0.417-28.692l-9.683,0.994c0,0-13.521,50.679-9.304,62.762c4.218,12.084,57.776-4.843,57.776-4.843
				L115.526,231.082z"/>
			<path style="fill:#FFA681;" d="M74.712,195.54c0,0,4.914-1.466,6.833-5.058c1.92-3.592,7.223-10.825,3.95-13.503
				c-1.195-0.978-2.056,3.288-5.151,5.13c0,0-1.825-4.693-2.51-8.421c-0.603-3.279-2.456-9.407-3.336-12.238
				c-0.241-0.775-1.369-0.748-1.544,0.045c-0.284,1.282-0.249,3.62,0.882,7.882c0,0-3.23-10.132-5.154-10.324
				c-1.923-0.192,2.348,12.401,2.348,12.401s-4.309-9.233-5.838-8.706c-0.931,0.32,2.124,10.647,2.124,10.647
				s-4.801-8.336-5.03-5.568c-0.067,0.806,6.946,18.177,3.298,27.518C65.584,195.344,71.622,197.036,74.712,195.54z"/>
		</g>
	</g>
	<g>
		<g>
			<path style="fill:#9C78ED;" d="M179.049,374.931l0.17,0.755c-16.617,11.251-78.775,3.569-78.775,3.569
				c0.107-1.304,0.245-2.668,0.427-4.078c0.194-1.573,0.435-3.201,0.711-4.884c0.751-4.525,1.758-9.417,2.889-14.452
				c0.364-1.585,0.727-3.193,1.11-4.809c1.122-4.805,2.316-9.678,3.446-14.424c0.391-1.632,0.775-3.241,1.146-4.841
				c0.518-2.221,1.008-4.406,1.478-6.524c0.612-2.818,1.158-5.525,1.616-8.074c0.308-1.715,0.577-3.359,0.782-4.92
				c0.237-1.652,0.399-3.213,0.498-4.659c-0.988-3.651-1.909-7.228-2.766-10.697c-0.427-1.766-0.846-3.493-1.257-5.201
				c-1.277-5.465-2.399-10.666-3.379-15.538c-0.348-1.77-0.692-3.493-1.004-5.173c-1.087-5.746-1.964-10.946-2.671-15.483
				c-0.273-1.81-0.53-3.497-0.755-5.09c-0.249-1.743-0.462-3.355-0.648-4.817c-0.834-6.434-1.122-10.081-1.122-10.081
				c0.146-0.118,0.3-0.225,0.458-0.34c1.885-1.34,4.833-2.6,8.109-3.719c3.458-1.186,7.283-2.217,10.654-3.031
				c0.51-0.122,1.012-0.241,1.502-0.356c4.43-1.035,7.742-1.636,7.742-1.636c15.072,3.158,19.372,1.126,19.372,1.126l7.663,2.26
				l0.901,0.316l5.584,1.96l0.225,0.083l10.014,3.525l6.678,2.343l-2.592,11.954l-1.13,5.22l-3.414,15.736l-1.122,5.201
				l-3.399,15.681l-1.118,5.149l-2.814,12.993l0.561,2.482l1.099,4.817l1.743,7.659l1.585,6.927l1.091,4.801l3.28,14.444
				l1.095,4.774l3.252,14.278L179.049,374.931z"/>
			<path style="fill:#FFA681;" d="M157.345,230.13c-1.604,9.421-6.172,18.899-15.668,19.922
				c-11.472,1.241-17.42-13.149-20.008-21.989c4.43-1.035,9.021-2.047,9.021-2.047c15.072,3.157,17.98,1.234,17.98,1.234
				l7.774,2.564L157.345,230.13z"/>
			<g>
				<path style="fill:#FFFFFF;" d="M140.511,242.138c-12.023,0-14.898-14.849-14.926-15.002c-0.059-0.322,0.154-0.631,0.475-0.69
					c0.323-0.058,0.631,0.153,0.691,0.475c0.11,0.596,2.837,14.608,14.459,14.014c10.171-0.514,10.769-11.802,10.79-12.283
					c0.014-0.327,0.286-0.583,0.617-0.567c0.327,0.014,0.581,0.29,0.567,0.616c-0.005,0.128-0.658,12.848-11.914,13.417
					C141.013,242.132,140.76,242.138,140.511,242.138z"/>
			</g>
			<path style="fill:#7846D1;" d="M118.943,238.044c0,1.621-1.314,2.935-2.935,2.935s-2.935-1.314-2.935-2.935
				s1.314-2.935,2.935-2.935S118.943,236.423,118.943,238.044z"/>
			<path style="fill:#7846D1;" d="M113.065,252.363c0,1.621-1.314,2.935-2.935,2.935c-1.621,0-2.935-1.314-2.935-2.935
				c0-1.621,1.314-2.935,2.935-2.935C111.75,249.429,113.065,250.743,113.065,252.363z"/>
			<path style="fill:#7846D1;" d="M131.803,259.133c0,1.621-1.314,2.935-2.935,2.935c-1.621,0-2.935-1.314-2.935-2.935
				c0-1.621,1.314-2.935,2.935-2.935C130.49,256.198,131.803,257.513,131.803,259.133z"/>
			<path style="fill:#7846D1;" d="M118.733,267.139c0.601,1.505-0.131,3.213-1.637,3.814c-1.505,0.601-3.213-0.132-3.814-1.637
				c-0.601-1.505,0.132-3.213,1.637-3.814C116.424,264.901,118.132,265.634,118.733,267.139z"/>
			<path style="fill:#7846D1;" d="M144.174,272.559c0,1.621-1.314,2.935-2.935,2.935c-1.621,0-2.935-1.314-2.935-2.935
				c0-1.621,1.314-2.935,2.935-2.935C142.86,269.624,144.174,270.938,144.174,272.559z"/>
			<path style="fill:#7846D1;" d="M162.892,278.607c0,1.621-1.314,2.935-2.935,2.935c-1.621,0-2.935-1.314-2.935-2.935
				c0-1.621,1.314-2.935,2.935-2.935C161.578,275.672,162.892,276.986,162.892,278.607z"/>
			<path style="fill:#7846D1;" d="M166.658,240.978c0,1.621-1.314,2.935-2.935,2.935c-1.621,0-2.935-1.314-2.935-2.935
				c0-1.621,1.314-2.935,2.935-2.935C165.344,238.044,166.658,239.357,166.658,240.978z"/>
			<path style="fill:#7846D1;" d="M145.361,291.3c0,1.621-1.314,2.935-2.935,2.935c-1.621,0-2.935-1.314-2.935-2.935
				c0-1.621,1.314-2.935,2.935-2.935C144.047,288.366,145.361,289.68,145.361,291.3z"/>
			<path style="fill:#7846D1;" d="M127.281,300.4c0,1.621-1.314,2.935-2.935,2.935c-1.621,0-2.935-1.314-2.935-2.935
				c0-1.621,1.314-2.935,2.935-2.935C125.967,297.466,127.281,298.78,127.281,300.4z"/>
			<path style="fill:#7846D1;" d="M125.175,283.828c0,1.621-1.314,2.935-2.935,2.935c-1.621,0-2.935-1.314-2.935-2.935
				c0-1.621,1.314-2.935,2.935-2.935C123.861,280.893,125.175,282.207,125.175,283.828z"/>
			<path style="fill:#7846D1;" d="M154.088,259.901c0,1.621-1.314,2.935-2.935,2.935c-1.621,0-2.935-1.314-2.935-2.935
				c0-1.621,1.314-2.935,2.935-2.935C152.774,256.966,154.088,258.28,154.088,259.901z"/>
			<path style="fill:#7846D1;" d="M170.314,256.198c0,1.621-1.314,2.935-2.935,2.935s-2.935-1.314-2.935-2.935
				c0-1.621,1.314-2.935,2.935-2.935S170.314,254.578,170.314,256.198z"/>
			<path style="fill:#7846D1;" d="M159.957,296.156c0,1.621-1.314,2.935-2.935,2.935c-1.621,0-2.935-1.314-2.935-2.935
				c0-1.621,1.314-2.935,2.935-2.935C158.643,293.221,159.957,294.535,159.957,296.156z"/>
			<path style="fill:#7846D1;" d="M160.744,319.376c0,1.621-1.314,2.935-2.935,2.935c-1.621,0-2.935-1.314-2.935-2.935
				c0-1.621,1.314-2.935,2.935-2.935C159.431,316.441,160.744,317.755,160.744,319.376z"/>
			<path style="fill:#7846D1;" d="M145.806,309.688c0.601,1.505-0.131,3.213-1.637,3.814c-1.505,0.601-3.213-0.132-3.814-1.637
				c-0.601-1.505,0.132-3.213,1.637-3.814C143.498,307.45,145.205,308.183,145.806,309.688z"/>
			<path style="fill:#7846D1;" d="M125.827,318.288c0.601,1.505-0.132,3.213-1.637,3.814c-1.505,0.601-3.213-0.132-3.814-1.637
				c-0.601-1.505,0.132-3.213,1.637-3.814C123.518,316.05,125.226,316.782,125.827,318.288z"/>
		</g>
		<polygon style="fill:#9C78ED;" points="185.267,411.943 184.659,408.286 182.291,394.102 181.479,389.243 179.218,375.686 
			175.108,375.871 120.617,378.342 100.445,379.253 99.148,389.797 98.541,394.709 96.75,409.275 96.421,411.943 		"/>
		<g>
			<g>
				<path style="fill:#403657;" d="M185.264,411.943l-0.556-3.305l-0.046-0.347l-0.393-2.335l-0.393-2.312l-1.595-9.548l-0.462-2.82
					l-0.347-2.034l-0.046-0.301l-2.058-12.369l-0.139-0.879l-0.185-0.763l-0.162-0.671l-0.925-4.092l-1.826-7.999l-0.532-2.289
					l-0.902-4l-1.087-4.786l-0.74-3.283l-0.532-2.289l-2.011-8.855l-0.74-3.237l-0.347-1.572l-0.162-0.717l-1.41-6.219
					c-22.148,6.543-45.614,2.659-56.018,0.324c-0.462,2.104-0.971,4.3-1.48,6.52c-0.116,0.486-0.231,0.971-0.347,1.456
					c-0.185,0.763-0.37,1.526-0.555,2.289c-0.069,0.37-0.162,0.717-0.254,1.087c-0.855,3.63-1.757,7.329-2.636,11.005
					c-0.185,0.763-0.347,1.526-0.532,2.266c-0.093,0.393-0.185,0.763-0.277,1.156c-0.37,1.618-0.74,3.237-1.11,4.809
					c-0.462,2.104-0.902,4.161-1.318,6.196c-0.162,0.763-0.324,1.503-0.462,2.243c-0.416,2.058-0.786,4.069-1.11,6.011
					c-0.278,1.688-0.509,3.306-0.694,4.901c-0.069,0.485-0.116,0.971-0.185,1.433c-0.069,0.786-0.162,1.549-0.231,2.312
					c0,0.116-0.023,0.208-0.023,0.324l-1.295,10.542l-0.208,1.641l-0.277,2.289l-0.116,0.971l-1.433,11.536l-0.278,2.312
					l-0.092,0.74l-0.32,2.657H185.264z"/>
			</g>
		</g>
	</g>
	<g>
		<g>
			<g>
				<path style="fill:#F97853;" d="M158.462,190.701c0,0,3.603-4.564,6.282-0.79c2.679,3.774-1.109,14.922-7.667,12.201
					L158.462,190.701z"/>
				<g>
					<path style="fill:#EA5143;" d="M158.508,198.667c0.242,0,0.465-0.152,0.533-0.385c1.016-3.441,4.769-4.837,4.807-4.85
						c0.285-0.104,0.429-0.408,0.321-0.679c-0.108-0.272-0.428-0.409-0.714-0.306c-0.175,0.063-4.311,1.588-5.481,5.551
						c-0.083,0.28,0.089,0.57,0.384,0.649C158.408,198.661,158.459,198.667,158.508,198.667z"/>
				</g>
				<g>
					<path style="fill:#EA5143;" d="M162.296,196.933c0.103,0,0.207-0.027,0.3-0.084c0.257-0.158,0.331-0.483,0.166-0.728
						c-0.027-0.041-0.691-1.003-2.08-1.594c-0.278-0.119-0.607,0-0.732,0.266c-0.125,0.265,0,0.577,0.28,0.696
						c1.074,0.457,1.596,1.195,1.601,1.202C161.936,196.848,162.114,196.933,162.296,196.933z"/>
				</g>
				<g>
					<path style="fill:#FFFFFF;" d="M156.84,202.04c-0.62,0.69-1.001,1.599-1.001,2.596c0,2.153,1.752,3.905,3.905,3.905
						c2.153,0,3.905-1.752,3.905-3.905c0-1.241-0.581-2.346-1.486-3.06c-0.454-0.359-0.988-0.619-1.572-0.749
						c-0.098-0.264-0.05-0.511,0.14-0.739c0.747,0.163,1.426,0.504,1.993,0.978c1.025,0.852,1.677,2.138,1.677,3.572
						c0,2.569-2.088,4.657-4.657,4.657c-2.567,0-4.657-2.088-4.657-4.657c0-1.107,0.393-2.119,1.041-2.917
						C156.365,201.826,156.602,201.933,156.84,202.04z"/>
				</g>
			</g>
			<path style="fill:#FFA681;" d="M130.69,214.02v13.675c0,0,6.356,4.904,11.315,5.33c4.954,0.432,6.666-5.414,6.666-5.414v-12.727
				L130.69,214.02z"/>
			<path style="fill:#F97853;" d="M130.69,215.36v5.455c3.327,3.692,9.234,5.001,17.979,3.71l0.002-8.301L130.69,215.36z"/>
			<path style="fill:#FFA681;" d="M160.627,195.9c-0.158,1.32-0.345,2.664-0.582,4.002c-1.571,8.893-7.196,18.498-14.299,20.11
				c-15.337,3.481-21.706-8.565-24.158-17.452c-0.271-0.987,0.237-2.118,0.023-3.287c-0.508-2.769-1.627-5.915-1.881-9.018
				c-0.175-2.15-0.299-4.271-0.39-6.187c-0.249-5.404,2.881-10.371,7.774-12.31c7.05-2.804,17.756-5.025,27.897,0.923
				c3.746,2.197,6.096,6.263,6.181,10.715C161.254,186.797,161.169,191.243,160.627,195.9z"/>
			<g>
				<path style="fill:#F97853;" d="M141.177,202.781c-0.286,0-0.538-0.206-0.587-0.497c-0.054-0.325,0.164-0.632,0.489-0.686
					l2.046-0.344l-2.819-7.507c-0.116-0.308,0.04-0.651,0.348-0.767c0.308-0.114,0.652,0.04,0.767,0.348l3.327,8.861l-3.472,0.583
					C141.243,202.778,141.21,202.781,141.177,202.781z"/>
			</g>
			<path style="fill:#403657;" d="M148.516,192.848c0,1.312,0.676,2.376,1.511,2.376c0.834,0,1.511-1.064,1.511-2.376
				c0-1.312-0.676-2.376-1.511-2.376C149.192,190.472,148.516,191.536,148.516,192.848z"/>
			<path style="fill:#403657;" d="M131.817,192.848c0,1.312,0.676,2.376,1.511,2.376s1.511-1.064,1.511-2.376
				c0-1.312-0.676-2.376-1.511-2.376S131.817,191.536,131.817,192.848z"/>
			<path style="fill:#403657;" d="M154.468,186.616c-1.215-0.237-3.671-0.628-6.287-0.535c-0.688,0.024-1.24,0.543-1.145,1.091
				l0.002,0.014c0.076,0.437,0.545,0.732,1.095,0.69c1.783-0.134,6.447-0.105,8.618,0.541c0.06-0.314-0.15-0.648-0.456-0.94
				C155.83,187.033,155.178,186.754,154.468,186.616z"/>
			<path style="fill:#403657;" d="M130.18,186.902c1.211-0.253,3.662-0.678,6.279-0.622c0.689,0.015,1.247,0.526,1.16,1.075
				l-0.002,0.014c-0.07,0.439-0.534,0.739-1.085,0.705c-1.785-0.11-6.447-0.017-8.609,0.659c-0.065-0.314,0.141-0.65,0.444-0.947
				C128.823,187.338,129.472,187.05,130.18,186.902z"/>
			<path style="fill:#FFFFFF;" d="M148.516,206.327c-0.441,2.089-1.909,5.931-6.853,5.931c-4.956,0-6.346-3.511-6.824-5.931H148.516
				z"/>
			<g>
				<path style="fill:#F97853;" d="M141.733,215.848c1.427,0,2.686-0.768,2.74-0.801c0.274-0.17,0.359-0.529,0.19-0.804
					c-0.169-0.274-0.528-0.359-0.803-0.191l0,0c-0.01,0.006-1.038,0.628-2.126,0.628c-1.178,0-2.233-0.624-2.243-0.63
					c-0.277-0.166-0.635-0.077-0.801,0.199c-0.166,0.276-0.078,0.634,0.197,0.801C138.94,215.083,140.221,215.848,141.733,215.848z"
					/>
			</g>
			<path style="fill:#403657;" d="M161.247,194.504c-0.143,0.12-0.281,0.078-0.41-0.156c-2.026-3.571-0.122-10.696-6.117-13.428
				c-4.566-2.083-6.205-6.356-6.205-6.356c-1.044,1.787-3.764,3.426-3.764,3.426s-6.896,4.086-14.062,6.847
				c-2.13,0.821-3.647,1.654-4.709,2.369c0.083,0.023,0.127,0.036,0.127,0.036s-1.984,3.223-0.533,8.234
				c1.452,5.008-0.416,13.272-3.639,15.179c0.057-0.14,2.475-5.855,1.109-10.517c-0.787-2.673-0.78-6.925-1.526-9.474
				c-0.826-0.569-2.736-1.528-3.383-1.913c-0.184-2.192-0.317-4.353-0.41-6.306c-0.262-5.509,3.036-10.571,8.195-12.55
				c7.431-2.857,18.717-5.119,29.407,0.943c3.948,2.239,6.426,6.384,6.517,10.922C161.91,185.224,161.819,189.756,161.247,194.504z"
				/>
		</g>
		<g>
			<path style="fill:#FFA681;" d="M121.519,190.664c0,0-4.189-5.083-6.661-1.418c-2.472,3.665,1.178,14.901,7.23,12.259
				L121.519,190.664z"/>
			<g>
				<path style="fill:#FFFFFF;" d="M121.688,201.686c0.433,0.82,0.583,1.794,0.341,2.761c-0.522,2.089-2.647,3.363-4.736,2.841
					c-2.089-0.523-3.363-2.647-2.841-4.736c0.301-1.204,1.133-2.135,2.185-2.608c0.527-0.238,1.108-0.361,1.706-0.346
					c0.104-0.223,0.157-0.465,0.043-0.751c-0.764-0.023-1.506,0.143-2.17,0.465c-1.201,0.578-2.146,1.667-2.493,3.058
					c-0.623,2.492,0.895,5.025,3.388,5.648c2.49,0.623,5.025-0.895,5.648-3.388c0.269-1.074,0.133-2.151-0.302-3.083
					C122.2,201.594,121.944,201.641,121.688,201.686z"/>
			</g>
			<g>
				<path style="fill:#F97853;" d="M120.611,197.748c-0.224,0-0.429-0.148-0.492-0.374c-0.938-3.342-4.4-4.697-4.435-4.71
					c-0.263-0.101-0.396-0.396-0.296-0.66c0.1-0.264,0.395-0.397,0.659-0.297c0.162,0.061,3.978,1.542,5.058,5.391
					c0.076,0.272-0.082,0.554-0.354,0.631C120.704,197.742,120.657,197.748,120.611,197.748z"/>
			</g>
			<g>
				<g>
					<path style="fill:#F97853;" d="M117.116,196.065c-0.095,0-0.191-0.026-0.276-0.081c-0.238-0.153-0.306-0.469-0.153-0.707
						c0.026-0.039,0.638-0.974,1.92-1.547c0.256-0.116,0.56,0,0.676,0.258c0.115,0.258,0,0.56-0.258,0.676
						c-0.991,0.443-1.473,1.161-1.477,1.167C117.449,195.982,117.284,196.065,117.116,196.065z"/>
				</g>
			</g>
		</g>
	</g>
</g>
<g>
	<path style="fill:#FFA681;" d="M343.402,301.032c-9.748,6.998-24.999,11.798-24.999,11.798l-3.123-11.232l-2.436-8.763
		l-1.719-6.176l-17.48-0.012c0.947,3.276,1.925,6.622,2.908,9.918c1.261,4.251,2.519,8.414,3.715,12.252
		c1.687,5.401,3.243,10.151,4.497,13.545c0.293,0.792,0.634,1.654,1.015,2.574c2.336,6.311,4.223,13.156,13.14,8.862
		c7.85-3.781,18.496-9.022,23.816-12.502L343.402,301.032z"/>
	<g>
		<path style="fill:#F97853;" d="M296.551,296.565c1.261,4.25,2.518,8.414,3.715,12.251c7.135-0.756,12.075-4.292,15.014-7.218
			l-2.436-8.762L296.551,296.565z"/>
		<path style="fill:#6020BD;" d="M292.84,235.262c0,0,18.235,43.489,26.078,57.579c0,0-10.991,9.345-21.697,9.6
			C297.221,302.441,291.051,254.694,292.84,235.262z"/>
	</g>
	<g>
		<g>
			<g>
				<path style="fill:#9C78ED;" d="M250.145,411.974c0.183-3.044,0.356-5.94,0.514-8.626c0.645-10.978,1.061-18.471,1.061-18.471
					l-4.299-0.193l-2.424-0.109l-29.229-1.298c0,0-0.532,8.38-1.159,20.686c-0.128,2.518-0.261,5.202-0.394,8.01H250.145z"/>
			</g>
		</g>
		<path style="fill:#7846D1;" d="M247.42,384.685l4.299,0.193c0,0-0.415,7.493-1.061,18.471c-11.23,0.936-23.491,1.317-36.05,0.615
			c0.627-12.306,1.159-20.686,1.159-20.686l29.229,1.298L247.42,384.685z"/>
		<g>
			<path style="fill:#7846D1;" d="M245.885,411.974c0.678-11.727,1.235-21.772,1.537-27.288l-2.424-0.109
				c-0.303,5.54-0.862,15.631-1.542,27.397H245.885z"/>
		</g>
	</g>
	<g>
		<g>
			<g>
				<path style="fill:#9C78ED;" d="M259.565,411.974h35.93c-0.133-2.809-0.265-5.492-0.394-8.01
					c-0.627-12.306-1.159-20.686-1.159-20.686l-29.229,1.298l-2.423,0.109l-4.299,0.193c0,0,0.415,7.493,1.06,18.471
					C259.209,406.034,259.382,408.931,259.565,411.974z"/>
			</g>
		</g>
		<path style="fill:#7846D1;" d="M262.29,384.685l-4.3,0.193c0,0,0.415,7.493,1.061,18.471c11.23,0.936,23.491,1.317,36.05,0.615
			c-0.627-12.306-1.159-20.686-1.159-20.686l-29.229,1.298L262.29,384.685z"/>
		<g>
			<path style="fill:#7846D1;" d="M266.253,411.974c-0.68-11.766-1.238-21.857-1.542-27.397l-2.424,0.109
				c0.302,5.516,0.858,15.561,1.537,27.288H266.253z"/>
		</g>
	</g>
	<g>
		<g>
			<g>
				<g>
					<path style="fill:#7846D1;" d="M209.424,362.437c-0.004,0.602,0,1.196,0,1.781c0.013,10.69,0.066,18.974,0.119,23.041
						c10.325,2.797,20.649,4.604,30.978,5.439c0.471,0.035,0.932,0.07,1.403,0.105c0.251,0.018,0.501,0.035,0.752,0.048
						c0.554,0.04,1.112,0.075,1.662,0.101c0.616,0.04,1.227,0.07,1.847,0.101c7.027,0.325,14.053,0.198,21.085-0.378
						c1.42-0.119,2.832-0.255,4.252-0.409c0.092-0.009,0.18-0.018,0.273-0.026c0.361-0.04,0.721-0.084,1.086-0.128
						c0.22-0.026,0.44-0.053,0.655-0.079c8.174-0.976,16.349-2.572,24.528-4.775c0.022-1.847,0.031-4.586,0.031-8.038
						c0-0.642,0-1.301-0.004-1.992v-0.004c-0.004-4.938-0.035-11.085-0.088-18.033c-0.004-0.594-0.009-1.192-0.013-1.799
						c-0.04-4.626-0.088-9.581-0.15-14.748c-0.009-0.598-0.013-1.196-0.022-1.798c-0.066-5.299-0.145-10.804-0.237-16.393
						c-0.057-3.412-0.119-6.855-0.189-10.303c-0.07-3.491-0.145-6.987-0.229-10.461c-0.018-0.756-0.035-1.513-0.057-2.269
						c-0.8-32.852-2.185-63.047-4.476-66.415c-1.587-2.331-5.224-5.07-9.507-7.831c-0.523-0.334-1.055-0.673-1.596-1.011
						c-1.825-1.139-16.709-6.196-18.6-7.308l-15.733-1.099c-0.097,0.057-15.14,5.132-15.236,5.184
						c-0.646,0.369-1.302,0.743-1.948,1.117c-5.571,3.214-11.068,6.6-14.234,9.516c-0.462,0.422-0.875,0.835-1.227,1.24
						c-0.281,0.321-0.532,0.633-0.734,0.941c-0.189,0.277-0.374,0.743-0.55,1.381c-1.904,6.917-2.902,34.1-3.399,63.676
						c-0.035,2.12-0.066,4.252-0.097,6.389c-0.013,0.937-0.026,1.878-0.04,2.819c-0.013,0.646-0.022,1.297-0.026,1.944
						c-0.004,0.325-0.009,0.646-0.013,0.972c-0.022,1.609-0.04,3.214-0.053,4.811c-0.013,1.183-0.026,2.361-0.04,3.54
						C209.455,336.181,209.411,350.648,209.424,362.437z"/>
				</g>
			</g>
		</g>
	</g>
	<g>
		<g>
			<path style="fill:#FFA681;" d="M181.29,404.678c-0.387,4.199,4.727,1.922,3.28-6.587c-1.442-8.508,2.656-16.212,4.424-15.966
				c1.772,0.251-1.464,9.291,0.11,12.55c1.57,3.258,3.601-3.074,5.624-6.913c2.098-3.988,1.974-12.69,1.02-18.899
				c-0.954-6.213,10.303-43.937,10.36-54.868l1.372-4.634l5.022-16.969l7.862-26.572c0,0-4.71-20.113-12.651-18.385
				c0,0-4.204,14.009-8.697,29.809c-0.761,2.682-1.53,5.417-2.291,8.144c-3.201,11.455-6.209,22.764-7.607,29.474
				c-3.694,17.716-3.979,54.543-3.979,54.543s-6.517,13.53-6.671,19.55C178.304,395.374,181.672,400.479,181.29,404.678z"/>
			<path style="fill:#F97853;" d="M196.724,285.386l10.756,23.974l5.022-16.969l-13.486-15.148
				C198.254,279.925,197.485,282.66,196.724,285.386z"/>
		</g>
		<path style="fill:#7846D1;" d="M196.191,278.245c4.718,8.091,9.516,16.138,14.295,24.198c1.574-5.272,3.206-10.333,4.736-14.986
			c0.004-0.013,0.009-0.022,0.013-0.035c0.611-1.86,1.209-3.654,1.781-5.369c0.009-0.031,0.018-0.062,0.031-0.088
			c0.198-0.602,0.391-1.196,0.589-1.776v-0.004c2.282-6.899,4.05-12.383,4.555-15.579c1.363-8.605-2.352-25.464-7.585-28.789l0,0
			c-0.136,0.303-0.549-0.633-0.795-0.061c-0.919,2.124-5,7.37-7.019,12.479c-0.259,0.651-0.523,1.328-0.796,2.018
			C203.072,257.767,199.497,267.542,196.191,278.245z"/>
	</g>
	<g>
		<g>
			<g>
				<path style="fill:#6020BD;" d="M254.363,233.488c6.813,0,11.616-6.216,11.817-6.481c0.287-0.377,0.233-0.931-0.119-1.237
					c-0.352-0.306-0.87-0.249-1.157,0.127c-0.062,0.081-4.534,5.832-10.541,5.832c-5.936,0-9.557-6.508-9.592-6.574
					c-0.229-0.419-0.733-0.561-1.124-0.317c-0.392,0.244-0.526,0.781-0.298,1.201C243.514,226.343,247.469,233.488,254.363,233.488z
					"/>
			</g>
		</g>
		<g>
			<path style="fill:#6020BD;" d="M283.169,293.048c0.126,0,0.253-0.031,0.374-0.096c0.408-0.221,0.572-0.755,0.365-1.192
				l-2.971-6.279c-0.206-0.437-0.705-0.612-1.114-0.39c-0.409,0.221-0.572,0.755-0.365,1.192l2.971,6.279
				C282.574,292.871,282.866,293.048,283.169,293.048z"/>
		</g>
		<g>
			<path style="fill:#6020BD;" d="M289.361,287.905c0.107,0.071,0.23,0.117,0.365,0.13c0.456,0.043,0.859-0.317,0.899-0.805
				l0.582-7.01c0.041-0.487-0.296-0.919-0.753-0.962c-0.456-0.043-0.859,0.317-0.899,0.805l-0.582,7.01
				C288.944,287.418,289.104,287.733,289.361,287.905z"/>
		</g>
		<g>
			<path style="fill:#6020BD;" d="M273.398,277.036c0.399,0,0.75-0.308,0.817-0.742l1.073-6.943c0.074-0.483-0.231-0.94-0.683-1.02
				c-0.453-0.079-0.879,0.247-0.953,0.731l-1.073,6.943c-0.074,0.483,0.231,0.94,0.683,1.02
				C273.308,277.032,273.354,277.036,273.398,277.036z"/>
		</g>
		<g>
			<path style="fill:#6020BD;" d="M246.706,279.62c0.144,0,0.289-0.04,0.422-0.124c0.394-0.249,0.525-0.793,0.291-1.215
				l-3.352-6.055c-0.233-0.421-0.742-0.561-1.136-0.311c-0.394,0.25-0.525,0.793-0.291,1.215l3.352,6.056
				C246.146,279.465,246.423,279.62,246.706,279.62z"/>
		</g>
		<g>
			<path style="fill:#6020BD;" d="M279.497,252.479c0.154,0,0.31-0.046,0.449-0.142l5.525-3.822
				c0.385-0.266,0.495-0.815,0.246-1.226c-0.249-0.411-0.762-0.529-1.147-0.263l-5.525,3.822c-0.385,0.266-0.495,0.815-0.246,1.226
				C278.959,252.336,279.225,252.479,279.497,252.479z"/>
		</g>
		<g>
			<path style="fill:#6020BD;" d="M254.885,308.894c0.126,0,0.253-0.031,0.374-0.096c0.408-0.221,0.572-0.755,0.365-1.192
				l-2.971-6.279c-0.207-0.437-0.705-0.612-1.114-0.391c-0.408,0.221-0.572,0.755-0.365,1.192l2.971,6.279
				C254.29,308.716,254.582,308.894,254.885,308.894z"/>
		</g>
		<g>
			<path style="fill:#6020BD;" d="M267.939,257.203c0.276,0,0.546-0.147,0.704-0.416c0.243-0.415,0.125-0.963-0.263-1.222
				l-5.577-3.734c-0.388-0.259-0.9-0.135-1.143,0.281c-0.243,0.415-0.125,0.963,0.263,1.222l5.577,3.734
				C267.637,257.159,267.789,257.203,267.939,257.203z"/>
		</g>
		<g>
			<path style="fill:#6020BD;" d="M281.204,231.094c-0.012,0.171,0.021,0.339,0.095,0.479c0.127,0.26,0.378,0.444,0.674,0.466
				c0.456,0.035,0.851-0.334,0.884-0.822l0.263-4.041c-0.522-0.334-1.053-0.673-1.595-1.011L281.204,231.094z"/>
		</g>
		<g>
			<path style="fill:#6020BD;" d="M288.639,269.62c0.276,0,0.546-0.147,0.704-0.416c0.243-0.415,0.125-0.963-0.263-1.222
				l-5.577-3.734c-0.388-0.259-0.9-0.135-1.143,0.281c-0.243,0.415-0.125,0.962,0.263,1.222l5.577,3.734
				C288.336,269.576,288.488,269.62,288.639,269.62z"/>
		</g>
		<g>
			<path style="fill:#6020BD;" d="M244.162,238.98c0.156,0,0.315-0.047,0.455-0.146c0.382-0.27,0.488-0.819,0.236-1.228l-3.18-5.162
				c-0.251-0.409-0.766-0.523-1.148-0.253c-0.382,0.27-0.488,0.819-0.236,1.229l3.18,5.162
				C243.628,238.839,243.892,238.98,244.162,238.98z"/>
		</g>
		<g>
			<path style="fill:#6020BD;" d="M241.311,328.147c0.218,0,0.435-0.091,0.598-0.273l4.557-5.077
				c0.317-0.353,0.306-0.914-0.024-1.253c-0.33-0.34-0.855-0.328-1.172,0.026l-4.557,5.076c-0.318,0.353-0.306,0.914,0.024,1.254
				C240.898,328.065,241.105,328.147,241.311,328.147z"/>
		</g>
		<g>
			<path style="fill:#6020BD;" d="M258.056,327.091c0.218,0,0.435-0.091,0.598-0.273l4.557-5.077
				c0.318-0.353,0.306-0.914-0.024-1.253c-0.331-0.34-0.855-0.328-1.172,0.025l-4.557,5.077c-0.317,0.353-0.306,0.914,0.024,1.254
				C257.643,327.009,257.85,327.091,258.056,327.091z"/>
		</g>
		<g>
			<path style="fill:#6020BD;" d="M270.095,361.406c0.076-0.218,0.073-0.468-0.029-0.695l-2.845-6.346
				c-0.198-0.442-0.693-0.628-1.106-0.416c-0.413,0.212-0.587,0.741-0.389,1.183l2.845,6.346c0.198,0.442,0.693,0.628,1.106,0.416
				C269.879,361.791,270.023,361.612,270.095,361.406z"/>
		</g>
		<g>
			<path style="fill:#6020BD;" d="M222.041,382.344c0.077-0.218,0.073-0.468-0.029-0.695l-2.845-6.346
				c-0.198-0.442-0.693-0.628-1.106-0.416c-0.413,0.212-0.587,0.741-0.389,1.183l2.845,6.346c0.198,0.442,0.693,0.628,1.106,0.416
				C221.825,382.729,221.969,382.551,222.041,382.344z"/>
		</g>
		<g>
			<path style="fill:#6020BD;" d="M242.676,392.854c0.555,0.039,1.11,0.075,1.661,0.101l0.58-3.953
				c0.07-0.484-0.239-0.937-0.691-1.011c-0.452-0.075-0.876,0.255-0.946,0.739L242.676,392.854z"/>
		</g>
		<g>
			<path style="fill:#6020BD;" d="M236.058,380.907c0.179-0.133,0.308-0.341,0.344-0.59l1.018-6.953
				c0.071-0.484-0.238-0.937-0.691-1.013c-0.453-0.076-0.876,0.255-0.947,0.739l-1.018,6.953c-0.071,0.484,0.238,0.937,0.691,1.013
				C235.675,381.094,235.889,381.034,236.058,380.907z"/>
		</g>
		<g>
			<path style="fill:#6020BD;" d="M276.067,322.775c0.141,0,0.284-0.039,0.415-0.12c0.396-0.245,0.531-0.788,0.302-1.212
				l-3.296-6.09c-0.229-0.424-0.736-0.568-1.133-0.323c-0.396,0.245-0.532,0.788-0.302,1.212l3.296,6.091
				C275.502,322.616,275.78,322.775,276.067,322.775z"/>
		</g>
		<g>
			<path style="fill:#6020BD;" d="M266.388,307.551c0.3,0,0.59-0.175,0.738-0.48l3.016-6.254c0.21-0.435,0.05-0.97-0.357-1.195
				c-0.406-0.226-0.906-0.054-1.117,0.382l-3.017,6.254c-0.21,0.435-0.05,0.97,0.357,1.194
				C266.13,307.519,266.26,307.551,266.388,307.551z"/>
		</g>
		<g>
			<path style="fill:#6020BD;" d="M292.6,306.634c0.086,0.11,0.197,0.193,0.312,0.246c0.28,0.123,0.608,0.079,0.855-0.141
				l3.392-3.047c-0.017-0.756-0.033-1.513-0.053-2.269l-4.407,3.957C292.35,305.697,292.304,306.255,292.6,306.634z"/>
		</g>
		<g>
			<path style="fill:#6020BD;" d="M266.431,241.2c0.301,0,0.59-0.175,0.738-0.48l3.017-6.254c0.21-0.435,0.05-0.97-0.357-1.195
				c-0.406-0.225-0.906-0.054-1.117,0.382l-3.016,6.254c-0.21,0.435-0.05,0.97,0.357,1.195
				C266.173,241.169,266.303,241.2,266.431,241.2z"/>
		</g>
		<g>
			<path style="fill:#6020BD;" d="M247.096,264.112c0.052,0,0.105-0.005,0.158-0.016c0.45-0.093,0.744-0.558,0.657-1.039
				l-1.248-6.909c-0.087-0.482-0.522-0.795-0.971-0.703c-0.45,0.093-0.744,0.558-0.657,1.039l1.248,6.909
				C246.359,263.818,246.706,264.112,247.096,264.112z"/>
		</g>
		<g>
			<path style="fill:#6020BD;" d="M257.861,270.179c0.052,0,0.105-0.005,0.158-0.016c0.45-0.093,0.744-0.558,0.657-1.039
				l-1.248-6.909c-0.087-0.482-0.522-0.794-0.971-0.703c-0.45,0.093-0.744,0.558-0.657,1.039l1.248,6.91
				C257.124,269.885,257.471,270.179,257.861,270.179z"/>
		</g>
		<g>
			<path style="fill:#6020BD;" d="M250.149,247.382c0.275,0,0.543-0.145,0.701-0.411l3.526-5.941
				c0.245-0.413,0.131-0.962-0.256-1.224c-0.388-0.262-0.899-0.139-1.145,0.273l-3.526,5.941c-0.245,0.413-0.131,0.962,0.256,1.224
				C249.843,247.338,249.997,247.382,250.149,247.382z"/>
		</g>
		<g>
			<path style="fill:#6020BD;" d="M282.495,308.649c0.227-0.259,0.295-0.649,0.143-0.989l-2.834-6.351
				c-0.197-0.442-0.692-0.629-1.105-0.418c-0.415,0.211-0.589,0.74-0.391,1.182l2.834,6.351c0.197,0.442,0.692,0.629,1.105,0.418
				C282.344,308.794,282.427,308.728,282.495,308.649z"/>
		</g>
		<g>
			<path style="fill:#6020BD;" d="M261.164,290.223c0.331,0,0.644-0.214,0.772-0.564l2.398-6.553c0.167-0.456-0.043-0.97-0.47-1.149
				c-0.427-0.179-0.908,0.046-1.074,0.503l-2.398,6.553c-0.167,0.456,0.043,0.97,0.47,1.149
				C260.961,290.203,261.063,290.223,261.164,290.223z"/>
		</g>
		<g>
			<path style="fill:#6020BD;" d="M234.818,330.699c0.126,0,0.253-0.031,0.374-0.096c0.408-0.221,0.572-0.755,0.365-1.192
				l-2.971-6.279c-0.206-0.437-0.705-0.612-1.114-0.391c-0.408,0.221-0.572,0.755-0.365,1.192l2.971,6.279
				C234.223,330.521,234.515,330.699,234.818,330.699z"/>
		</g>
		<g>
			<path style="fill:#6020BD;" d="M278.483,375.827c0.001,0.134,0.031,0.271,0.093,0.399c0.21,0.435,0.711,0.605,1.118,0.379
				l5.842-3.237c0.406-0.224,0.566-0.76,0.355-1.195c-0.21-0.435-0.711-0.604-1.118-0.379l-5.842,3.237
				C278.643,375.189,278.48,375.503,278.483,375.827z"/>
		</g>
		<g>
			<path style="fill:#6020BD;" d="M294.343,379.852c0,0.136,0.029,0.273,0.091,0.4c0.21,0.435,0.711,0.602,1.118,0.378l2.541-1.407
				c0-0.642,0-1.302-0.004-1.992l-3.297,1.825C294.504,379.214,294.339,379.53,294.343,379.852z"/>
		</g>
		<g>
			<path style="fill:#6020BD;" d="M269.795,387.678l1.998,4.564c0.362-0.039,0.724-0.083,1.089-0.128
				c0.218-0.026,0.436-0.053,0.654-0.079l-2.241-5.11c-0.193-0.444-0.686-0.638-1.102-0.427
				C269.779,386.707,269.598,387.234,269.795,387.678z"/>
		</g>
		<g>
			<path style="fill:#6020BD;" d="M224.036,314.686c0.399,0,0.75-0.308,0.817-0.742l1.073-6.943c0.075-0.483-0.231-0.94-0.683-1.02
				c-0.453-0.079-0.878,0.247-0.953,0.731l-1.073,6.943c-0.074,0.483,0.231,0.94,0.683,1.02
				C223.945,314.682,223.991,314.686,224.036,314.686z"/>
		</g>
		<g>
			<path style="fill:#6020BD;" d="M223.351,263.456c0.144,0,0.289-0.04,0.421-0.124c0.394-0.249,0.525-0.793,0.291-1.215
				l-3.352-6.055c-0.233-0.421-0.742-0.561-1.135-0.311c-0.394,0.25-0.525,0.793-0.291,1.215l3.352,6.055
				C222.792,263.301,223.068,263.456,223.351,263.456z"/>
		</g>
		<g>
			<path style="fill:#6020BD;" d="M234.128,288.069c0.154,0,0.31-0.046,0.449-0.142l5.525-3.822
				c0.385-0.266,0.495-0.815,0.246-1.226c-0.249-0.411-0.762-0.529-1.146-0.263l-5.525,3.822c-0.385,0.266-0.495,0.815-0.246,1.226
				C233.59,287.926,233.856,288.069,234.128,288.069z"/>
		</g>
		<g>
			<path style="fill:#6020BD;" d="M292.627,329.349c0.126,0,0.253-0.031,0.374-0.096c0.408-0.221,0.572-0.755,0.365-1.192
				l-2.971-6.279c-0.207-0.437-0.705-0.612-1.114-0.39c-0.409,0.221-0.572,0.755-0.365,1.191l2.971,6.279
				C292.033,329.172,292.324,329.349,292.627,329.349z"/>
		</g>
		<g>
			<path style="fill:#6020BD;" d="M224.715,297.607c0.276,0,0.546-0.147,0.704-0.416c0.243-0.415,0.125-0.963-0.263-1.222
				l-5.577-3.734c-0.388-0.259-0.9-0.135-1.143,0.281c-0.243,0.415-0.125,0.962,0.263,1.222l5.577,3.734
				C224.412,297.563,224.565,297.607,224.715,297.607z"/>
		</g>
		<g>
			<path style="fill:#6020BD;" d="M238.085,306.489c0.203,0.2,0.495,0.288,0.781,0.205c0.442-0.129,0.703-0.616,0.583-1.088
				l-1.727-6.791c-0.121-0.472-0.575-0.752-1.018-0.623c-0.442,0.129-0.703,0.616-0.583,1.088l1.727,6.791
				C237.891,306.237,237.975,306.38,238.085,306.489z"/>
		</g>
		<g>
			<path style="fill:#6020BD;" d="M214.547,234.814l1.443,2.339c0.16,0.255,0.423,0.396,0.695,0.396
				c0.156,0,0.312-0.044,0.452-0.145c0.382-0.268,0.489-0.818,0.238-1.227l-1.603-2.603
				C215.312,233.996,214.9,234.409,214.547,234.814z"/>
		</g>
		<g>
			<path style="fill:#6020BD;" d="M208.24,250.253l1.534,2.489c0.16,0.259,0.423,0.4,0.695,0.4c0.156,0,0.312-0.048,0.456-0.145
				c0.382-0.273,0.485-0.822,0.234-1.231l-2.175-3.531C208.742,248.885,208.495,249.562,208.24,250.253z"/>
		</g>
		<g>
			<path style="fill:#6020BD;" d="M279.955,351.273c0.218,0,0.435-0.091,0.598-0.273l4.557-5.076
				c0.317-0.353,0.306-0.914-0.024-1.254c-0.33-0.34-0.855-0.328-1.172,0.026l-4.557,5.076c-0.317,0.353-0.306,0.914,0.024,1.254
				C279.541,351.191,279.748,351.273,279.955,351.273z"/>
		</g>
		<g>
			<path style="fill:#6020BD;" d="M249.634,369.02c0.218,0,0.435-0.091,0.598-0.273l4.557-5.077
				c0.317-0.353,0.306-0.914-0.024-1.254c-0.33-0.34-0.855-0.328-1.172,0.026l-4.557,5.076c-0.317,0.353-0.306,0.914,0.024,1.254
				C249.221,368.938,249.428,369.02,249.634,369.02z"/>
		</g>
		<g>
			<path style="fill:#6020BD;" d="M241.207,361.971c0.137-0.181,0.208-0.419,0.178-0.669l-0.822-6.982
				c-0.057-0.486-0.472-0.83-0.926-0.769c-0.455,0.061-0.777,0.504-0.719,0.991l0.822,6.982c0.057,0.486,0.472,0.83,0.926,0.769
				C240.888,362.263,241.077,362.142,241.207,361.971z"/>
		</g>
		<g>
			<path style="fill:#6020BD;" d="M258.477,381.65c0.218,0,0.435-0.091,0.598-0.273l4.557-5.076
				c0.317-0.353,0.306-0.914-0.024-1.253c-0.33-0.34-0.855-0.328-1.172,0.026l-4.557,5.077c-0.318,0.353-0.306,0.914,0.024,1.253
				C258.064,381.568,258.271,381.65,258.477,381.65z"/>
		</g>
		<g>
			<path style="fill:#6020BD;" d="M209.424,362.439c-0.004,0.602,0,1.196,0,1.781l5.143,0.462c0.456,0.044,0.859-0.321,0.896-0.809
				c0.041-0.488-0.3-0.915-0.757-0.959L209.424,362.439z"/>
		</g>
		<g>
			<path style="fill:#6020BD;" d="M269.662,340.598c0.218,0,0.435-0.092,0.598-0.273l4.557-5.077
				c0.317-0.353,0.306-0.914-0.024-1.254c-0.331-0.34-0.855-0.328-1.172,0.026l-4.557,5.076c-0.317,0.353-0.306,0.915,0.024,1.254
				C269.249,340.516,269.455,340.598,269.662,340.598z"/>
		</g>
		<g>
			<path style="fill:#6020BD;" d="M247.738,338.392c0.014,0.232,0.114,0.458,0.294,0.62l5.036,4.529
				c0.35,0.315,0.873,0.267,1.168-0.108c0.295-0.376,0.25-0.934-0.101-1.249l-5.036-4.529c-0.35-0.315-0.873-0.267-1.168,0.108
				C247.787,337.945,247.724,338.171,247.738,338.392z"/>
		</g>
		<g>
			<path style="fill:#6020BD;" d="M223.743,363.304c0.141,0,0.284-0.038,0.414-0.119c0.396-0.245,0.532-0.788,0.302-1.212
				l-3.296-6.091c-0.229-0.424-0.736-0.568-1.133-0.323c-0.396,0.245-0.532,0.788-0.302,1.212l3.296,6.091
				C223.178,363.146,223.457,363.304,223.743,363.304z"/>
		</g>
		<g>
			<path style="fill:#6020BD;" d="M218.037,345.201c0.301,0,0.59-0.175,0.738-0.48l3.017-6.254c0.21-0.435,0.05-0.97-0.357-1.194
				c-0.406-0.226-0.906-0.054-1.117,0.381l-3.017,6.254c-0.21,0.435-0.05,0.97,0.357,1.195
				C217.779,345.169,217.909,345.201,218.037,345.201z"/>
		</g>
		<g>
			<path style="fill:#6020BD;" d="M227.035,274.193c0.3,0,0.59-0.175,0.738-0.48l3.016-6.254c0.21-0.435,0.05-0.97-0.357-1.195
				c-0.406-0.225-0.906-0.054-1.117,0.382l-3.016,6.254c-0.21,0.435-0.05,0.97,0.357,1.195
				C226.777,274.161,226.907,274.193,227.035,274.193z"/>
		</g>
		<g>
			<path style="fill:#6020BD;" d="M223.741,247.948c0.052,0,0.105-0.005,0.158-0.016c0.45-0.093,0.744-0.558,0.657-1.039
				l-1.248-6.909c-0.087-0.481-0.522-0.795-0.971-0.703c-0.45,0.093-0.744,0.558-0.657,1.039l1.248,6.909
				C223.005,247.654,223.352,247.948,223.741,247.948z"/>
		</g>
		<g>
			<path style="fill:#6020BD;" d="M208.589,271.791c0.052,0,0.105-0.005,0.158-0.016c0.45-0.093,0.744-0.558,0.657-1.039
				l-1.248-6.909c-0.087-0.481-0.522-0.795-0.971-0.703c-0.45,0.093-0.744,0.558-0.657,1.039l1.248,6.909
				C207.853,271.497,208.2,271.791,208.589,271.791z"/>
		</g>
		<g>
			<path style="fill:#6020BD;" d="M234.506,254.015c0.052,0,0.105-0.005,0.158-0.016c0.45-0.093,0.744-0.558,0.657-1.039
				l-1.248-6.909c-0.087-0.482-0.522-0.794-0.971-0.703c-0.45,0.093-0.744,0.558-0.657,1.039l1.248,6.909
				C233.769,253.72,234.117,254.015,234.506,254.015z"/>
		</g>
		<g>
			<path style="fill:#6020BD;" d="M229.566,229.946c0.16,0.039,0.317,0.026,0.46-0.026c0.259-0.097,0.469-0.33,0.535-0.633
				l1.394-6.345c-0.645,0.369-1.299,0.743-1.949,1.117l-1.057,4.819C228.842,229.357,229.117,229.832,229.566,229.946z"/>
		</g>
		<g>
			<path style="fill:#6020BD;" d="M210.597,282.474c0.274,0,0.543-0.145,0.701-0.411l3.526-5.941
				c0.245-0.414,0.131-0.962-0.255-1.224c-0.388-0.262-0.899-0.139-1.145,0.273l-3.526,5.941c-0.245,0.414-0.131,0.962,0.255,1.224
				C210.291,282.429,210.445,282.474,210.597,282.474z"/>
		</g>
		<g>
			<path style="fill:#6020BD;" d="M234.145,346.3c0.227-0.259,0.294-0.649,0.143-0.989l-2.833-6.351
				c-0.197-0.442-0.692-0.629-1.105-0.418c-0.415,0.211-0.589,0.741-0.391,1.182l2.833,6.351c0.197,0.442,0.692,0.63,1.105,0.418
				C233.993,346.444,234.076,346.378,234.145,346.3z"/>
		</g>
		<g>
			<path style="fill:#6020BD;" d="M292.465,358.235l5.538,0.959c-0.004-0.594-0.008-1.192-0.017-1.798l-5.254-0.915
				c-0.452-0.075-0.88,0.251-0.95,0.734C291.708,357.698,292.012,358.156,292.465,358.235z"/>
		</g>
		<g>
			<path style="fill:#6020BD;" d="M294.15,342.009l3.688,0.638c-0.008-0.598-0.012-1.196-0.021-1.798l-3.4-0.589
				c-0.452-0.079-0.876,0.251-0.95,0.734C293.394,341.477,293.698,341.93,294.15,342.009z"/>
		</g>
		<g>
			<path style="fill:#6020BD;" d="M212.813,327.873c0.332,0,0.645-0.214,0.772-0.564l2.398-6.553c0.167-0.456-0.043-0.97-0.47-1.149
				c-0.427-0.179-0.908,0.046-1.074,0.503l-2.398,6.553c-0.167,0.456,0.044,0.97,0.47,1.149
				C212.611,327.853,212.713,327.873,212.813,327.873z"/>
		</g>
	</g>
	<g>
		<g>
			<g>
				<path style="fill:#6020BD;" d="M209.767,307.199c1.557-6.433,3.513-13.583,5.452-19.743c0.004-0.013,0.009-0.022,0.013-0.035
					c0.598-1.904,1.196-3.711,1.781-5.369c0.009-0.031,0.018-0.061,0.031-0.088c0.18-0.523,0.365-1.029,0.545-1.521
					c0.026-0.088,0.044-0.172,0.044-0.255v-0.004c0-0.295-0.185-0.572-0.479-0.682c-0.383-0.136-0.805,0.057-0.941,0.44
					c-1.988,5.417-4.336,13.218-6.35,20.869C209.829,302.929,209.798,305.062,209.767,307.199z"/>
			</g>
		</g>
	</g>
	<g>
		<path style="fill:#403657;" d="M233.541,182.998c0,0-5.774-6.363-3.595-13.766c2.179-7.402,8.14-7.321,8.14-7.321
			s3.478-7.873,9.401-8.133c5.923-0.26,11.507-10.779,16.896-7.922c5.39,2.857-0.584,9.091-0.584,9.091s9.234-9.74,12.279-6.883
			c3.045,2.857-4.228,10.519-4.228,10.519s7.759-5.454,10.308-3.377c2.549,2.078-6.08,11.039-6.08,11.039s5.583,10.065-0.036,14.578
			L233.541,182.998z"/>
		<g>
			<path style="fill:#F97853;" d="M273.88,185.128c0,0,3.692-4.923,6.437-0.852c2.745,4.07-1.136,16.093-7.857,13.158
				L273.88,185.128z"/>
			<g>
				<path style="fill:#EA5143;" d="M273.928,193.719c0.248,0,0.476-0.164,0.547-0.415c1.042-3.712,4.887-5.217,4.926-5.231
					c0.293-0.112,0.44-0.44,0.329-0.732c-0.111-0.293-0.439-0.441-0.731-0.33c-0.18,0.068-4.417,1.713-5.617,5.987
					c-0.085,0.302,0.092,0.615,0.394,0.7C273.826,193.712,273.877,193.719,273.928,193.719z"/>
			</g>
			<g>
				<path style="fill:#EA5143;" d="M277.809,191.849c0.106,0,0.212-0.029,0.307-0.09c0.264-0.17,0.34-0.521,0.17-0.785
					c-0.028-0.044-0.709-1.082-2.132-1.718c-0.285-0.129-0.622,0-0.75,0.286c-0.128,0.286,0,0.622,0.286,0.75
					c1.101,0.492,1.635,1.289,1.641,1.297C277.44,191.758,277.623,191.849,277.809,191.849z"/>
			</g>
		</g>
		<g>
			<path style="fill:#F97853;" d="M235.832,185.128c0,0-3.692-4.923-6.437-0.852c-2.745,4.07,1.136,16.093,7.857,13.158
				L235.832,185.128z"/>
			<g>
				<path style="fill:#EA5143;" d="M235.785,193.719c-0.248,0-0.476-0.164-0.547-0.415c-1.041-3.712-4.887-5.217-4.926-5.231
					c-0.293-0.112-0.44-0.44-0.329-0.732c0.111-0.293,0.439-0.441,0.731-0.33c0.18,0.068,4.418,1.713,5.617,5.987
					c0.085,0.302-0.091,0.615-0.394,0.7C235.887,193.712,235.836,193.719,235.785,193.719z"/>
			</g>
			<g>
				<g>
					<path style="fill:#EA5143;" d="M231.903,191.849c-0.106,0-0.212-0.029-0.307-0.09c-0.264-0.17-0.34-0.521-0.17-0.785
						c0.028-0.044,0.708-1.082,2.132-1.718c0.285-0.129,0.622,0,0.75,0.286c0.128,0.286,0,0.622-0.286,0.75
						c-1.101,0.492-1.636,1.289-1.641,1.297C232.273,191.758,232.09,191.849,231.903,191.849z"/>
				</g>
			</g>
		</g>
		<path style="fill:#FFA681;" d="M245.768,207.632v11.956c0,0,3.566,6.089,8.387,6.503c4.817,0.42,9.098-5.242,9.098-5.242v-12.377
			L245.768,207.632z"/>
		<path style="fill:#F97853;" d="M245.768,207.632v5.305c3.235,3.59,8.982,4.487,17.485,3.232v-7.696L245.768,207.632z"/>
		<path style="fill:#FFA681;" d="M233.165,176.928c0.219,4.646,0.661,10.458,1.549,15.1v0.013c0,0.013,0.004,0.027,0.009,0.045
			c0,0.005,0.004,0.005,0.004,0.009c0.219,1.134,0.464,2.201,0.732,3.16c0.161,0.562,0.335,1.151,0.531,1.754
			c2.834,8.891,9.4,21.759,25.901,15.872c6.949-2.477,10.569-9.654,12.413-17.438c0.107-0.464,0.21-0.924,0.299-1.366
			c0.062-0.295,0.121-0.58,0.174-0.862l0.08-0.415c0.013-0.071,0.022-0.12,0.027-0.152c0.005-0.018,0.005-0.027,0.005-0.027
			c1.089-5.985,1.254-12.038,1.174-16.363c-0.085-4.41-2.495-8.445-6.333-10.618c-10.395-5.896-21.371-3.696-28.597-0.919
			C236.115,166.645,232.906,171.568,233.165,176.928z"/>
		<path style="fill:#403657;" d="M234.709,192.028c0,0,0,0.004,0.004,0.013c0,0.013,0.004,0.027,0.009,0.045
			c0,0.005,0.004,0.005,0.004,0.009c0.107,0.388,0.687,2.517,1.263,4.914c2.834,8.891,9.4,21.759,25.901,15.872
			c6.949-2.477,10.569-9.654,12.413-17.438c0.107-0.464,0.21-0.924,0.299-1.366c0.062-0.295,0.121-0.58,0.174-0.862l0.08-0.415
			c0.013-0.071,0.022-0.12,0.027-0.152c0.005-0.018,0.005-0.027,0.005-0.027l-2.428-0.491c-0.464,2.299-1.491,4.463-2.75,6.387
			c-2.053-4.919-12.471-1.651-12.471-1.651l-0.049,0.018c-0.634,0.196-1.285,0.299-1.942,0.299c-0.674,0-1.344-0.107-1.995-0.317
			c0,0-10.293-3.41-12.426,1.281c-2.133-3.303-3.58-6.298-3.58-6.298l-2.535,0.179H234.709z M255.223,199.094
			c11.779-1.589,9.927,4.753,9.927,4.753c-1.308,1.192-2.504,2.062-3.307,2.513c-2.571,1.433-5.102,1.977-6.936,1.888
			c-1.808-0.076-2.303,0.295-6.874-2.178c-0.808-0.433-1.625-1.076-2.424-1.839c0,0,0,0-0.004,0v-0.004
			C245.408,202.986,243.413,197.063,255.223,199.094z"/>
		<path style="fill:#403657;" d="M244.55,185.574c0,1.276,0.658,2.311,1.469,2.311c0.811,0,1.469-1.035,1.469-2.311
			c0-1.276-0.658-2.311-1.469-2.311C245.207,183.263,244.55,184.298,244.55,185.574z"/>
		<path style="fill:#403657;" d="M262.915,185.574c0,1.276,0.658,2.311,1.469,2.311c0.812,0,1.469-1.035,1.469-2.311
			c0-1.276-0.658-2.311-1.469-2.311C263.573,183.263,262.915,184.298,262.915,185.574z"/>
		<path style="fill:#403657;" d="M240.788,177.782c0,0,6.071-2.399,10.745-0.38l-0.467,2.6c0,0-6.861-0.58-10.317,0.82
			C240.439,179.822,240.393,178.81,240.788,177.782z"/>
		<path style="fill:#403657;" d="M269.654,177.794c0,0-6.116-2.417-10.824-0.383l0.471,2.619c0,0,6.911-0.585,10.393,0.827
			C270.006,179.849,270.051,178.83,269.654,177.794z"/>
		<g>
			<g>
				<path style="fill:#F97853;" d="M254.659,195.902c-0.958,0-1.909-0.373-2.056-0.433c-0.29-0.118-0.429-0.45-0.311-0.74
					c0.118-0.29,0.45-0.43,0.74-0.312c0.513,0.208,1.745,0.535,2.278,0.215c0.103-0.062,0.244-0.184,0.279-0.529
					c0.205-1.984-0.338-8.632-0.343-8.699c-0.026-0.313,0.207-0.587,0.52-0.613c0.314-0.026,0.587,0.207,0.613,0.519
					c0.023,0.278,0.557,6.821,0.341,8.909c-0.081,0.786-0.494,1.188-0.826,1.387C255.531,195.826,255.094,195.902,254.659,195.902z"
					/>
			</g>
		</g>
		<path style="fill:#FFFFFF;" d="M261.9,200.229c-0.431,2.17-1.865,6.161-6.693,6.161c-4.84,0-6.197-3.647-6.663-6.161H261.9z"/>
		<path style="fill:#403657;" d="M233.163,176.926c0.222,4.646,0.665,10.457,1.551,15.103l2.539-0.18c0,0-0.615-3.923-0.899-6.479
			c-0.284-2.556-0.766-7.334,1.415-7.93c2.175-0.59,0.899-6.041,3.926-8.404c3.027-2.368,9.799-3.018,14.264-0.269
			c4.464,2.743,9.495-0.208,11.552,0.269c2.062,0.472,4.856,3.311,4.101,5.964c-0.761,2.647,1.511,4.26,2.062,7.003
			c0.551,2.743-1.21,10.127-1.21,10.127l2.425,0.489c1.091-5.987,1.255-12.036,1.176-16.358c-0.085-4.413-2.493-8.446-6.333-10.621
			c-10.4-5.896-21.373-3.698-28.598-0.92C236.117,166.646,232.907,171.57,233.163,176.926z"/>
	</g>
</g>
<g>
	<g>
		<g>
			<g>
				<g>
					<path style="fill:#7846D1;" d="M337.683,304.865c-1.544,14.082-10.738,45.542-17.104,51.704
						c-8.288,8.023-35.563,24.914-49.77,33.574c-2.563,1.562,9.476,11.966,9.476,11.966s37.722-16.131,52.128-28.849
						c4.075-3.598,12.35-14.945,21.691-36.56c2.832-6.554,9.695-19.771,9.339-28.389
						C363.033,298.392,347.275,300.024,337.683,304.865z"/>
				</g>
			</g>
			<path style="fill:#FFA681;" d="M308.248,385.756c0,0-10.26,3.896-13.896,8.182c-3.636,4.286-8.441,7.922-7.273,9.61
				c1.169,1.688,6.493-3.247,6.493-3.247s1.46,5.425,6.623,6.01c5.164,0.585,14.935-9.517,14.935-9.517L308.248,385.756z"/>
			<g>
				<g>
					<path style="fill:#9C78ED;" d="M409.522,344.183c0.003,0.891-0.005,1.945-0.021,3.14c-0.016,1.19-0.042,2.517-0.078,3.969
						c-0.029,0.995-0.06,2.047-0.096,3.151c-0.034,0.93-0.07,1.893-0.109,2.893c-0.044,1.021-0.091,2.073-0.143,3.158
						c-0.714,14.748-2.441,35.111-6.239,51.436h-79.819c2.662-11.865,6.735-30.579,9.966-54.859c0.135-1.021,0.27-2.052,0.403-3.094
						c0.133-1.042,0.262-2.093,0.392-3.153c0.07-0.564,0.138-1.133,0.205-1.701c0.055-0.47,0.109-0.938,0.161-1.4
						c0.148-1.309,0.283-2.597,0.403-3.86c0.101-1.055,0.195-2.091,0.283-3.114c1.369-16.324,0.886-28.558,2.852-35.885
						c2.291-8.53,29.002-18.309,29.002-18.309l16.735,0.875c0,0,15.956,5.21,24.485,12.698c8.532,7.491,1.397,29.841,1.605,42.532
						C409.517,343.097,409.519,343.606,409.522,344.183z"/>
					<g>
						<path style="fill:#E0D5F8;" d="M409.501,347.323c-7.257,0.881-14.828,1.229-22.257,1.229c-24.329,0-47.168-3.719-52.698-4.688
							c0.101-1.055,0.195-2.091,0.283-3.114c6.426,1.138,43.612,7.288,74.692,3.434
							C409.524,345.074,409.517,346.128,409.501,347.323z"/>
					</g>
					<g>
						<path style="fill:#E0D5F8;" d="M409.423,351.292c-0.029,0.995-0.06,2.047-0.096,3.151c-7.205,0.865-14.714,1.205-22.083,1.205
							c-25.703,0-49.742-4.151-53.467-4.823c0.07-0.564,0.138-1.133,0.205-1.701c0.055-0.47,0.109-0.938,0.161-1.4
							C337.843,348.398,376.943,355.297,409.423,351.292z"/>
					</g>
					<g>
						<path style="fill:#E0D5F8;" d="M409.218,357.336c-0.044,1.021-0.091,2.073-0.143,3.158
							c-7.496,0.953-15.345,1.325-23.041,1.325c-24.885,0-48.207-3.888-53.051-4.748c0.135-1.021,0.27-2.052,0.403-3.094
							C339.146,355.004,377.559,361.479,409.218,357.336z"/>
					</g>
					<g>
						<path style="fill:#7846D1;" d="M371.511,302.61c8.321,0,15.997-8.845,16.33-9.233c0.211-0.246,0.182-0.617-0.064-0.828
							c-0.245-0.211-0.616-0.183-0.828,0.063c-0.08,0.093-8.12,9.356-16.155,8.798c-0.321-0.023-0.604,0.222-0.626,0.545
							c-0.023,0.323,0.221,0.604,0.545,0.626C370.979,302.601,371.246,302.61,371.511,302.61z"/>
					</g>
					<g>
						<path style="fill:#7846D1;" d="M378.725,402.077c0.294,0,0.548-0.221,0.582-0.52c0.037-0.322-0.194-0.613-0.516-0.651
							c-21.494-2.474-30.398-39.68-30.486-40.055c-0.073-0.316-0.389-0.512-0.705-0.439c-0.316,0.074-0.512,0.389-0.439,0.705
							c0.365,1.566,9.187,38.388,31.495,40.956C378.68,402.076,378.703,402.077,378.725,402.077z"/>
					</g>
					<g>
						<path style="fill:#7846D1;" d="M370.166,390.819c0.197,0,0.389-0.099,0.5-0.279c0.17-0.276,0.085-0.638-0.191-0.808
							c-11.432-7.049-13.132-17.438-13.148-17.542c-0.049-0.32-0.345-0.544-0.668-0.492c-0.32,0.048-0.541,0.347-0.493,0.667
							c0.067,0.447,1.775,11.019,13.693,18.367C369.954,390.791,370.061,390.819,370.166,390.819z"/>
					</g>
				</g>
				<g>
					<circle style="fill:#403657;" cx="376.841" cy="247.88" r="23.547"/>
					<path style="fill:#403657;" d="M353.679,243.658c0,0-6.668-1.841-5.789-8.313c0.748-5.508,7.219-1.937,6.65-6.242
						c-0.569-4.305-1.833-8.219,3.736-9.295c4.871-0.941,4.953,2.397,11.35-2.446c7.557-5.721,13.362,7.527,20.107,7.925
						c9.948,0.587,11.203,6.213,12.182,10.714c0.978,4.501-2.851,7.657-2.851,7.657H353.679z"/>
					<g>
						<path style="fill:#F97853;" d="M357.25,254.469c0,0-3.73-4.973-6.503-0.861c-2.773,4.112,1.148,16.258,7.938,13.293
							L357.25,254.469z"/>
						<g>
							<path style="fill:#EA5143;" d="M357.202,263.148c-0.251,0-0.481-0.166-0.552-0.419c-1.053-3.75-4.937-5.27-4.976-5.285
								c-0.296-0.113-0.445-0.444-0.332-0.74c0.112-0.296,0.443-0.445,0.739-0.333c0.182,0.069,4.463,1.73,5.675,6.048
								c0.085,0.305-0.092,0.622-0.398,0.708C357.305,263.141,357.253,263.148,357.202,263.148z"/>
						</g>
						<g>
							<g>
								<path style="fill:#EA5143;" d="M353.28,261.259c-0.107,0-0.214-0.029-0.31-0.091c-0.267-0.172-0.343-0.527-0.172-0.793
									c0.029-0.044,0.716-1.093,2.154-1.736c0.288-0.13,0.629,0,0.758,0.289c0.129,0.289,0,0.629-0.289,0.758
									c-1.112,0.498-1.652,1.302-1.657,1.31C353.654,261.167,353.469,261.259,353.28,261.259z"/>
							</g>
						</g>
					</g>
					<path style="fill:#FFA681;" d="M384.302,277.204v12.079c0,0-4.966,5.323-9.837,5.742c-4.866,0.424-7.827-5.357-7.827-5.357
						v-11.615L384.302,277.204z"/>
					<path style="fill:#F97853;" d="M384.302,277.204v5.359c-3.269,3.627-9.074,4.533-17.665,3.265v-7.775L384.302,277.204z"/>
					<path style="fill:#FFA681;" d="M397.037,246.183c-0.224,4.694-0.672,10.564-1.567,15.258c-0.224,1.171-0.476,2.273-0.758,3.259
						c-2.542,8.9-8.9,24.163-26.699,17.806c-7.861-2.806-11.505-11.562-13.129-20.468c-1.102-6.048-1.268-12.159-1.188-16.526
						c0.086-4.458,2.519-8.532,6.398-10.73c10.507-5.956,21.593-3.736,28.892-0.93C394.053,235.797,397.295,240.772,397.037,246.183
						z"/>
					<g>
						<g>
							<g>
								<g>
									<g>
										<path style="fill:#403657;" d="M375.682,254.714v0.953c0,1.919,0.748,3.72,2.11,5.072
											c1.341,1.334,3.114,2.065,4.999,2.065h0.232c1.635-0.035,3.121-0.693,4.424-1.957c1.306-1.275,2.055-3.097,2.055-5.006
											v-1.126c0-0.312-0.059-0.61-0.166-0.887c-0.125-0.336-0.319-0.634-0.568-0.883c-0.454-0.454-1.077-0.734-1.77-0.734h-8.81
											c-0.997,0-1.857,0.582-2.259,1.427c-0.149,0.308-0.236,0.651-0.243,1.011
											C375.682,254.669,375.682,254.694,375.682,254.714z M376.721,254.714c0-0.81,0.658-1.465,1.465-1.465h8.81
											c0.811,0,1.466,0.655,1.466,1.465v1.126c0,1.628-0.634,3.184-1.743,4.261c-1.105,1.074-2.356,1.632-3.717,1.663h-0.212
											c-1.607,0-3.121-0.624-4.268-1.763c-1.16-1.154-1.801-2.692-1.801-4.334V254.714z"/>
									</g>
								</g>
							</g>
							<g>
								<g>
									<g>
										<path style="fill:#403657;" d="M358.042,254.714v0.953c0,1.919,0.752,3.72,2.11,5.072
											c1.341,1.334,3.114,2.065,4.999,2.065h0.235c1.632-0.035,3.121-0.693,4.421-1.957c1.306-1.275,2.058-3.097,2.058-5.006
											v-1.126c0-0.017,0-0.031-0.004-0.048c-0.004-0.339-0.08-0.665-0.211-0.96c-0.388-0.883-1.268-1.496-2.29-1.496h-8.813
											c-0.772,0-1.465,0.353-1.926,0.904c-0.222,0.27-0.391,0.586-0.482,0.928C358.073,254.257,358.042,254.482,358.042,254.714
											z M359.082,254.714c0-0.81,0.658-1.465,1.465-1.465h8.813c0.807,0,1.465,0.655,1.465,1.465v1.126
											c0,1.628-0.637,3.184-1.742,4.261c-1.105,1.074-2.356,1.632-3.717,1.663h-0.215c-1.608,0-3.121-0.624-4.265-1.763
											c-1.164-1.154-1.805-2.692-1.805-4.334V254.714z"/>
									</g>
								</g>
							</g>
							<g>
								<g>
									<path style="fill:#403657;" d="M395.78,251.79c-2.992-0.129-5.129,0.734-5.974,1.155c-0.236,0.114-0.866,0.524-0.893,0.541
										l0.495,0.882c0.007-0.004,0.696-0.415,0.966-0.54c0.829-0.387,2.669-1.163,5.406-1.002V251.79z"/>
								</g>
							</g>
							<g>
								<g>
									<path style="fill:#403657;" d="M376.38,254.753l0.341-0.982c-0.061-0.021-1.52-0.523-3.123-0.523
										c-1.706,0-2.804,0.524-2.851,0.546l0.454,0.935c0.008-0.004,0.945-0.442,2.397-0.442
										C375.02,254.288,376.367,254.749,376.38,254.753z"/>
								</g>
							</g>
							<g>
								<g>
									<path style="fill:#403657;" d="M354.403,252.04v1.042c2.152,0.178,4.14,1.139,4.169,1.151l0.457-0.932
										C358.912,253.242,356.778,252.213,354.403,252.04z"/>
								</g>
							</g>
						</g>
					</g>
					<path style="fill:#403657;" d="M366.198,256.046c0,1.289-0.664,2.335-1.484,2.335c-0.82,0-1.484-1.045-1.484-2.335
						c0-1.289,0.665-2.335,1.484-2.335C365.533,253.711,366.198,254.756,366.198,256.046z"/>
					<path style="fill:#403657;" d="M383.578,256.046c0,1.289-0.665,2.335-1.484,2.335c-0.82,0-1.484-1.045-1.484-2.335
						c0-1.289,0.665-2.335,1.484-2.335C382.914,253.711,383.578,254.756,383.578,256.046z"/>
					<path style="fill:#403657;" d="M359.886,248.876c0,0,6.178-2.442,10.935-0.386l-0.397,2.208c0,0-5.152-1.15-10.197,0.731
						C359.912,250.411,359.484,249.923,359.886,248.876z"/>
					<path style="fill:#403657;" d="M388.158,248.876c0,0-6.178-2.442-10.936-0.386l0.397,2.208c0,0,5.152-1.15,10.197,0.731
						C388.131,250.411,388.56,249.923,388.158,248.876z"/>
					<g>
						<g>
							<path style="fill:#F97853;" d="M374.315,265.83c0.968,0,1.928-0.377,2.077-0.437c0.293-0.12,0.433-0.454,0.314-0.748
								c-0.119-0.293-0.455-0.434-0.748-0.315c-0.518,0.21-1.762,0.54-2.302,0.217c-0.104-0.063-0.246-0.186-0.282-0.534
								c-0.207-2.004,0.341-8.72,0.347-8.788c0.026-0.316-0.209-0.593-0.524-0.619c-0.317-0.027-0.593,0.209-0.619,0.525
								c-0.023,0.281-0.563,6.891-0.345,9c0.082,0.794,0.499,1.2,0.834,1.401C373.435,265.752,373.876,265.83,374.315,265.83z"/>
						</g>
					</g>
					<path style="fill:#FFFFFF;" d="M367.202,268.743c0.469,2.359,2.027,6.7,7.279,6.7c5.264,0,6.74-3.967,7.247-6.7H367.202z"/>
					<g>
						<path style="fill:#F97853;" d="M374.41,278.439c1.485,0,2.744-0.752,2.797-0.784c0.271-0.164,0.358-0.517,0.193-0.788
							c-0.164-0.272-0.517-0.358-0.788-0.194c-0.009,0.006-1.046,0.618-2.203,0.618c-1.062,0-2.078-0.609-2.088-0.616
							c-0.269-0.166-0.623-0.083-0.789,0.187c-0.167,0.269-0.083,0.623,0.187,0.789C371.77,277.684,373.008,278.439,374.41,278.439z
							"/>
					</g>
					<path style="fill:#403657;" d="M356.66,258.297c-0.433-2.366-0.862-5.421-0.55-6.986c0.559-2.771,2.853-4.4,2.088-7.071
						c-0.765-2.682,2.059-5.553,4.141-6.029c2.076-0.482,6.935,0.553,11.718-1.718c4.565-2.17,12.5-0.618,13.794,2.312
						c1.565,3.547-0.565,3.882,3.706,7.718c1.7,1.529-0.318,5.5-0.606,8.082c-0.129,1.188-0.148,1.768-0.101,3.044l0.017,0.648
						h5.111c0.563-4.005,0.885-8.421,1.061-12.116c0.259-5.412-2.988-10.382-8.053-12.329c-7.3-2.806-18.382-5.029-28.894,0.929
						c-3.876,2.2-6.312,6.27-6.394,10.729c-0.065,3.463,0.027,8.026,0.619,12.786H356.66z"/>
					<g>
						<path style="fill:#FFA681;" d="M393.712,260.505c-0.016-1.337,0.079-2.674,0.312-3.99c0.319-1.8,0.841-3.434,2.684-4.184
							c1.482-0.604,3.065-0.616,4.191,1.055c2.773,4.112-0.316,16.909-7.106,13.944L393.712,260.505z"/>
						<g>
							<g>
								<path style="fill:#F97853;" d="M395.106,263.604c0.246-0.049,0.439-0.257,0.46-0.519c0.298-3.883,3.81-6.134,3.845-6.157
									c0.268-0.169,0.349-0.523,0.181-0.791c-0.168-0.268-0.522-0.35-0.79-0.182c-0.165,0.103-4.038,2.57-4.381,7.042
									c-0.024,0.316,0.212,0.592,0.529,0.616C395.003,263.617,395.056,263.613,395.106,263.604z"/>
							</g>
						</g>
						<g>
							<g>
								<path style="fill:#F97853;" d="M398.582,260.983c0.105-0.021,0.204-0.071,0.286-0.15c0.228-0.22,0.233-0.584,0.013-0.811
									c-0.037-0.038-0.916-0.932-2.452-1.281c-0.307-0.071-0.616,0.123-0.686,0.432c-0.071,0.309,0.123,0.616,0.432,0.687
									c1.188,0.27,1.875,0.954,1.882,0.96C398.198,260.966,398.397,261.02,398.582,260.983z"/>
							</g>
						</g>
					</g>
				</g>
			</g>
			<g>
				<path style="fill:#7846D1;" d="M404.51,297.509c-8.386,12.711-40.482,56.657-47.724,61.762
					c-9.427,6.646-35.126,16.096-49.881,25.948c-5.013,3.348,6.831,12.821,6.831,12.821s35.966-10.111,52.164-20.451
					c4.582-2.925,23.64-22.016,35.791-38.949c4.163-5.801,10.934-13.858,11.914-22.427
					C414.732,306.35,411.634,301.073,404.51,297.509z"/>
			</g>
		</g>
	</g>
	<g>
		<path style="fill:#1A0B42;" d="M340.897,411.93h-99.984c-1.278,0-2.314-1.036-2.314-2.314v-7.967c0-1.278,1.036-2.314,2.314-2.314
			h99.984c1.278,0,2.314,1.036,2.314,2.314v7.967C343.21,410.894,342.175,411.93,340.897,411.93z"/>
		<path style="fill:#403657;" d="M238.621,411.93l-19.663-73.639c-1.104-4.136,2.013-8.195,6.294-8.195h43.268
			c2.919,0,5.482,1.942,6.272,4.753l21.652,77.081H238.621z"/>
		<path style="fill:#1A0B42;" d="M274.794,334.85l21.472,76.446h4.944l-21.472-76.446c-0.795-2.812-3.354-4.756-6.274-4.756h-4.944
			C271.44,330.093,273.999,332.038,274.794,334.85z"/>
		<path style="fill:#614C6E;" d="M263.67,374.31c1.124,4.857-1.902,8.795-6.759,8.795c-4.857,0-9.706-3.937-10.83-8.795
			c-1.124-4.857,1.902-8.795,6.759-8.795C257.697,365.515,262.546,369.453,263.67,374.31z"/>
	</g>
</g>
<g>
	<g>
		<g>
			<g>
				<path style="fill:#7846D1;" d="M397.747,140.706c-3.641,0-6.603-2.962-6.603-6.603s2.962-6.603,6.603-6.603
					c3.641,0,6.603,2.962,6.603,6.603S401.388,140.706,397.747,140.706z M397.747,129.57c-2.499,0-4.532,2.033-4.532,4.532
					c0,2.499,2.033,4.532,4.532,4.532c2.499,0,4.532-2.033,4.532-4.532C402.278,131.603,400.245,129.57,397.747,129.57z"/>
			</g>
			<g>
				<path style="fill:#9C78ED;" d="M421.518,163.872c-3.641,0-6.603-2.962-6.603-6.603c0-3.641,2.962-6.603,6.603-6.603
					c3.641,0,6.603,2.962,6.603,6.603C428.121,160.91,425.159,163.872,421.518,163.872z M421.518,152.737
					c-2.499,0-4.532,2.033-4.532,4.532c0,2.499,2.033,4.532,4.532,4.532c2.499,0,4.532-2.033,4.532-4.532
					C426.05,154.77,424.017,152.737,421.518,152.737z"/>
			</g>
			<g>
				<g>
					<g>
						<path style="fill:#7846D1;" d="M429.677,185.33c-0.572,0-1.036-0.464-1.036-1.036v-4.568c0-0.572,0.464-1.036,1.036-1.036
							c0.572,0,1.036,0.464,1.036,1.036v4.568C430.712,184.866,430.249,185.33,429.677,185.33z"/>
					</g>
					<g>
						<path style="fill:#7846D1;" d="M429.677,193.323c-0.572,0-1.036-0.464-1.036-1.036v-4.568c0-0.572,0.464-1.036,1.036-1.036
							c0.572,0,1.036,0.464,1.036,1.036v4.568C430.712,192.86,430.249,193.323,429.677,193.323z"/>
					</g>
				</g>
				<g>
					<g>
						<path style="fill:#7846D1;" d="M436.088,187.043h-4.103c-0.572,0-1.036-0.464-1.036-1.036c0-0.572,0.464-1.036,1.036-1.036
							h4.103c0.572,0,1.036,0.464,1.036,1.036C437.124,186.579,436.66,187.043,436.088,187.043z"/>
					</g>
					<g>
						<path style="fill:#7846D1;" d="M427.368,187.043h-4.103c-0.572,0-1.036-0.464-1.036-1.036c0-0.572,0.464-1.036,1.036-1.036
							h4.103c0.572,0,1.036,0.464,1.036,1.036C428.404,186.579,427.94,187.043,427.368,187.043z"/>
					</g>
				</g>
			</g>
			<g>
				<g>
					<g>
						<g>
							<path style="fill:#5B23A9;" d="M393.215,159.734c-0.572,0-1.036-0.464-1.036-1.036v-4.568c0-0.572,0.464-1.036,1.036-1.036
								c0.572,0,1.036,0.464,1.036,1.036v4.568C394.251,159.27,393.787,159.734,393.215,159.734z"/>
						</g>
						<g>
							<path style="fill:#5B23A9;" d="M393.215,167.728c-0.572,0-1.036-0.464-1.036-1.036v-4.568c0-0.572,0.464-1.036,1.036-1.036
								c0.572,0,1.036,0.464,1.036,1.036v4.568C394.251,167.264,393.787,167.728,393.215,167.728z"/>
						</g>
					</g>
					<g>
						<g>
							<path style="fill:#5B23A9;" d="M399.627,161.447h-4.103c-0.572,0-1.036-0.464-1.036-1.036c0-0.572,0.464-1.036,1.036-1.036
								h4.103c0.572,0,1.036,0.464,1.036,1.036C400.662,160.983,400.199,161.447,399.627,161.447z"/>
						</g>
						<g>
							<path style="fill:#5B23A9;" d="M390.907,161.447h-4.103c-0.572,0-1.036-0.464-1.036-1.036c0-0.572,0.464-1.036,1.036-1.036
								h4.103c0.572,0,1.036,0.464,1.036,1.036C391.942,160.983,391.479,161.447,390.907,161.447z"/>
						</g>
					</g>
				</g>
			</g>
		</g>
	</g>
	<g>
		<g>
			<g>
				<path style="fill:#7846D1;" d="M91.296,110.388c0-3.641,2.962-6.603,6.603-6.603c3.641,0,6.603,2.962,6.603,6.603
					s-2.962,6.603-6.603,6.603C94.258,116.992,91.296,114.029,91.296,110.388z M93.368,110.388c0,2.499,2.033,4.532,4.532,4.532
					c2.499,0,4.532-2.033,4.532-4.532c0-2.499-2.033-4.532-4.532-4.532C95.401,105.856,93.368,107.889,93.368,110.388z"/>
			</g>
			<g>
				<path style="fill:#9C78ED;" d="M64.778,135.558c0-3.641,2.962-6.604,6.603-6.604c3.641,0,6.603,2.962,6.603,6.604
					s-2.962,6.603-6.603,6.603C67.74,142.161,64.778,139.199,64.778,135.558z M66.849,135.558c0,2.499,2.033,4.532,4.532,4.532
					c2.499,0,4.532-2.033,4.532-4.532c0-2.499-2.033-4.532-4.532-4.532C68.882,131.026,66.849,133.059,66.849,135.558z"/>
			</g>
			<g>
				<g>
					<g>
						<path style="fill:#7846D1;" d="M51.049,144.824c0.572,0,1.036-0.464,1.036-1.036v-4.568c0-0.572-0.464-1.036-1.036-1.036
							c-0.572,0-1.036,0.464-1.036,1.036v4.568C50.013,144.36,50.477,144.824,51.049,144.824z"/>
					</g>
					<g>
						<path style="fill:#7846D1;" d="M51.049,152.818c0.572,0,1.036-0.464,1.036-1.036v-4.568c0-0.572-0.464-1.036-1.036-1.036
							c-0.572,0-1.036,0.464-1.036,1.036v4.568C50.013,152.354,50.477,152.818,51.049,152.818z"/>
					</g>
				</g>
				<g>
					<g>
						<path style="fill:#7846D1;" d="M44.638,146.537h4.103c0.572,0,1.036-0.464,1.036-1.036c0-0.572-0.464-1.036-1.036-1.036
							h-4.103c-0.572,0-1.036,0.464-1.036,1.036C43.602,146.073,44.066,146.537,44.638,146.537z"/>
					</g>
					<g>
						<path style="fill:#7846D1;" d="M53.358,146.537h4.103c0.572,0,1.036-0.464,1.036-1.036c0-0.572-0.464-1.036-1.036-1.036
							h-4.103c-0.572,0-1.036,0.464-1.036,1.036C52.322,146.073,52.786,146.537,53.358,146.537z"/>
					</g>
				</g>
			</g>
			<g>
				<g>
					<g>
						<g>
							<path style="fill:#5B23A9;" d="M74.916,109.711c0.572,0,1.036-0.464,1.036-1.036v-4.568c0-0.572-0.464-1.036-1.036-1.036
								c-0.572,0-1.036,0.464-1.036,1.036v4.568C73.881,109.247,74.345,109.711,74.916,109.711z"/>
						</g>
						<g>
							<path style="fill:#5B23A9;" d="M74.916,117.705c0.572,0,1.036-0.464,1.036-1.036v-4.568c0-0.572-0.464-1.036-1.036-1.036
								c-0.572,0-1.036,0.464-1.036,1.036v4.568C73.881,117.241,74.345,117.705,74.916,117.705z"/>
						</g>
					</g>
					<g>
						<g>
							<path style="fill:#5B23A9;" d="M68.505,111.424h4.103c0.572,0,1.036-0.464,1.036-1.036s-0.464-1.036-1.036-1.036h-4.103
								c-0.572,0-1.036,0.464-1.036,1.036S67.933,111.424,68.505,111.424z"/>
						</g>
						<g>
							<path style="fill:#5B23A9;" d="M77.225,111.424h4.103c0.572,0,1.036-0.464,1.036-1.036s-0.464-1.036-1.036-1.036h-4.103
								c-0.572,0-1.036,0.464-1.036,1.036S76.653,111.424,77.225,111.424z"/>
						</g>
					</g>
				</g>
			</g>
		</g>
	</g>
	<g>
		<path style="fill:#9C78ED;" d="M346.03,117.399v20.107c0,2.658-2.156,4.814-4.814,4.814h-36.509l-11.022,3.954
			c-1.132,0.407-2.215-0.706-1.781-1.826l4.169-10.767v-16.283c0-2.658,2.156-4.814,4.816-4.814h40.326
			C343.873,112.584,346.03,114.741,346.03,117.399z"/>
		<g style="opacity:0.5;">
			<path style="fill:#E0D5F8;" d="M338.333,123.087H304.84c-0.734,0-1.329-0.595-1.329-1.329l0,0c0-0.734,0.595-1.328,1.329-1.328
				h33.493c0.734,0,1.329,0.595,1.329,1.328l0,0C339.662,122.493,339.067,123.087,338.333,123.087z"/>
			<path style="fill:#E0D5F8;" d="M338.333,128.438H304.84c-0.734,0-1.329-0.595-1.329-1.329l0,0c0-0.734,0.595-1.328,1.329-1.328
				h33.493c0.734,0,1.329,0.595,1.329,1.328l0,0C339.662,127.843,339.067,128.438,338.333,128.438z"/>
			<path style="fill:#E0D5F8;" d="M338.333,133.788H304.84c-0.734,0-1.329-0.595-1.329-1.328l0,0c0-0.734,0.595-1.329,1.329-1.329
				h33.493c0.734,0,1.329,0.595,1.329,1.329l0,0C339.662,133.193,339.067,133.788,338.333,133.788z"/>
		</g>
	</g>
</g>
<g>
	<path style="fill:#5B23A9;" d="M453.721,419.45v0.719c0,4.145-3.361,7.506-7.509,7.506H56.778c-4.147,0-7.506-3.361-7.506-7.506
		v-0.719c0-4.145,3.359-7.506,7.506-7.506h389.434C450.36,411.944,453.721,415.305,453.721,419.45z"/>
	<path style="fill:#7846D1;" d="M453.721,419.45v0.359H49.272v-0.359c0-4.145,3.359-7.506,7.506-7.506h389.434
		C450.36,411.944,453.721,415.305,453.721,419.45z"/>
</g>
</svg>
