<?xml version="1.0" encoding="UTF-8"?><svg xmlns="http://www.w3.org/2000/svg" viewBox="0 0 454.3 423.29"><defs><style>.cls-1{fill:#fff;}.cls-2{fill:#fafafa;}.cls-3{fill:#f5f5f5;}.cls-4{fill:#455a64;}.cls-5{fill:#ae7461;}.cls-6{fill:#ffbf9d;}.cls-7{fill:#e0e0e0;}.cls-8{fill:#ff9a6c;}.cls-9{fill:#ff725e;}.cls-10{fill:#6f4439;}.cls-11{fill:#ebebeb;}.cls-12{fill:#263238;}</style></defs><g id="Background_Complete"><path class="cls-9" d="m188.48,5.29l15.7,88.6c.47,2.67-1.41,5.19-4.11,5.5l-66.97,8.47-15.36-90.18L182.1,1.18c2.92-.75,5.85,1.14,6.38,4.11Z"/><path class="cls-7" d="m200.4,99.5c-.11.02-.21.03-.32.05l-67.12,8.49-.03-.15-15.38-90.33L182.06,1.02c1.46-.37,2.95-.13,4.21.68,1.26.81,2.1,2.07,2.36,3.55l15.7,88.6c.24,1.34-.08,2.67-.89,3.76-.75,1-1.82,1.66-3.04,1.87Z"/><polygon class="cls-11" points="179.79 1.32 186.29 2.39 202.4 93.31 202.73 95.19 196.12 96.35 179.79 1.32"/><path class="cls-1" d="m117.44,17.53S139.46,4.22,179.67.98l16.43,95.5-63.64,9.86-15.03-88.82Z"/><path class="cls-7" d="m117.44,17.53s.03.14.08.42c.05.28.12.69.22,1.24.19,1.09.47,2.71.83,4.82.72,4.22,1.77,10.39,3.1,18.2,2.65,15.62,6.42,37.82,10.88,64.12l-.09-.06c19.2-2.98,40.81-6.33,63.64-9.86l-.07.1c-.19-1.13-.4-2.35-.61-3.57-5.93-34.52-11.41-66.41-15.8-91.93l.07.06c-9.83.79-18.72,2.2-26.46,3.89-7.74,1.69-14.34,3.66-19.65,5.54-5.32,1.87-9.36,3.65-12.06,4.94-.67.33-1.26.62-1.78.88-.5.26-.93.49-1.27.67-.66.36-.96.53-1.02.56,0,0,.08-.05.25-.15.17-.1.43-.24.76-.43.34-.18.76-.41,1.27-.67.51-.26,1.1-.55,1.77-.89,2.7-1.31,6.74-3.09,12.05-4.98,5.32-1.89,11.91-3.87,19.66-5.57,7.74-1.7,16.64-3.12,26.47-3.92h.06s.01.06.01.06c4.39,25.52,9.89,57.41,15.83,91.93.21,1.22.42,2.45.61,3.57v.08s-.07.01-.07.01c-22.83,3.53-44.44,6.88-63.64,9.85h-.07s-.01-.06-.01-.06c-4.44-26.32-8.19-48.53-10.82-64.17-1.31-7.81-2.35-13.98-3.06-18.19-.35-2.1-.62-3.72-.8-4.81-.09-.54-.16-.96-.2-1.24-.05-.28-.07-.42-.07-.42Z"/><path class="cls-7" d="m120.17,16.78c1.43,6.76,5.92,31.4,5.92,31.4l2.61-5.85,4.39,3.77-6.75-34.2-4.95,2.41c-.93.45-1.43,1.47-1.22,2.48Z"/><path class="cls-7" d="m198.06,96.02s-.02-.08-.05-.24c-.03-.17-.08-.4-.13-.71-.11-.63-.28-1.56-.5-2.74-.42-2.39-1.03-5.84-1.78-10.1-1.49-8.53-3.47-20.34-5.64-33.37-2.18-13.04-4.16-24.84-5.59-33.39-.73-4.27-1.32-7.72-1.73-10.11-.2-1.19-.36-2.12-.47-2.75-.05-.31-.09-.55-.12-.72-.03-.16-.03-.24-.03-.24,0,0,.02.08.05.24.03.17.08.4.13.71.11.63.28,1.56.5,2.74.42,2.39,1.03,5.84,1.78,10.1,1.49,8.53,3.47,20.34,5.64,33.38,2.18,13.03,4.16,24.83,5.59,33.38.73,4.27,1.32,7.72,1.73,10.11.2,1.19.36,2.12.47,2.75.05.31.09.55.12.72.03.16.03.24.03.24Z"/><path class="cls-7" d="m199.8,95.71s-3.73-20.97-8.23-46.86c-4.5-25.89-8.11-46.88-8.07-46.89s3.73,20.97,8.23,46.86c4.5,25.88,8.11,46.88,8.07,46.89Z"/><path class="cls-7" d="m44.41,28.3l16.25,91.72c.29,1.66,2.03,2.72,3.81,2.31l68.63-14.46c1.64-.38.05-3.22-.22-4.76L99.2,21.08c-.27-1.54-1.8-2.58-3.47-2.37l-48.54,6.11c-1.8.23-3.07,1.81-2.78,3.48Z"/><polygon class="cls-11" points="54.19 23.51 72.02 119.68 132.86 106.47 117.74 17.67 54.19 23.51"/><path class="cls-1" d="m59.44,20.97s35.84-13.42,58.22-2.6l15.12,88.8-56.06,11.36L59.44,20.97Z"/><path class="cls-7" d="m59.52,20.27c.12.7,7.2,40.48,17.36,97.54l-.09-.06c16.29-3.3,34.16-6.92,52.82-10.71,1.09-.22,2.18-.44,3.24-.66l-.07.1c-5.72-33.6-10.96-64.46-15.1-88.8l.04.05c-1.04-.45-2.05-.95-3.11-1.3-.26-.1-.52-.19-.78-.29-.26-.1-.52-.19-.78-.27-.53-.16-1.05-.32-1.57-.47-2.09-.57-4.16-1.01-6.2-1.28-2.03-.31-4.03-.44-5.97-.55-.97-.03-1.93-.06-2.87-.06-.47,0-.94,0-1.4.01-.46,0-.92.01-1.38.03-3.64.12-7.03.46-10.14.9-3.11.43-5.93.96-8.46,1.5-5.06,1.08-8.94,2.2-11.56,3.01-1.31.41-2.3.73-2.97.96-.65.22-.95.33-1.01.35,0,0,.34-.13,1-.37.66-.23,1.66-.57,2.97-.98,2.62-.82,6.5-1.95,11.55-3.04,2.53-.54,5.35-1.08,8.46-1.52,3.11-.44,6.5-.79,10.15-.91.46-.02.92-.03,1.38-.03.46,0,.93,0,1.4-.01.94,0,1.9.03,2.87.06,1.94.11,3.95.24,5.99.55,2.05.27,4.12.71,6.22,1.28.52.16,1.04.31,1.57.47.27.07.52.17.78.27.26.1.52.19.78.29,1.06.35,2.07.85,3.12,1.3h.03s0,.05,0,.05c4.15,24.34,9.41,55.2,15.14,88.8v.08s-.07.02-.07.02c-1.06.21-2.15.44-3.24.66-18.66,3.78-36.53,7.4-52.82,10.7l-.08.02v-.08c-10.08-57.08-17.1-96.87-17.22-97.57Z"/><polygon class="cls-11" points="46.97 27.74 54.19 23.51 72.02 119.68 63.18 119.27 46.97 27.74"/><path class="cls-7" d="m65,116.99s-3.66-20.18-8.07-45.08c-4.41-24.91-7.95-45.11-7.91-45.12.05,0,3.66,20.17,8.07,45.09,4.41,24.9,7.95,45.11,7.91,45.11Z"/><polygon class="cls-3" points="53.55 40.17 49.45 56.75 58.18 66.29 53.55 40.17"/><path class="cls-7" d="m67,116.09s-3.49-19.24-7.7-42.98c-4.21-23.75-7.58-43.01-7.54-43.02.05,0,3.49,19.23,7.7,42.99,4.21,23.74,7.58,43,7.53,43.01Z"/><path class="cls-7" d="m69.63,119.1s-3.68-20.32-8.13-45.39c-4.44-25.08-8.01-45.42-7.96-45.43.05,0,3.68,20.31,8.13,45.4,4.44,25.08,8.01,45.41,7.96,45.42Z"/><path class="cls-7" d="m109.96,28.56s-.54-.02-1.5-.15c-.96-.14-2.35-.3-4.08-.47-3.45-.33-8.24-.51-13.5-.08-5.27.44-9.97,1.4-13.31,2.29-1.67.44-3.02.83-3.95,1.13-.93.29-1.45.43-1.46.4-.01-.03.48-.24,1.39-.59.91-.35,2.24-.8,3.91-1.29,3.34-.98,8.06-2.01,13.37-2.46,5.3-.43,10.13-.19,13.59.24,1.73.21,3.12.43,4.07.63.95.19,1.48.32,1.47.35Z"/><path class="cls-7" d="m111.21,36.22s-.54-.02-1.5-.15c-.96-.14-2.35-.3-4.08-.47-3.45-.33-8.24-.51-13.5-.08-5.27.44-9.97,1.4-13.31,2.29-1.67.44-3.02.83-3.95,1.13-.93.29-1.45.43-1.46.39-.01-.03.48-.24,1.39-.59.91-.35,2.24-.8,3.91-1.29,3.34-.98,8.06-2.01,13.37-2.46,5.3-.43,10.13-.19,13.59.24,1.73.21,3.12.43,4.07.63.95.19,1.48.32,1.47.35Z"/><path class="cls-7" d="m112.46,43.88s-.54-.02-1.5-.15c-.96-.14-2.35-.3-4.08-.47-3.45-.33-8.24-.51-13.5-.08-5.27.44-9.97,1.4-13.31,2.29-1.67.44-3.02.83-3.95,1.13-.93.29-1.45.43-1.46.39-.01-.03.48-.24,1.39-.59.91-.35,2.24-.8,3.91-1.29,3.34-.98,8.06-2.01,13.37-2.46,5.3-.43,10.13-.19,13.59.24,1.73.21,3.12.43,4.07.63.95.19,1.48.32,1.47.35Z"/><path class="cls-7" d="m113.7,51.54s-.54-.02-1.5-.15c-.96-.14-2.35-.3-4.08-.47-3.45-.33-8.24-.51-13.5-.08-5.27.44-9.97,1.4-13.31,2.29-1.67.44-3.02.83-3.95,1.13-.93.29-1.45.43-1.46.39-.01-.03.48-.24,1.39-.59.91-.35,2.24-.8,3.91-1.29,3.34-.98,8.06-2.01,13.37-2.46,5.3-.43,10.13-.19,13.59.24,1.73.21,3.12.43,4.07.63.95.19,1.48.32,1.47.35Z"/><path class="cls-7" d="m115.62,59.33s-.54-.02-1.5-.15c-.96-.14-2.35-.3-4.08-.47-3.45-.33-8.24-.51-13.5-.08-5.27.44-9.97,1.4-13.31,2.29-1.67.44-3.02.83-3.95,1.13-.93.29-1.45.43-1.46.39-.01-.03.48-.24,1.39-.59.91-.35,2.24-.8,3.91-1.29,3.34-.98,8.06-2.01,13.37-2.46,5.3-.43,10.13-.19,13.59.24,1.73.21,3.12.43,4.07.63.95.19,1.48.32,1.47.35Z"/><path class="cls-7" d="m118.93,69.14s-.57-.02-1.58-.16c-.5-.08-1.12-.15-1.84-.22-.72-.08-1.54-.18-2.44-.24-1.81-.17-3.98-.25-6.38-.29-2.4,0-5.05.08-7.81.29-2.76.24-5.38.59-7.76.99-2.36.43-4.49.87-6.25,1.33-.89.21-1.68.44-2.37.64-.7.19-1.3.36-1.78.52-.97.3-1.52.45-1.53.42-.01-.03.51-.25,1.47-.61.48-.19,1.07-.39,1.76-.61.69-.22,1.48-.48,2.36-.71,1.75-.52,3.88-.99,6.26-1.45,2.38-.42,5.02-.8,7.8-1.03,2.78-.22,5.44-.29,7.86-.26,2.42.07,4.59.19,6.41.41.91.08,1.73.21,2.45.32.72.1,1.34.21,1.84.31,1,.2,1.55.32,1.55.36Z"/><path class="cls-7" d="m120.69,78.38s-.57.01-1.59-.07c-1.02-.09-2.5-.16-4.33-.22-3.66-.1-8.72.05-14.26.76-5.54.7-10.51,1.7-14.1,2.42-1.73.35-3.16.63-4.26.85-1.01.19-1.57.29-1.58.25,0-.03.54-.19,1.53-.45.99-.25,2.44-.61,4.23-1.02,3.58-.82,8.55-1.88,14.12-2.58,5.57-.72,10.67-.81,14.34-.62,1.84.11,3.32.24,4.34.39,1.02.14,1.58.23,1.57.27Z"/><path class="cls-7" d="m121.13,88.27s-.56.05-1.57.05c-1.01,0-2.47,0-4.28.09-3.61.13-8.59.57-14.03,1.45-5.45.88-10.31,2.04-13.81,2.96-1.75.46-3.16.86-4.13,1.14-.97.28-1.52.41-1.53.38-.01-.03.51-.24,1.47-.57.95-.34,2.35-.79,4.09-1.3,3.48-1.02,8.35-2.23,13.82-3.12,5.47-.89,10.48-1.27,14.11-1.31,1.81-.03,3.28.02,4.3.08,1.01.06,1.57.12,1.57.15Z"/><path class="cls-7" d="m169.82,14.93s-.63.14-1.77.29c-1.14.15-2.8.38-4.84.7-4.08.63-9.68,1.67-15.78,3.24-6.09,1.58-11.5,3.4-15.37,4.83-1.93.72-3.49,1.32-4.57,1.74-1.07.42-1.68.64-1.69.61,0-.02.13-.09.41-.23.33-.15.73-.34,1.21-.56,1.05-.49,2.59-1.14,4.51-1.9,3.84-1.53,9.25-3.4,15.37-4.99,6.11-1.58,11.75-2.57,15.86-3.1,2.05-.27,3.71-.45,4.87-.53.53-.04.96-.07,1.33-.09.3-.02.46-.02.47,0Z"/><path class="cls-7" d="m175.55,31.04s-.16.06-.47.13c-.37.07-.82.16-1.37.27-1.27.24-2.97.55-5.03.94-4.24.81-10.08,2.02-16.48,3.61-6.39,1.6-12.12,3.27-16.25,4.54-2,.63-3.65,1.14-4.88,1.53-.53.16-.97.3-1.33.41-.31.09-.47.13-.48.11,0-.02.15-.09.44-.21.35-.14.78-.3,1.3-.5,1.13-.43,2.78-1,4.83-1.69,4.1-1.37,9.83-3.1,16.23-4.7,6.41-1.59,12.27-2.75,16.54-3.47,2.13-.36,3.86-.62,5.06-.78.55-.07,1.01-.12,1.38-.17.32-.03.48-.04.49-.02Z"/><path class="cls-7" d="m176.51,39.97s-.16.06-.48.13c-.38.08-.83.17-1.39.28-1.29.25-3.01.58-5.11.98-4.32.83-10.27,2.01-16.82,3.46-6.55,1.45-12.45,2.89-16.71,3.96-2.07.52-3.78.95-5.05,1.27-.55.13-1,.24-1.38.33-.32.07-.48.1-.49.08,0-.02.15-.08.46-.18.37-.11.81-.25,1.35-.42,1.18-.36,2.89-.85,5.01-1.43,4.24-1.16,10.13-2.66,16.69-4.12,6.55-1.45,12.53-2.58,16.86-3.32,2.17-.37,3.93-.65,5.14-.82.56-.07,1.02-.14,1.4-.19.32-.04.49-.05.5-.03Z"/><path class="cls-7" d="m178.66,49.92c.03.14-10.63,2.35-23.81,4.92-13.18,2.58-23.89,4.55-23.91,4.41-.03-.14,10.63-2.35,23.81-4.92,13.18-2.58,23.88-4.55,23.91-4.41Z"/><path class="cls-7" d="m181.74,59.69c.03.14-10.62,2.25-23.79,4.71-13.17,2.46-23.86,4.34-23.89,4.2-.03-.14,10.62-2.25,23.79-4.72,13.16-2.46,23.86-4.34,23.88-4.2Z"/><path class="cls-7" d="m183.68,70.32c.02.14-10.68,1.91-23.91,3.94-13.23,2.04-23.97,3.57-23.99,3.43-.02-.14,10.68-1.91,23.91-3.94,13.23-2.03,23.97-3.57,23.99-3.43Z"/><path class="cls-7" d="m182.97,80.78c.02.14-9.42,1.78-21.1,3.66-11.68,1.88-21.16,3.29-21.18,3.15-.02-.14,9.42-1.78,21.1-3.66,11.67-1.88,21.16-3.29,21.18-3.15Z"/><path class="cls-7" d="m173.98,23.1s-.16.06-.46.11c-.37.06-.81.14-1.33.23-1.24.21-2.9.48-4.91.82-4.14.72-9.83,1.85-16.03,3.44-6.2,1.6-11.74,3.35-15.71,4.71-1.92.67-3.51,1.23-4.69,1.64-.51.18-.93.32-1.28.44-.29.1-.45.14-.46.12s.14-.09.42-.22c.34-.15.75-.32,1.24-.53,1.08-.46,2.67-1.08,4.64-1.8,3.95-1.45,9.48-3.27,15.7-4.87,6.22-1.59,11.94-2.67,16.1-3.3,2.08-.32,3.77-.54,4.94-.66.53-.05.98-.1,1.35-.13.31-.02.47-.03.47-.01Z"/><rect class="cls-7" x="340.08" width="105.32" height="174.33"/><rect class="cls-11" x="336.57" width="105.32" height="174.33"/><rect class="cls-1" x="341.06" y="3.54" width="96.35" height="167.26"/><rect class="cls-11" x="359.4" y="25.27" width="59.25" height="123.79"/><path class="cls-7" d="m359.4,105.26c-.14-11.56,10.26-22.85,21.71-24.47,5.46-.77,11.26.31,16.36-1.78,9.11-3.73,12.01-15.83,21.17-19.42l.42,89.48h-59.67v-43.81Z"/><path class="cls-7" d="m41.17,290.48c-5.47-3.44-11.75-5.6-18.18-6.26-2.97-.3-6.22-.22-8.6,1.58-.51.38-1,.95-.89,1.57.08.46.47.79.84,1.07,7.4,5.64,18.58,6.35,26.82,2.03"/><path class="cls-7" d="m40.71,289.96c-4.11-3.21-8.25-6.44-11.74-10.33-3.49-3.88-6.32-8.5-7.36-13.61-.32-1.55-.41-3.32.58-4.55,9.36,7.31,16.71,16.76,18.52,28.5"/><path class="cls-7" d="m41.07,290.41c-.7-5.12-.96-10.38.22-15.41,1.18-5.03,3.91-9.85,8.21-12.72,1.62,3.78.92,8.13-.22,12.08-1.76,6.1-4.52,11.92-8.14,17.14"/><path class="cls-7" d="m50.25,306.84c-5.57.68-10.42,3.61-14.58,7.38-4.16,3.77-7.11,8.84-8.34,14.31,5.46-.34,10.1-4.19,13.46-8.51,3.36-4.32,5.69-9.06,9.38-13.1"/><path class="cls-7" d="m52.24,309.47c-4.49-11.05-2.86-24.36,4.15-34.01,3.17,11.29,2.01,24.03-4.15,34.01"/><path class="cls-7" d="m64.36,323.91c-5.05-.31-10.19.89-14.58,3.42-4.39,2.53-8.01,6.36-10.28,10.89-.31.62-.58,1.4-.17,1.95.36.48,1.05.52,1.65.48,4.9-.32,9.24-3.26,12.82-6.62,3.58-3.36,6.7-7.23,10.66-10.14"/><path class="cls-7" d="m63.97,323.12c-2.61-8.34-2.77-17.43-.46-25.86.91-3.33,2.44-6.83,5.52-8.39.26-.13.57-.25.84-.15.26.1.41.37.53.62,1.1,2.29,1.41,4.89,1.3,7.42-.11,2.53-.64,5.03-1.16,7.51-.97,4.59-1.49,9.52-4,13.48-.6.94-1.12,1.95-1.6,2.96-.48,1.01-.48,1.36-.92,2.16"/><path class="cls-7" d="m96.06,327.9c-2.38-9.04.15-20,5.84-27.42.42-.55.98-1.13,1.66-1.07,1.05.1,1.32,1.5,1.27,2.55-.41,9.24-3.49,18.35-8.78,25.94"/><path class="cls-7" d="m98.95,329.88c10.99,2.86,23.59.08,32.72-6.66-5.41-2.74-11.8-3.53-17.72-2.17-5.92,1.35-11.33,4-15.01,8.83"/><path class="cls-7" d="m101.39,323.86c6.15-10.03,17.95-16.58,29.7-17.17-1.35,4.78-5.28,8.5-9.71,10.74-4.43,2.24-9.38,3.22-14.26,4.17-1.9.37-4.5.77-5.73,2.26"/><path class="cls-7" d="m96.67,294.64c1.67-5.71,3.34-11.47,3.8-17.39.46-5.93-.39-12.12-3.46-17.21-5.75,11.12-6.33,24.11-.51,35.2"/><path class="cls-7" d="m116.02,284.86c6.72-12.21,20.43-21.97,34.31-23.34-5.35,13.33-19.95,23.63-34.31,23.34"/><path class="cls-7" d="m111.79,287.26c10.02,1.53,18.56,7.93,27.93,11.81,2,.83,4.16,1.49,6.31,1.21,2.15-.28,4.27-1.72,4.75-3.84.4-1.76-.4-3.62-1.66-4.91-1.26-1.29-2.92-2.09-4.59-2.78-10.2-4.25-21.14-4.35-31.89-1.78"/><path class="cls-7" d="m105.99,294.29c2.27.65,3.04,1.82,4.84,3.35,6.1,5.19,13.41,8.95,21.18,10.88.81.2,1.87.28,2.27-.45.35-.64-.09-1.41-.55-1.98-3.26-4.07-7.9-6.86-12.79-8.68-4.89-1.82-9.12-4.01-14.96-3.54"/><path class="cls-7" d="m99.45,251.83c8.15,7.61,19.63,11.51,30.73,10.45.51-.05,1.06-.13,1.4-.5.77-.84-.15-2.14-1.06-2.84-9.03-7.04-19.98-9.96-31.07-7.11"/><path class="cls-7" d="m107.21,248.99c10.77-8.08,25.55-10.52,38.34-6.33-4.83,4.76-11.53,7.32-18.27,8.02-6.74.7-13.5-.05-20.07-1.69"/><path class="cls-7" d="m104.12,229.48c-.89-9.02-.31-16.14-.94-25.2-.05-.72-.21-1.59-.88-1.86-.94-.36-1.73.8-2.04,1.76-2.68,8.35-1.22,17.93,3.84,25.1"/><path class="cls-7" d="m103.47,230.47c6.11-3.78,10.7-8.72,14.94-14.52,2.95-4.04,5.44-8.87,4.77-13.83-4.14-.08-8.08,2.2-10.78,5.35-2.69,3.15-4.3,7.08-5.49,11.05-1.2,3.97-2.03,8.05-3.44,11.94"/><path class="cls-7" d="m118.15,226.4c13.41-4.96,25.93-12.34,36.76-21.68-4.39-1.77-9.42-.71-13.81,1.06-10.03,4.05-18.23,10.88-23.14,20.52"/><path class="cls-7" d="m107.6,235.41c6.79.74,13.68,1.22,20.41.1,6.62-1.11,12.87-3.73,19.06-6.33.51-.22,1.07-.47,1.29-.98.24-.55-.02-1.23-.46-1.63-.45-.41-1.04-.6-1.63-.76-6.72-1.88-13.98-1-20.59,1.23-6.62,2.23-12.04,4.88-18.08,8.38"/><path class="cls-7" d="m68.85,252.14c-4.63-9.35-4.33-20.25-.33-29.88,2.82,4.29,3.16,9.75,2.64,14.86-.51,5.11-2.07,10.36-2.17,15.49"/><path class="cls-7" d="m50.35,242.81c-11.56-.22-23.12,4.7-30.97,13.19,5.77.91,11.71-.58,16.96-3.14,5.25-2.56,9.91-6.16,14.53-9.73"/><path class="cls-7" d="m37.92,238.65c-5.66-.46-11.1-1.16-16.53.51-5.44,1.67-10.39,5.45-12.6,10.69,5.29.6,10.65-.73,15.5-2.93,4.85-2.2,9.26-5.24,13.63-8.27"/><path class="cls-7" d="m56.33,238.84c-5.09-3.33-10.31-6.73-16.23-8.11-5.92-1.38-12.79-.36-16.92,4.1,4.79,2.81,10.61,3.15,16.17,3.14,5.56,0,12.38-.07,17.62,1.79"/><path class="cls-7" d="m56.36,239.11c-8.7-8.54-11.99-23.88-8.5-35.56,6.84,10.39,9.9,23.2,8.5,35.56"/><path class="cls-7" d="m80.28,214.91c1.64-3.81,2.79-7.82,4.27-11.7,1.47-3.88,3.3-7.7,6.08-10.78,2.78-3.08,6.63-5.38,10.77-5.58-2.6,11.75-10.4,22.25-20.91,28.12"/><path class="cls-7" d="m75.95,219.95c-2.71-3.74-5.85-8.81-9.53-11.6-3.68-2.79-8.47-4.48-12.97-3.41,4.57,8.17,13.2,13.92,22.5,15"/><path class="cls-7" d="m76.81,215.22c-1.78-4.52-3.57-9.09-4.29-13.89-.72-4.8-.28-9.94,2.18-14.13,4.77,9.02,6.31,18.71,2.36,28.13"/><path class="cls-7" d="m80.32,187.2c2.7-8.95,10.9-15.53,19.74-18.56,1.11-.38,2.3-.7,3.46-.52,1.16.18,2.31.98,2.55,2.13.32,1.52-.93,2.89-2.12,3.9-6.89,5.89-14.98,10.36-23.63,13.05"/><path class="cls-7" d="m80.42,179.88c.34-5.77.7-11.62,2.58-17.09,1.88-5.47,5.49-10.59,10.75-12.98.89,5.83-1.68,11.62-4.78,16.64-3.1,5.01-6.84,9.74-8.7,15.34"/><path class="cls-7" d="m80.28,183.85c-2.23-6.52-2.47-14.8-6.37-20.48-2.73-3.97-7.1-6.68-9.45-10.88-1.56,3.93-1.08,8.45.55,12.35,1.63,3.9,4.33,7.25,7.22,10.34,2.89,3.09,5.36,5.41,8.05,8.67"/><path class="cls-7" d="m80.32,375.86c-.17,0-.32-43.49-.34-97.13-.01-53.66.12-97.14.29-97.14s.32,43.48.34,97.14c.01,53.64-.12,97.13-.29,97.13Z"/><path class="cls-7" d="m118.33,245.57s-.57.26-1.64.61c-1.17.4-2.69.91-4.5,1.52-3.79,1.29-9.01,3.16-14.67,5.48-5.6,2.4-10.89,4.35-13.89,6.96-1.5,1.29-2.37,2.68-2.79,3.69-.43,1.02-.51,1.65-.57,1.63-.02,0-.01-.16.02-.46.05-.29.13-.73.32-1.27.37-1.07,1.21-2.56,2.72-3.94,1.51-1.38,3.62-2.62,6.03-3.74,2.41-1.13,5.08-2.3,7.92-3.47,5.67-2.33,10.93-4.14,14.77-5.32,1.92-.6,3.48-1.04,4.57-1.33,1.09-.28,1.69-.42,1.71-.38Z"/><path class="cls-7" d="m130.79,214.97s-.14.18-.46.49c-.37.35-.83.78-1.4,1.31-1.3,1.18-3.06,2.78-5.21,4.73-4.5,4.01-10.6,9.44-17.34,15.44-6.77,6.03-12.62,11.78-16.67,16.12-2.03,2.16-3.63,3.96-4.72,5.21-.51.58-.93,1.06-1.26,1.44-.29.33-.45.49-.47.48-.02-.01.11-.2.37-.56.26-.35.65-.87,1.17-1.52,1.04-1.3,2.59-3.15,4.58-5.35,3.98-4.42,9.8-10.25,16.58-16.29,6.79-6.01,12.97-11.41,17.47-15.31,2.2-1.89,4.01-3.44,5.34-4.58.6-.49,1.08-.9,1.47-1.22.34-.27.53-.41.54-.39Z"/><path class="cls-7" d="m99.07,243.07c-.18-.08,1.24-3.34,2.65-7.47,1.42-4.13,2.09-7.61,2.27-7.58.16.02-.24,3.6-1.68,7.79-.71,2.09-1.49,3.92-2.11,5.23-.62,1.3-1.06,2.08-1.14,2.05Z"/><path class="cls-7" d="m80.36,269.4s-.4-.41-1.04-1.21c-.71-.91-1.6-2.06-2.67-3.43-2.24-2.9-5.35-6.91-8.83-11.29-3.48-4.38-6.68-8.32-8.99-11.16-1.09-1.35-2.01-2.48-2.73-3.38-.64-.8-.98-1.26-.94-1.29.03-.03.43.38,1.13,1.13.7.75,1.68,1.87,2.89,3.25,2.41,2.77,5.66,6.67,9.15,11.06,3.48,4.39,6.53,8.44,8.69,11.41,1.08,1.49,1.94,2.7,2.51,3.55.58.85.88,1.33.85,1.36Z"/><path class="cls-7" d="m72.03,258.7c-.1.11-2.33-2.53-3.49-6.54-.86-2.82-.9-5.41-.79-6.59l.28.02c-.12.5-.22.77-.26.76-.05,0-.05-.29-.01-.81l.28.02c.1,1.17.28,3.67,1.11,6.41,1.12,3.88,3.06,6.61,2.89,6.72Z"/><path class="cls-7" d="m61.27,245.17c-.08.09-.8-.81-2.44-1.42-1.63-.63-4.08-.77-6.77-.54-2.69.2-5.1.68-6.82,1.1-1.72.43-2.77.76-2.8.67-.03-.07.97-.56,2.68-1.1,1.71-.54,4.15-1.1,6.89-1.3,2.72-.23,5.3-.03,6.98.75,1.71.76,2.33,1.81,2.27,1.83Z"/><path class="cls-7" d="m58.72,241.89c-.05.1-1.42-.57-3.73-1.36-2.31-.79-5.6-1.63-9.32-1.92-3.72-.28-7.1.05-9.5.48-2.41.43-3.86.88-3.9.78-.01-.04.34-.19.99-.42.65-.24,1.61-.52,2.82-.79,2.41-.55,5.85-.96,9.64-.67,3.78.29,7.12,1.21,9.42,2.13,1.15.45,2.06.87,2.67,1.21.61.33.93.53.91.57Z"/><path class="cls-7" d="m80.28,228.01c-.17.04-1.39-4.19-2.72-9.46-1.34-5.27-2.28-9.57-2.11-9.62.17-.04,1.39,4.19,2.72,9.46,1.34,5.27,2.28,9.57,2.11,9.61Z"/><path class="cls-7" d="m80.45,228.01c-.19.06-.97-2.77-3.02-5.66-1.99-2.96-4.54-4.44-4.44-4.59.03-.07.74.19,1.71.88.98.68,2.2,1.84,3.24,3.34,2.13,3.01,2.66,6.01,2.5,6.03Z"/><path class="cls-7" d="m80.32,352.67c-.07.01-.2-1.05-.69-2.89-.48-1.85-1.4-4.47-2.91-7.53-3-6.14-8.47-13.93-15.42-21.73-3.44-3.93-6.78-7.64-9.62-11.2-2.84-3.55-5.17-6.93-6.88-9.92-1.71-2.99-2.82-5.55-3.47-7.36-.32-.91-.55-1.62-.68-2.11-.14-.49-.2-.74-.18-.75.06-.02.37,1,1.09,2.77.72,1.77,1.88,4.29,3.63,7.22,1.74,2.94,4.09,6.27,6.94,9.78,2.85,3.52,6.19,7.21,9.64,11.15,6.97,7.82,12.42,15.7,15.35,21.95,1.47,3.12,2.33,5.78,2.74,7.66.2.94.34,1.68.38,2.18.06.5.08.77.06.77Z"/><path class="cls-7" d="m114.67,313.88s-.64.38-1.8,1.01c-1.15.65-2.79,1.65-4.67,3.09-1.88,1.44-3.98,3.32-6.13,5.59-2.15,2.27-4.37,4.91-6.63,7.74-4.52,5.68-8.75,10.7-11.29,14.71-1.29,1.99-2.22,3.67-2.83,4.84-.62,1.17-.95,1.83-.99,1.81-.02,0,.04-.18.17-.51.13-.32.32-.81.6-1.41.55-1.21,1.43-2.94,2.68-4.97,2.46-4.11,6.66-9.2,11.17-14.86,2.27-2.83,4.51-5.48,6.7-7.75,2.2-2.27,4.35-4.14,6.28-5.55,1.93-1.41,3.62-2.36,4.82-2.95.6-.3,1.08-.48,1.4-.62.33-.13.5-.19.51-.17Z"/><path class="cls-7" d="m115.34,326.46c0,.09-1.45.27-3.8.55-2.34.3-5.61.69-9.02,1.78-3.41,1.11-6.24,2.8-8.08,4.24-1.86,1.44-2.74,2.63-2.83,2.56-.03-.02.15-.35.56-.88.41-.53,1.07-1.25,1.98-2.03,1.81-1.56,4.67-3.35,8.17-4.49,3.5-1.11,6.81-1.43,9.17-1.62,2.37-.17,3.84-.19,3.85-.11Z"/><path class="cls-7" d="m92.71,334.21c-.2-.11,1.52-2.73,2.85-6.25,1.25-3.55,1.54-6.67,1.76-6.64.08,0,.08.79-.06,2.04-.15,1.25-.45,2.98-1.11,4.81-.66,1.82-1.54,3.35-2.21,4.41-.68,1.06-1.16,1.67-1.23,1.63Z"/><path class="cls-7" d="m125.79,280.09s-.2.13-.61.32c-.47.21-1.06.48-1.79.81-.78.34-1.73.76-2.8,1.33-1.08.55-2.33,1.13-3.64,1.91-.66.38-1.36.77-2.08,1.18-.72.41-1.43.91-2.19,1.38-1.53.93-3.06,2.07-4.7,3.24-3.2,2.43-6.57,5.31-9.81,8.63-3.21,3.35-5.97,6.82-8.29,10.1-1.11,1.68-2.2,3.25-3.08,4.81-.45.77-.91,1.5-1.3,2.24-.38.73-.75,1.44-1.11,2.11-.74,1.33-1.27,2.61-1.78,3.7-.53,1.09-.92,2.05-1.23,2.85-.3.74-.55,1.34-.75,1.81-.18.41-.28.63-.3.62-.02,0,.04-.23.18-.66.17-.49.38-1.11.64-1.86.27-.81.64-1.79,1.14-2.9.49-1.11.99-2.4,1.71-3.76.34-.69.7-1.4,1.08-2.15.38-.74.84-1.48,1.28-2.27.86-1.58,1.94-3.18,3.05-4.87,2.31-3.33,5.08-6.83,8.31-10.21,3.27-3.35,6.67-6.23,9.92-8.66,1.66-1.16,3.21-2.3,4.76-3.21.77-.47,1.49-.95,2.22-1.36.73-.4,1.43-.78,2.11-1.15,1.33-.76,2.6-1.31,3.7-1.84,1.09-.54,2.06-.93,2.86-1.23.74-.29,1.35-.52,1.84-.71.42-.15.65-.23.66-.21Z"/><path class="cls-7" d="m98.61,298.3c-.06,0,.25-1.06,1.49-2.23,1.22-1.16,3.44-2.23,6.02-2.31,2.58-.07,4.81.65,6.34,1.24,1.53.6,2.43,1.09,2.4,1.16-.04.09-.99-.26-2.54-.74-1.55-.47-3.73-1.1-6.17-1.03-2.43.07-4.53,1.01-5.75,2.02-1.24,1-1.68,1.95-1.78,1.89Z"/><path class="cls-7" d="m94.54,302.5c-.17-.1,1.36-2.34,1.71-5.56.4-3.21-.57-5.75-.38-5.81.07-.03.41.56.71,1.62.3,1.05.49,2.59.3,4.26-.2,1.67-.74,3.12-1.27,4.08-.53.96-1,1.46-1.06,1.41Z"/><path class="cls-7" d="m50.28,358.91c.94,16.62,5.95,33.53,13.65,50.62h33.5c7.35-16.92,12.01-33.8,12.84-50.62h-59.99Z"/><path class="cls-2" d="m104.84,385.8c0,.17-11.03.31-24.63.31s-24.64-.14-24.64-.31,11.03-.31,24.64-.31,24.63.14,24.63.31Z"/><path class="cls-2" d="m104.09,391.82c0,.17-10.34.31-23.09.31s-23.1-.14-23.1-.31,10.34-.31,23.1-.31,23.09.14,23.09.31Z"/><path class="cls-2" d="m64.47,369.82c.17,0,.31,3.46.31,7.72s-.14,7.72-.31,7.72-.31-3.45-.31-7.72.14-7.72.31-7.72Z"/><path class="cls-2" d="m82.42,369.82c.17,0,.31,3.58.31,7.99s-.14,7.99-.31,7.99-.31-3.58-.31-7.99.14-7.99.31-7.99Z"/><path class="cls-2" d="m99.27,369.68c.17,0,.31,3.65.31,8.15s-.14,8.15-.31,8.15-.31-3.65-.31-8.15.14-8.15.31-8.15Z"/><path class="cls-2" d="m109.21,369.82c0,.17-12.94.31-28.89.31s-28.9-.14-28.9-.31,12.94-.31,28.9-.31,28.89.14,28.89.31Z"/></g><g id="Floor"><path class="cls-12" d="m454.3,409.81c0,.14-96.77.26-216.12.26s-216.14-.12-216.14-.26,96.75-.26,216.14-.26,216.12.12,216.12.26Z"/></g><g id="Table"><path class="cls-4" d="m359.77,155.82c-2.05-.28-3.89.67-4.87,2.07-.98,1.4-1.2,3.18-1.16,4.95.04,1.55.3,3.2,1.34,4.61,1.25,1.68,3.47,2.76,5.61,3.05,2.14.3,4.21-.1,6.05-.76.48-2.01-.02-4.52-.48-6.67-.33-1.55-.88-3.13-1.96-4.5-1.08-1.37-2.75-2.51-4.53-2.76Z"/><path class="cls-12" d="m404.03,151.14s-.05.24-.19.69c-.16.5-.38,1.14-.65,1.95-.58,1.69-1.38,4.15-2.32,7.2-.95,3.05-1.98,6.71-3.03,10.8-1.03,4.09-2.05,8.62-2.97,13.41-.89,4.79-1.59,9.38-2.12,13.57-.51,4.19-.89,7.98-1.12,11.16-.24,3.18-.39,5.77-.46,7.55-.05.85-.08,1.53-.11,2.06-.03.47-.06.72-.07.72s-.03-.25-.03-.72c0-.52,0-1.21.01-2.06.01-1.79.11-4.38.3-7.57.18-3.19.52-6.99,1.01-11.19.51-4.2,1.19-8.8,2.09-13.61.91-4.8,1.96-9.33,3.01-13.43,1.08-4.09,2.15-7.75,3.14-10.79.99-3.04,1.84-5.49,2.48-7.16.31-.8.55-1.43.74-1.92.17-.44.27-.66.29-.66Z"/><path class="cls-12" d="m364.01,165.38s.15.18.39.56c.26.42.6.97,1.02,1.65.89,1.43,2.1,3.54,3.53,6.19,1.44,2.65,3.03,5.86,4.69,9.48,1.63,3.63,3.31,7.68,4.88,11.99,1.55,4.33,2.85,8.51,3.92,12.35,1.04,3.84,1.87,7.33,2.45,10.29.6,2.95,1.02,5.35,1.25,7.02.11.79.2,1.43.27,1.92.06.44.08.67.06.67-.02,0-.07-.22-.16-.66-.09-.49-.21-1.12-.36-1.9-.29-1.65-.77-4.04-1.41-6.97-.63-2.94-1.49-6.41-2.56-10.23-1.09-3.82-2.39-7.99-3.94-12.3-1.57-4.31-3.23-8.34-4.83-11.97-1.63-3.62-3.19-6.84-4.58-9.5-1.38-2.67-2.54-4.8-3.38-6.26-.39-.7-.7-1.26-.94-1.69-.21-.39-.31-.6-.3-.61Z"/><path class="cls-9" d="m378.37,214.54h21.73c.6,0,1.09.49,1.09,1.09v.06c0,.6-.49,1.09-1.09,1.09h-21.73c-.6,0-1.09-.49-1.09-1.09v-.06c0-.6.49-1.09,1.09-1.09Z"/><path class="cls-9" d="m409,239.79c-.8-8.76-7.69-9.95-9.02-10.88-.28-.2-.54-.45-.76-.73-.83-1.03-1.23-2.34-1.23-3.66v-8.85h-17.31v8.85c0,1.32-.4,2.64-1.23,3.66-.22.28-.48.53-.76.73-1.33.93-8.22,2.12-9.02,10.88s-3.71,28.65,1.46,35.02c4.77,5.87,9.42,6.22,17.18,6.23h0c.35,0,.69,0,1.03,0s.68,0,1.03,0h0c7.76-.02,12.41-.37,17.18-6.23,5.17-6.37,2.26-26.27,1.46-35.02Z"/><path class="cls-12" d="m400.65,216.86c0,.14-5.11.26-11.41.26s-11.41-.12-11.41-.26,5.11-.26,11.41-.26,11.41.12,11.41.26Z"/><path class="cls-4" d="m414.53,144.41c-.78-1.99-2.86-3.25-4.97-3.54-2.11-.28-4.26.28-6.24,1.08-1.74.7-3.48,1.65-4.51,3.22-1.23,1.86-1.26,4.35-.45,6.42.81,2.08,2.37,3.79,4.12,5.18,2.54-.43,5.11-1.97,7.31-3.31,1.58-.96,3.08-2.15,4.06-3.73.98-1.58,1.37-3.59.69-5.32Z"/><path class="cls-4" d="m358.68,187.88c-.93-1.4-.81-3.31-.03-4.8.77-1.49,2.1-2.62,3.5-3.53,1.24-.8,2.63-1.49,4.1-1.46,1.75.04,3.36,1.15,4.34,2.61.97,1.46,1.37,3.23,1.48,4.98-1.42,1.44-3.57,2.4-5.43,3.21-1.33.58-2.77,1.01-4.23.93-1.45-.08-2.93-.74-3.73-1.95Z"/><path class="cls-4" d="m382.2,177.03c-.93-1.4-.81-3.31-.03-4.8.77-1.49,2.1-2.62,3.5-3.53,1.24-.8,2.63-1.49,4.1-1.46,1.75.04,3.36,1.15,4.34,2.61.97,1.46,1.37,3.23,1.48,4.98-1.42,1.44-3.57,2.4-5.43,3.21-1.33.58-2.77,1.01-4.23.93-1.45-.08-2.93-.74-3.73-1.95Z"/><path class="cls-4" d="m413.28,175.34c1.12-1.28,1.25-3.21.68-4.81-.58-1.6-1.76-2.91-3.05-4.01-1.13-.97-2.44-1.85-3.93-2.01-1.77-.19-3.53.7-4.7,2.04-1.17,1.34-1.81,3.07-2.15,4.81,1.24,1.63,3.27,2.89,5.02,3.95,1.26.76,2.65,1.39,4.12,1.5,1.47.11,3.04-.35,4.01-1.46Z"/><path class="cls-4" d="m380.82,163.12c-.34-1.96-1.58-3.31-2.93-3.7-1.35-.39-2.79.03-4.14.68-1.19.58-2.4,1.4-3.2,2.85-.96,1.73-1.19,4.13-.84,6.19.35,2.06,1.22,3.8,2.23,5.24,1.68-.27,3.49-1.62,5.03-2.79,1.11-.84,2.18-1.9,2.95-3.37.77-1.47,1.19-3.39.9-5.1Z"/><path class="cls-4" d="m391.28,150.74c-2.05-.28-3.89.67-4.87,2.07-.98,1.4-1.2,3.18-1.16,4.95.04,1.55.3,3.2,1.34,4.61,1.25,1.68,3.47,2.76,5.61,3.05,2.14.3,4.21-.1,6.05-.76.48-2.01-.02-4.52-.48-6.67-.33-1.55-.88-3.13-1.96-4.5-1.08-1.37-2.75-2.51-4.53-2.76Z"/><path class="cls-12" d="m372.5,166.15c.08.01-.03,1-.14,2.58-.11,1.59-.21,3.78-.1,6.2.12,2.42.45,4.59.77,6.14.32,1.56.58,2.51.5,2.53-.06.02-.45-.9-.86-2.45-.42-1.55-.81-3.75-.93-6.2-.12-2.45.04-4.67.25-6.26.21-1.59.44-2.56.51-2.55Z"/><path class="cls-12" d="m377.22,192.22c-.14.06-1.02-1.87-2.78-3.76-.87-.95-1.76-1.7-2.45-2.17-.69-.48-1.18-.66-1.16-.74.01-.06.57,0,1.35.42.77.41,1.74,1.15,2.64,2.13,1.83,1.97,2.52,4.08,2.39,4.11Z"/><path class="cls-12" d="m395.13,174.33c.13-.04.73,1.52.84,3.57.12,2.05-.31,3.67-.44,3.64-.15-.02.03-1.63-.08-3.61-.1-1.98-.47-3.55-.32-3.6Z"/><path class="cls-12" d="m401.27,169.67c.12.08-.86,1.7-2.19,3.61-1.33,1.91-2.5,3.39-2.62,3.31-.12-.08.86-1.7,2.2-3.61,1.33-1.91,2.5-3.39,2.62-3.31Z"/><path class="cls-12" d="m398.03,169.3c-.14,0-.19-1.4-.11-3.12.08-1.72.27-3.1.41-3.1.14,0,.19,1.4.11,3.12-.08,1.72-.27,3.1-.41,3.1Z"/><path class="cls-12" d="m371.48,255.21c-.07,0-.23-1.25-.34-3.29-.11-2.04-.16-4.86-.02-7.97.08-1.56.15-3.03.35-4.39.2-1.35.6-2.56,1.18-3.44.57-.89,1.24-1.44,1.75-1.72.51-.29.84-.34.84-.31.06.08-1.27.47-2.28,2.22-.5.85-.85,2-1.02,3.32-.17,1.31-.22,2.8-.3,4.35-.14,3.1-.15,5.9-.13,7.94.02,2.03.05,3.29-.03,3.3Z"/><path class="cls-12" d="m340.89,410.24c-.29,0-.59-.04-.89-.13-1.31-.39-2.15-1.52-2.15-2.89v-35.18h.79v35.18c0,1.23.86,1.92,1.59,2.14.74.22,1.83.11,2.5-.92l23.89-36.62.66.43-23.89,36.62c-.58.88-1.5,1.37-2.49,1.37Z"/><path class="cls-12" d="m435.78,410.24c-.99,0-1.91-.49-2.49-1.37l-23.89-36.62.66-.43,23.89,36.62c.67,1.03,1.77,1.14,2.5.92.73-.22,1.59-.91,1.59-2.14v-35.18h.79v35.18c0,1.37-.85,2.5-2.15,2.89-.3.09-.6.13-.89.13Z"/><rect class="cls-5" x="331.4" y="280.4" width="122.69" height="95.29"/><path class="cls-12" d="m417.32,323.4s0-.21-.01-.61c0-.41,0-1-.01-1.78,0-1.57-.01-3.87-.03-6.85-.01-5.96-.03-14.62-.06-25.49l.1.13c-19.06.02-47.46.04-79.12.07h0l.16-.2c0,12.07,0,23.78,0,34.73l-.15-.2c22.77.04,42.53.07,56.61.09,7.04.02,12.66.04,16.53.06,1.93.01,3.42.02,4.44.03.5,0,.88,0,1.15.01.26,0,.4.01.4.01,0,0-.12,0-.38.01-.26,0-.64,0-1.13.01-1.01,0-2.49.01-4.41.03-3.86.01-9.47.03-16.49.06-14.1.02-33.9.05-56.71.09h-.15s0-.2,0-.2c0-10.95,0-22.66,0-34.73v-.2h.16c31.66.03,60.06.05,79.12.07h.1s0,.14,0,.14c-.02,10.9-.04,19.59-.06,25.57-.01,2.97-.02,5.26-.03,6.82,0,.76,0,1.35-.01,1.75,0,.39-.01.59-.01.59Z"/><path class="cls-12" d="m417.32,364.58s0-.21-.01-.61c0-.41,0-1-.01-1.78,0-1.57-.01-3.87-.03-6.85-.01-5.96-.03-14.62-.06-25.49l.1.14c-19.06.02-47.46.04-79.12.07h0l.16-.2c0,12.07,0,23.78,0,34.73l-.15-.2c22.77.04,42.53.07,56.61.09,7.04.02,12.66.04,16.53.06,1.93.01,3.42.02,4.44.03.5,0,.88,0,1.15.01.26,0,.4.01.4.01,0,0-.12,0-.38.01-.26,0-.64,0-1.13.01-1.01,0-2.49.01-4.41.03-3.86.01-9.47.03-16.49.06-14.1.02-33.9.05-56.71.09h-.15s0-.2,0-.2c0-10.95,0-22.66,0-34.73v-.2h.16c31.66.03,60.06.05,79.12.07h.1s0,.14,0,.14c-.02,10.9-.04,19.59-.06,25.57-.01,2.97-.02,5.26-.03,6.82,0,.76,0,1.35-.01,1.75,0,.39-.01.59-.01.59Z"/><polygon class="cls-12" points="361.54 288.47 364.11 292.05 393.57 292.05 396.5 288.47 361.54 288.47"/><polygon class="cls-12" points="361.65 329.65 364.22 333.23 393.68 333.23 396.61 329.65 361.65 329.65"/><rect class="cls-10" x="425.83" y="280.4" width="28.27" height="95.29"/></g><g id="Speech_Bubble"><circle class="cls-1" cx="179.36" cy="113.01" r="28.8" transform="translate(38.84 271.75) rotate(-80.7)"/><path class="cls-12" d="m208.17,113.01s-.03-.16-.05-.47c-.02-.33-.06-.79-.1-1.37-.02-.3-.04-.64-.06-1.01-.04-.37-.12-.77-.19-1.2-.14-.87-.27-1.87-.61-2.97-.51-2.22-1.56-4.84-3.2-7.62-1.66-2.77-4.04-5.66-7.29-8.11-3.24-2.43-7.32-4.49-12.03-5.33-4.68-.8-9.96-.66-14.99,1.25-1.28.41-2.48,1.04-3.72,1.64-1.17.71-2.41,1.36-3.5,2.25-1.16.8-2.17,1.79-3.24,2.75-.96,1.06-1.97,2.1-2.79,3.31-1.7,2.36-3.18,4.98-4.08,7.86-.93,2.86-1.43,5.9-1.47,9,.04,3.1.54,6.14,1.47,9,.9,2.88,2.38,5.5,4.08,7.86.83,1.21,1.84,2.25,2.79,3.31,1.06.96,2.08,1.96,3.24,2.75,1.09.89,2.33,1.54,3.5,2.25,1.24.59,2.44,1.23,3.72,1.64,5.03,1.91,10.31,2.06,15,1.25,4.71-.83,8.8-2.9,12.03-5.33,3.25-2.45,5.63-5.34,7.29-8.11,1.64-2.78,2.69-5.4,3.2-7.62.33-1.09.47-2.1.61-2.97.07-.43.15-.83.19-1.2.02-.37.05-.7.06-1.01.04-.58.07-1.03.1-1.37.03-.31.04-.47.05-.47s.01.16,0,.47c0,.34-.02.79-.04,1.37-.01.3-.02.64-.04,1.01-.03.37-.1.77-.16,1.21-.12.87-.24,1.89-.56,3-.48,2.25-1.51,4.9-3.14,7.73-1.65,2.81-4.04,5.76-7.32,8.26-3.27,2.48-7.4,4.6-12.19,5.47-4.75.84-10.13.71-15.26-1.23-1.3-.42-2.53-1.06-3.79-1.66-1.2-.72-2.46-1.38-3.57-2.28-1.18-.81-2.22-1.82-3.3-2.8-.98-1.08-2.01-2.14-2.85-3.37-1.73-2.4-3.25-5.07-4.16-8.01-.95-2.92-1.46-6.02-1.5-9.18.04-3.16.55-6.26,1.5-9.18.92-2.94,2.43-5.61,4.16-8.01.85-1.23,1.87-2.29,2.85-3.37,1.08-.98,2.12-1.99,3.3-2.8,1.11-.9,2.37-1.57,3.57-2.28,1.26-.6,2.49-1.24,3.79-1.66,5.13-1.93,10.51-2.06,15.26-1.23,4.79.87,8.92,2.99,12.19,5.47,3.28,2.51,5.67,5.45,7.32,8.26,1.64,2.82,2.66,5.48,3.14,7.73.32,1.11.44,2.12.56,3,.06.44.13.84.16,1.21.01.37.03.71.04,1.01.02.58.03,1.04.04,1.37,0,.31,0,.47,0,.47Z"/><circle class="cls-12" cx="170.84" cy="112.29" r="3.38"/><circle class="cls-12" cx="179.88" cy="112.29" r="3.38"/><path class="cls-12" d="m192.3,112.29c0,1.87-1.52,3.38-3.38,3.38s-3.38-1.52-3.38-3.38,1.52-3.38,3.38-3.38,3.38,1.52,3.38,3.38Z"/><path class="cls-1" d="m221.54,119.27c0,2.22-1.8,4.02-4.02,4.02s-4.02-1.8-4.02-4.02,1.8-4.02,4.02-4.02,4.02,1.8,4.02,4.02Z"/><path class="cls-12" d="m221.54,119.27c-.05,0-.06-.36-.23-.96-.18-.59-.59-1.44-1.48-2.08-.86-.65-2.25-1-3.59-.49-1.33.47-2.47,1.88-2.46,3.53-.02,1.65,1.13,3.07,2.46,3.53,1.34.51,2.74.15,3.59-.49.89-.65,1.3-1.5,1.48-2.08.18-.6.18-.96.23-.96.03,0,.1.36-.02,1.01-.12.64-.5,1.59-1.45,2.35-.91.76-2.48,1.22-4.02.67-1.53-.5-2.87-2.12-2.85-4.03-.02-1.9,1.32-3.53,2.85-4.03,1.54-.55,3.1-.09,4.02.67.95.76,1.33,1.71,1.45,2.35.12.65.04,1.01.02,1.01Z"/></g><g id="Character"><polygon class="cls-10" points="297.16 321.08 323.35 410.24 315.99 410.24 279.88 320.46 297.16 321.08"/><polygon class="cls-10" points="232.9 321.08 259.09 409.39 251.73 409.39 215.62 320.46 232.9 321.08"/><polygon class="cls-5" points="153.12 321.08 129.38 409.39 136.74 409.39 170.41 320.46 153.12 321.08"/><polygon class="cls-5" points="230.01 321.08 207.51 409.39 214.87 409.39 247.3 320.46 230.01 321.08"/><path class="cls-9" d="m138.93,282.42s-2.05-26.88,2.05-34.55c4.1-7.67,43.45-23.25,43.45-23.25,0,0,27.02-42.63,45.07-51.65s88.56-7.79,98.81,6.15-1.23,50.42-6.56,72.56l-19.27,54.11-5.33,15.3h-146.75l-11.48-38.67Z"/><path class="cls-12" d="m321.72,178.68s.05.09.11.28c.06.19.16.47.27.84.22.74.51,1.85.8,3.3.57,2.89,1.17,7.18.91,12.53-.13,2.67-.54,5.58-1.01,8.7-.48,3.12-1.04,6.45-1.68,9.96-1.27,7.02-2.79,14.77-4.49,22.96l-.03.12-.11.06c-2.2,1.11-4.52,2.28-6.9,3.43-16.66,8.13-32.28,14.31-43.72,18.36-5.72,2.03-10.39,3.55-13.63,4.56-1.6.49-2.85.87-3.74,1.14-.41.12-.73.21-.98.28-.22.06-.34.09-.34.08,0,0,.11-.05.32-.13.24-.08.56-.19.96-.33.88-.29,2.12-.7,3.71-1.23,3.22-1.08,7.87-2.65,13.57-4.72,11.4-4.14,26.98-10.36,43.61-18.49,2.37-1.15,4.7-2.32,6.89-3.43l-.14.18c1.71-8.18,3.24-15.92,4.54-22.93.65-3.5,1.23-6.83,1.73-9.94.49-3.11.92-6,1.07-8.65.3-5.31-.24-9.58-.75-12.48-.26-1.45-.52-2.56-.71-3.31-.09-.35-.16-.63-.22-.85-.05-.19-.07-.29-.07-.29Z"/><path class="cls-12" d="m157.87,304.39c.14-.02.88,3.69,1.65,8.3.77,4.61,1.28,8.37,1.14,8.39s-.88-3.69-1.65-8.3c-.77-4.61-1.28-8.37-1.14-8.39Z"/><path class="cls-12" d="m233.84,320.46c-.14-.02,1.5-10.29,3.66-22.94,2.16-12.65,4.03-22.88,4.17-22.85.14.02-1.5,10.29-3.66,22.94-2.16,12.64-4.03,22.87-4.17,22.85Z"/><path class="cls-12" d="m57.08,327.81l-20.17,25.53s-32.72-11.93-36.91-7.58l48.09,40.89,33.06-38.49-24.07-20.36Z"/><path class="cls-7" d="m53.55,363.9c.71,1.05.47,2.64-.55,3.4-1.02.76-2.64.52-3.37-.51-.73-1.03-.5-2.95.6-3.59,1.09-.64,2.98-.26,3.45.92"/><path class="cls-4" d="m48.09,386.66l3.18-4.01L3.97,344.94s-2.93-.89-3.97.83l48.09,40.89Z"/><path class="cls-1" d="m36.34,352.44c-.19.24.89,1.35,1.41,3.08.56,1.72.29,3.25.58,3.34.26.14,1.1-1.56.44-3.66-.64-2.1-2.3-3.02-2.43-2.77Z"/><path class="cls-1" d="m29.52,350.23c-.25.18.43,1.45.38,3.12,0,1.67-.71,2.92-.47,3.11.19.22,1.52-1.01,1.54-3.09.04-2.08-1.26-3.35-1.46-3.13Z"/><path class="cls-1" d="m21.52,353.83c.17.23,1.5-.66,1.99-2.46.5-1.8-.17-3.24-.44-3.13-.3.08-.17,1.38-.6,2.85-.39,1.48-1.17,2.53-.95,2.75Z"/><path class="cls-1" d="m41.58,347.13c-.08.3,1.27.89,2.52,2.11,1.28,1.19,1.93,2.52,2.22,2.42.28-.05.01-1.78-1.48-3.2-1.48-1.43-3.22-1.61-3.26-1.33Z"/><path class="cls-12" d="m100.92,284.44c0,2.31-10.34,108.62-10.34,108.62l34.92,4.05s8.69-53.61,10.04-63.5c1.35-9.88,5.87-27.59,5.87-27.59l74.5-7.37s-36.54-51.12-40.1-51.34c-3.55-.21-74.91,37.12-74.91,37.12Z"/><path class="cls-12" d="m40.56,343.18s62.54-84.77,66.14-89.21c3.61-4.44,7.77-9.16,20.81-9.16s48.32,2.5,48.32,2.5l18.64-8.49,67.66,10.43s2.5,32.19-1.94,39.68c-4.44,7.49-30.8,9.43-36.35,9.71s-91.5-11.39-91.5-11.39h0s-16.85,23.38-24.93,32.37c-5.77,6.41-36.54,45.89-36.54,45.89l-30.31-22.34Z"/><path class="cls-4" d="m70.96,366.21l-31.11-22.93.3-.4c.63-.85,62.59-84.83,66.16-89.23,3.38-4.16,7.59-9.34,21.2-9.34,12.52,0,45.89,2.33,48.23,2.5l18.66-8.5.15.02,68.05,10.49.03.39c.1,1.32,2.46,32.43-2.01,39.98-4.82,8.13-33.5,9.79-36.76,9.96-5.41.32-84.87-10.48-91.3-11.35-1.82,2.52-17.22,23.75-24.79,32.17-5.69,6.32-36.2,45.47-36.51,45.87l-.3.38Zm-29.71-23.14l29.52,21.76c3.2-4.1,30.85-39.53,36.26-45.54,7.98-8.87,24.73-32.09,24.9-32.33l.18-.24.3.04c.86.12,85.96,11.66,91.41,11.39,1.28-.06,31.31-1.65,35.95-9.47,4.05-6.83,2.17-35.29,1.9-38.99l-67.12-10.35-18.62,8.48h-.13c-.35-.03-35.41-2.51-48.28-2.51s-17.18,4.98-20.42,8.97c-3.43,4.22-61.15,82.44-65.83,88.79Z"/><path class="cls-4" d="m125.42,276.02c.12-.08,1.93,2.5,4.04,5.77,2.11,3.26,3.72,5.97,3.6,6.05-.12.08-1.93-2.5-4.04-5.77-2.11-3.26-3.72-5.97-3.6-6.05Z"/><path class="cls-12" d="m93.4,372.04l1.78,32.49s-32.42,12.72-32.68,18.76l63.11-1.19-.7-50.73-31.52.68Z"/><path class="cls-7" d="m114.65,401.43c1.23.31,2.1,1.67,1.84,2.91-.26,1.24-1.63,2.14-2.87,1.85-1.23-.29-2.33-1.89-1.93-3.09.4-1.2,2.07-2.17,3.19-1.59"/><path class="cls-4" d="m125.62,422.1l-.27-5.11-60.41,3.05s-2.79,1.28-2.43,3.25l63.11-1.19Z"/><path class="cls-1" d="m94.16,404.23c.02.31,1.56.42,3.09,1.38,1.56.92,2.37,2.24,2.65,2.12.28-.07-.21-1.9-2.09-3.03-1.87-1.15-3.72-.75-3.65-.46Z"/><path class="cls-1" d="m87.59,407.09c-.06.3,1.28.8,2.35,2.08,1.11,1.25,1.4,2.66,1.71,2.64.29.04.47-1.77-.89-3.34-1.35-1.58-3.16-1.68-3.16-1.38Z"/><path class="cls-1" d="m83.98,415.09c.28.06.68-1.49-.14-3.16-.81-1.68-2.28-2.32-2.4-2.06-.17.26.78,1.14,1.44,2.53.69,1.37.8,2.67,1.11,2.69Z"/><path class="cls-1" d="m94.57,396.78c.13.28,1.54-.17,3.28-.09,1.75.05,3.11.61,3.27.34.17-.23-1.17-1.34-3.23-1.41-2.05-.09-3.48.92-3.33,1.16Z"/><path class="cls-4" d="m220.95,165.5l2.19,20.27-25.45,51.05s-15.05,5.01-20.38,10.49l12.19.53c17.48.76,34.4,6.84,48.37,17.74,6.02,4.7,10.88,9.78,11.78,14.39,2.65,13.6,6.71,11.51,6.71,11.51l15.43-19.85,10.81-21.48,21.69-84.14-20.93-11.49-4.7-6.84-30.97,4.31-6.17,6.09-20.57,7.42Z"/><path class="cls-4" d="m169.54,219.88l13-5.44,20.43-28.66s9.47-18.95,17.97-20.28c8.5-1.33,2.19,20.27,2.19,20.27l-13.1,37.2-21.13,14.79-14.57-1.27-9.43-8.03,4.63-8.58Z"/><path class="cls-12" d="m222.98,172.55s-.06.24-.22.67c-.19.48-.43,1.1-.73,1.87-.67,1.68-1.59,4.02-2.73,6.88-2.29,5.81-5.35,13.88-8.72,22.8-3.37,8.92-6.48,16.98-8.87,22.76-1.19,2.89-2.17,5.22-2.88,6.82-.34.76-.61,1.37-.82,1.84-.19.42-.3.63-.32.63-.02,0,.06-.24.22-.67.19-.48.43-1.1.73-1.87.67-1.68,1.59-4.02,2.73-6.88,2.29-5.81,5.35-13.88,8.72-22.81,3.36-8.92,6.48-16.98,8.86-22.76,1.19-2.89,2.17-5.22,2.88-6.82.34-.76.61-1.37.82-1.84.19-.42.3-.63.32-.63Z"/><path class="cls-12" d="m248.49,171.71s-.31-.48-.78-1.38c-.5-1-1.16-2.29-1.95-3.84h.34c-.68,1.5-1.48,3.28-2.53,5.17-1.05,1.88-2.4,3.89-4.24,5.6l-.49.45.05-.66s0-.07,0-.1c.38-5.16.98-9.81,1.53-13.16.27-1.67.52-3.02.72-3.95.19-.93.32-1.44.35-1.43.04,0-.02.53-.15,1.47-.14,1.03-.33,2.37-.55,3.97-.45,3.35-1,7.99-1.38,13.14,0,.04,0,.07,0,.1l-.44-.21c1.79-1.65,3.11-3.6,4.18-5.45,1.06-1.85,1.89-3.61,2.61-5.1l.18-.36.17.36c.73,1.59,1.33,2.9,1.8,3.92.41.93.63,1.45.59,1.47Z"/><path class="cls-12" d="m281.34,156.09s-.09.15-.29.41c-.24.3-.54.66-.9,1.1-.8.94-1.97,2.3-3.47,3.92-2.99,3.26-7.31,7.61-12.41,12.04-2.31,2.02-4.59,3.88-6.71,5.53l-.39.3v-.49c-.07-3.83-.8-7.12-1.56-9.57l.25.09c-1.57.9-2.85,1.64-3.8,2.18-.89.5-1.38.76-1.4.73-.02-.03.44-.34,1.3-.89.93-.58,2.18-1.36,3.72-2.32l.18-.11.07.2c.84,2.45,1.62,5.78,1.72,9.67l-.39-.19c2.1-1.66,4.36-3.53,6.66-5.54,5.08-4.42,9.43-8.71,12.48-11.9,1.53-1.59,2.75-2.9,3.59-3.81.39-.41.71-.76.98-1.04.23-.23.35-.35.37-.34Z"/><path class="cls-6" d="m279.46,150.33l2.11-43.01c1.34-13.47-5.38-25.47-18.88-26.43l-1.25-.02c-12.61-.16-23.23,9.38-24.4,21.93-1.09,11.68-2.15,24.59-2.16,30.87,0,12.99,12.95,15.17,12.95,15.17.03,0-.35,7.89-.56,11.69h0l2.72,9.9,29.48-20.1Z"/><path class="cls-8" d="m247.85,148.87s8.18.59,16.97-4.78c0,0-4.19,9.71-17.13,8.37l.16-3.59Z"/><path class="cls-12" d="m240.9,114.67c-.05.98.74,1.83,1.76,1.89,1.02.07,1.89-.67,1.93-1.65.05-.98-.74-1.83-1.76-1.9-1.02-.07-1.89.67-1.93,1.65Z"/><path class="cls-12" d="m239.74,108.13c.23.24,1.64-.78,3.64-.75,1.99,0,3.44,1.05,3.66.81.11-.11-.12-.55-.75-1.02-.62-.47-1.69-.93-2.93-.94-1.24,0-2.29.43-2.9.89-.62.46-.83.9-.72,1.01Z"/><path class="cls-12" d="m258.3,115.05c-.05.98.74,1.83,1.76,1.89,1.02.07,1.89-.67,1.93-1.65.05-.98-.74-1.83-1.76-1.89-1.02-.07-1.89.67-1.93,1.65Z"/><path class="cls-12" d="m259.29,108.84c.23.24,1.65-.78,3.64-.74,1.99,0,3.44,1.05,3.66.81.11-.11-.12-.55-.75-1.02-.62-.47-1.69-.93-2.93-.95-1.24,0-2.29.44-2.9.9-.62.46-.83.9-.72,1.01Z"/><path class="cls-12" d="m251.94,124.08c.01-.11-1.23-.34-3.23-.63-.51-.06-.99-.17-1.07-.52-.12-.37.1-.92.36-1.51.49-1.23,1.01-2.51,1.56-3.86,2.16-5.5,3.74-10.02,3.52-10.1-.22-.08-2.16,4.3-4.32,9.8-.52,1.36-1.02,2.65-1.49,3.88-.2.58-.54,1.23-.29,2,.13.38.5.66.83.76.33.1.61.11.86.13,2.02.14,3.28.16,3.28.05Z"/><path class="cls-12" d="m258.73,102.59c.26.51,2.21,0,4.56-.02,2.36-.07,4.32.37,4.56-.15.11-.25-.28-.71-1.11-1.14-.82-.42-2.08-.76-3.49-.74-1.41.03-2.66.41-3.46.87-.81.45-1.18.93-1.07,1.18Z"/><path class="cls-12" d="m239.73,102.26c.4.46,2.04.04,3.99.07,1.95-.03,3.6.41,3.99-.06.17-.23-.07-.69-.78-1.14-.7-.45-1.88-.83-3.22-.83-1.34,0-2.52.38-3.21.82-.7.45-.94.91-.77,1.13Z"/><path class="cls-6" d="m280.41,116.48c.22-.09,8.95-2.52,8.56,6.35-.4,8.87-9.22,6.64-9.23,6.39,0-.26.67-12.74.67-12.74Z"/><path class="cls-8" d="m282.6,125.98s.15.11.41.25c.25.13.68.23,1.15.08.95-.3,1.81-1.75,1.92-3.35.06-.81-.08-1.58-.33-2.23-.24-.66-.64-1.13-1.11-1.24-.46-.13-.81.14-.93.38-.13.24-.08.42-.13.44-.03.02-.18-.16-.1-.52.04-.17.16-.38.37-.54.22-.16.54-.24.86-.19.68.08,1.27.74,1.55,1.45.32.72.49,1.59.42,2.5-.14,1.79-1.13,3.42-2.43,3.73-.63.13-1.14-.08-1.4-.3-.27-.23-.3-.43-.27-.45Z"/><path class="cls-12" d="m219.79,89.72c.16-.52.56-.93,1.04-1.19,1.04-.56,2.21-.43,3.34-.4,2.82.08,5.64-.52,8.21-1.69-.86-.48-1.65-1.06-2.32-1.78-1.37-1.49-2.1-3.72-1.36-5.61.14-.35.36-.72.73-.82.58-.15,1.06.44,1.45.9,1.26,1.53,2.45,2.22,4.43,2.11,1.23-.07,2.43-.29,3.42-.85.04-.04.08-.08.12-.12.48-.46.95-.89,1.41-1.31,0,0,0,0,0,0h0c3.48-3.16,6.45-5.34,9.46-6.4,4.41-1.56,11.68-1.95,16.15-.57,4.47,1.38,8.37,5.22,8.79,9.87,2.62-2.03,6.43-1.85,9.46-.48l.08-.03c3.38,1.37,5.18,5.09,6.04,8.63.05.19.09.39.13.59,1.08,1.89,2.59,3.54,4.43,4.71.32.21.69.46.72.84.02.38-.31.68-.63.89-.85.55-1.83.9-2.83,1.04.28.85.61,1.67,1.04,2.46.36.67.79,1.48.42,2.15-.28.52-.97.71-1.55.6-.58-.11-1.08-.46-1.57-.79.34.93.69,1.87,1.03,2.8-1.25.16-2.53,0-3.73-.41-.87,3.25-1.68,9.29-2.62,11.47-2.36-.06-2.92-.34-4.12,0-1.56.44-1.09,3.19-3.06,2.33-1-.44-2.4-4.36-2.69-5.41-1.96-6.98-2.4-14.38-1.27-21.54-1.36-1.58-3.02-2.89-4.87-3.85l.15.15c-3.57-1.42-7.62-2.83-11.14-1.28-2.73,1.21-4.42,3.91-6.51,6.04-3.96,4.03-8.34,6.08-13.99,6.08-.68,3.9-1.1,10.3-1.45,13.94l-2.81-7.45v.03c-.24-.44-.43-.88-.61-1.32l-.06-.13v-.02c-.29-.71-.56-1.42-.94-2.12-.01.01-.02.02-.04.03-2.06,1.66-4.86-1.13-3.21-3.2.33-.41.71-.77,1.15-1.06-.94.81-2.31,1.16-3.48.74-1.17-.42-2.04-1.66-1.88-2.89.11-.84.74-1.57,1.52-1.87-1.61.05-3.23-.36-4.59-1.22-.89-.56-1.75-1.46-1.39-2.59Z"/><path class="cls-4" d="m270.51,83.17s.53.37,1.25,1.25c.71.88,1.5,2.38,1.81,4.4.16,1,.24,2.12.19,3.31-.05,1.2-.2,2.47-.35,3.82-.15,1.35-.3,2.77-.28,4.25.01.74.07,1.5.2,2.26.13.75.29,1.56.82,2.22.42.54,1.16.8,1.81.69.65-.09,1.25-.41,1.69-.86.88-.94,1.14-2.17,1.39-3.25l-.27.02c.4,1,.82,1.99,1.46,2.79.63.81,1.53,1.36,2.47,1.48.47.06.94,0,1.35-.18.42-.18.73-.51.95-.86.21-.36.33-.75.32-1.14,0-.39-.14-.76-.37-1.03l-.14.12c.95,1.18,1.98,1.84,2.7,2.21.36.19.65.3.85.37.2.07.3.1.31.09,0,0-.1-.05-.29-.14-.19-.09-.47-.22-.82-.41-.69-.39-1.69-1.07-2.6-2.24l-.14.12c.42.48.41,1.3,0,1.93-.2.31-.49.6-.86.76-.37.16-.8.21-1.22.15-.86-.12-1.7-.64-2.29-1.41-.61-.77-1.01-1.73-1.41-2.73l-.17-.42-.11.45c-.25,1.08-.53,2.26-1.33,3.1-.4.41-.94.7-1.51.77-.57.09-1.17-.13-1.54-.59-.46-.57-.63-1.34-.76-2.08-.13-.74-.18-1.48-.2-2.21-.03-1.46.12-2.87.26-4.22.14-1.35.28-2.63.32-3.84.04-1.21-.05-2.34-.23-3.36-.34-2.04-1.17-3.57-1.93-4.44-.76-.87-1.34-1.17-1.34-1.17Z"/><path class="cls-4" d="m229.79,94.08s.03.04.1.09c.08.07.19.15.31.25.14.11.31.24.54.38.22.14.47.31.77.45,1.18.62,3.09,1.28,5.52,1.24,2.4-.03,5.31-.76,7.96-2.56,2.67-1.75,5.07-4.4,7.07-7.47,1.01-1.53,1.85-3.11,2.76-4.56.91-1.45,1.9-2.79,3.07-3.83,1.16-1.05,2.49-1.8,3.84-2.11.67-.17,1.34-.18,1.98-.14.64.06,1.24.22,1.79.42,1.1.42,1.98,1.08,2.64,1.75.66.67,1.09,1.37,1.38,1.96.54,1.22.54,1.99.59,1.98,0,0,0-.05,0-.14-.01-.11-.03-.24-.04-.4-.05-.35-.18-.86-.43-1.49-.28-.61-.71-1.34-1.37-2.03-.66-.69-1.55-1.38-2.68-1.83-.57-.22-1.19-.39-1.85-.46-.66-.05-1.37-.04-2.06.13-1.4.31-2.78,1.08-3.97,2.15-1.21,1.06-2.22,2.42-3.14,3.88-.92,1.46-1.76,3.04-2.77,4.56-1.98,3.04-4.34,5.66-6.97,7.4-2.6,1.79-5.44,2.51-7.81,2.58-2.39.07-4.27-.54-5.46-1.13-1.19-.59-1.75-1.1-1.78-1.06Z"/><path class="cls-4" d="m228.86,88.33s.15.14.45.34c.3.21.76.47,1.35.76.59.29,1.32.57,2.15.81.84.23,1.78.41,2.78.49,1,.07,1.96.03,2.82-.07.86-.12,1.63-.28,2.25-.48.62-.19,1.12-.39,1.45-.55.33-.16.51-.25.5-.27-.02-.05-.76.29-2,.62-.62.17-1.38.31-2.22.41-.85.08-1.78.11-2.76.05-.98-.08-1.9-.25-2.73-.46-.82-.22-1.55-.48-2.14-.74-1.18-.51-1.86-.96-1.89-.91Z"/><path class="cls-12" d="m251.79,130.15c.12-.31,2.17.61,4.42-.49,2.25-1.09,3.01-3.38,3.3-3.26.14.03.18.67-.21,1.6-.38.92-1.26,2.11-2.64,2.78-1.38.67-2.77.59-3.64.28-.89-.31-1.3-.77-1.22-.9Z"/><path class="cls-9" d="m233.84,320.46c0-.63,6.95-45.79,9.64-51.55,2.13-4.56,19.19-8.13,37.47-15.5,19.68-7.94,42.49-8.49,42.49-8.49l-28.88,66.66-60.72,8.87Z"/><polygon class="cls-6" points="244.07 224.69 227.4 225.93 227.4 241.87 246.24 244.12 244.07 224.69"/><path class="cls-4" d="m296.92,162.22c8.23,3.39,15.86,10.68,15.36,20.14-.74,14.02-4.03,44.11-4.79,51.86-1,10.12-4.42,18.64-19.31,19.2-14.89.56-36.8-3.06-36.8-3.06,0,0-7.89,3.99-10.07-.4-.58-1.17-4.49-24.74-4.49-24.74,0-.31,1.93-2.56,4.69-3.94,3.13-1.57,6.94-.37,8.67,2.67h0l29.03-.95,5.75-27.31"/><path class="cls-12" d="m284.96,195.71s-.02.16-.08.47c-.06.33-.15.79-.27,1.39-.25,1.24-.61,3.04-1.09,5.37-.97,4.7-2.38,11.53-4.16,20.11l-.03.12h-.13c-5.95.21-12.81.45-20.4.71-1.9.06-3.84.13-5.83.2-.5.02-1,.03-1.5.05l-.76.03h-.38s-.09.02-.09.02h-.05s-.02,0-.02,0c.04.03-.37-.21-.2-.12h0s-.1-.16-.1-.16c-.52-.83-1.22-1.57-2.08-2.1-1.69-1.07-3.96-1.31-5.87-.45-.96.42-1.87,1.01-2.71,1.68-.42.33-.83.69-1.22,1.07-.19.19-.38.39-.55.59-.09.1-.17.21-.25.31-.07.08-.16.27-.15.23v-.04c.92,5.48,1.9,11.24,2.97,17.2.28,1.49.56,2.99.84,4.51.15.75.3,1.52.48,2.26.09.39.15.69.39,1,.11.14.18.32.31.44l.4.37c1.17.89,2.84.91,4.34.64,1.53-.26,3.05-.81,4.47-1.48l.08-.04h.08c5.9.94,12.13,1.73,18.48,2.33,4.4.4,8.75.69,13.05.77,4.28.05,8.57.02,12.52-1.19,1.96-.62,3.8-1.55,5.37-2.81,1.57-1.26,2.84-2.84,3.73-4.61,1.8-3.55,2.41-7.48,2.76-11.27,1.59-15.24,3.03-28.96,4.01-40.5.25-2.89.46-5.63.63-8.24.09-1.3.17-2.57.14-3.78-.02-.61-.11-1.2-.16-1.79-.11-.58-.24-1.15-.35-1.7-.59-2.21-1.57-4.13-2.7-5.73-1.13-1.61-2.37-2.91-3.55-4.01-2.42-2.14-4.61-3.42-6.11-4.21-.75-.41-1.34-.67-1.74-.85-.4-.19-.59-.29-.59-.29,0,0,.21.07.61.24.4.17,1.01.42,1.77.81,1.52.77,3.74,2.02,6.2,4.16,1.2,1.09,2.47,2.4,3.62,4.01,1.15,1.61,2.17,3.55,2.78,5.8.12.57.26,1.14.37,1.73.06.6.15,1.2.18,1.82.03,1.25-.04,2.51-.12,3.81-.16,2.61-.36,5.36-.6,8.25-.93,11.55-2.34,25.28-3.9,40.52-.35,3.8-.95,7.8-2.79,11.45-.92,1.81-2.23,3.47-3.86,4.77-1.62,1.3-3.52,2.27-5.54,2.9-4.06,1.24-8.39,1.27-12.68,1.22-4.31-.07-8.68-.36-13.09-.77-6.37-.6-12.6-1.39-18.52-2.33l.16-.02c-1.49.7-3.01,1.25-4.62,1.52-1.56.27-3.36.29-4.74-.75l-.46-.43c-.16-.14-.24-.34-.36-.51-.26-.31-.38-.79-.45-1.15-.18-.77-.33-1.53-.48-2.28-.28-1.52-.56-3.02-.84-4.51-1.07-5.97-2.04-11.73-2.95-17.21v-.03s0,0,0,0c.07-.32.16-.35.24-.5.09-.12.18-.23.27-.34.19-.22.38-.42.58-.62.4-.4.82-.76,1.26-1.11.88-.68,1.8-1.29,2.82-1.73,2.05-.91,4.48-.65,6.28.5.91.56,1.66,1.35,2.21,2.24l.1.17h0c.18.11-.23-.11-.19-.09h.02s.05,0,.05,0h.09s.38-.01.38-.01l.76-.02c.5-.02,1-.03,1.5-.05,1.99-.06,3.93-.12,5.83-.18,7.59-.23,14.44-.44,20.4-.62l-.15.13c1.84-8.58,3.3-15.39,4.31-20.08.51-2.32.9-4.12,1.17-5.35.13-.59.24-1.05.31-1.38.07-.31.12-.46.12-.46Z"/><path class="cls-12" d="m295.17,164.5c.06.07-1.03,1.1-2.5,3-.72.96-1.55,2.13-2.36,3.5-.8,1.37-1.6,2.93-2.31,4.61-1.41,3.39-2.17,6.64-2.56,9.02-.39,2.38-.48,3.87-.58,3.87-.04,0-.04-.38-.02-1.05,0-.68.09-1.66.23-2.87.29-2.41,1.01-5.72,2.44-9.16.72-1.71,1.54-3.29,2.38-4.66.84-1.37,1.72-2.53,2.48-3.48.79-.93,1.47-1.64,1.97-2.1.5-.46.79-.69.82-.67Z"/><path class="cls-12" d="m291.72,235.22c-.09.02-.31-1-.98-2.51-.66-1.51-1.88-3.48-3.7-5.22-1.83-1.73-3.87-2.84-5.41-3.43-1.55-.59-2.57-.76-2.56-.85,0-.04.26-.02.73.04.47.05,1.14.2,1.95.46.81.25,1.74.66,2.72,1.21.97.57,1.98,1.3,2.93,2.18.94.9,1.71,1.87,2.33,2.81.6.95,1.06,1.86,1.35,2.65.3.79.49,1.45.56,1.92.09.47.11.72.08.73Z"/><path class="cls-12" d="m251.61,249.53c-.08-.02.32-1.43.65-3.76.35-2.33.6-5.58.52-9.17-.05-1.8-.2-3.5-.4-5.04-.24-1.53-.5-2.91-.85-4.03-.65-2.26-1.42-3.51-1.33-3.56.03-.02.23.29.57.86.19.28.35.65.54,1.09.21.43.4.93.58,1.5.4,1.13.7,2.52.97,4.07.23,1.56.4,3.28.45,5.1.08,3.63-.23,6.91-.67,9.25-.21,1.17-.45,2.1-.64,2.74-.2.63-.33.98-.37.97Z"/><path class="cls-2" d="m138.42,189.41s1.14-2.71,3.38-3.27c0,0,11.16,2.97,14.42,6.56,0,0,.65-2.54,6.65-7.64,7.5-6.38,15.87-6.38,15.87-6.38l5.93,3.73-23.78,16.65-7.07,2.47-15.4-12.12Z"/><path class="cls-12" d="m138.42,189.41s.11.07.3.21c.21.16.49.36.83.62.75.57,1.79,1.37,3.12,2.39,2.7,2.1,6.55,5.08,11.27,8.74l-.19-.03c2.16-.76,4.54-1.6,7.06-2.49l-.05.03c6.8-4.77,14.86-10.44,23.48-16.49l.27-.19v.43c-2-1.27-3.99-2.51-5.92-3.73l.14.04c-5.13.26-9.93,2.15-13.68,4.76-1.88,1.32-3.54,2.81-5.05,4.31-.75.75-1.45,1.52-2.07,2.31-.61.78-1.2,1.62-1.51,2.44l-.12.32-.23-.23c-1.17-1.21-2.62-2.02-3.97-2.72-1.37-.69-2.7-1.25-3.94-1.74-2.5-.97-4.66-1.64-6.38-2.14h.05c-1.5.41-2.28,1.48-2.75,2.11-.23.33-.39.6-.49.78-.1.18-.15.27-.16.27,0,0,.02-.11.11-.3.09-.19.23-.47.45-.82.45-.65,1.21-1.78,2.79-2.25h.02s.03,0,.03,0c1.74.46,3.91,1.11,6.44,2.05,1.26.47,2.61,1.02,4,1.71,1.38.7,2.85,1.49,4.11,2.77l-.35.09c.36-.99.94-1.78,1.57-2.61.64-.81,1.34-1.59,2.09-2.36,1.51-1.52,3.18-3.03,5.09-4.39,3.83-2.67,8.65-4.61,13.96-4.88h.07s.07.04.07.04c1.93,1.21,3.92,2.46,5.93,3.73l.33.21-.32.23-.27.19c-8.64,6.03-16.71,11.67-23.53,16.43l-.03.02h-.03c-2.52.88-4.91,1.71-7.08,2.46l-.1.04-.08-.07c-4.7-3.75-8.54-6.81-11.23-8.96-1.29-1.04-2.31-1.86-3.03-2.45-.32-.27-.58-.48-.77-.64-.17-.14-.25-.22-.25-.22Z"/><path class="cls-9" d="m134.5,188.95l.67-1.35,16.73,9.32s5.5-.34,5.62-4.04c0,0,27.4-11.46,28.08-11.12.67.34,44.59,36.84,44.59,36.84l-39.64,8.45-18.42-8.12-37.62-29.99Z"/><path class="cls-12" d="m185.47,224.82c-.09.11-7.68-6.04-16.95-13.75-9.27-7.7-16.71-14.04-16.62-14.15.09-.11,7.68,6.04,16.95,13.75,9.27,7.7,16.71,14.04,16.61,14.15Z"/><path class="cls-12" d="m196.13,225.67c-.09.11-8.73-7.1-19.29-16.1-10.57-9-19.05-16.39-18.96-16.5.09-.11,8.73,7.1,19.3,16.1,10.56,9,19.05,16.39,18.96,16.5Z"/><path class="cls-6" d="m157.75,204.4c-.12,0-3.85-.36-4.75,1.27-.9,1.63-1,2.52-.63,3.49.37.96,2.16,3.02,2.16,3.02l.6,1.13s-1.19,2.42-.6,4.41c.6,1.99,2.42,3.19,2.42,3.19,0,0,.3,4.88,3.25,4.91,0,0,.76,2.75,3.49,2.69,2.72-.07,4.08.63,7.1-.93,3.02-1.56,6.52-3.12,7.29-4.68.77-1.56-1.92-1.73-1.92-1.73,0,0,1.46-4.02-3.25-3.49,0,0,.53-4.15-2.49-4.65s-9.16-.13-9.16-.13l-2.42-2.92s1.76-.5,1.86-2.06c.1-1.56-1.55-3.48-2.95-3.53Z"/><path class="cls-6" d="m219.36,220.25c-.3.1-3.93,1.71-6.35,1.41-2.42-.3-21.18-10.59-23.9-11.4-2.72-.81-7.36,0-4.03,3.53s13.61,9.28,13.82,9.58c.2.3.61,1.95.61,1.95l-10.49-3.97s-7.66-3.83-8.87-1.51c-1.21,2.32.61,3.63,2.52,4.24,1.92.61,4.03,1.25,4.03,1.25,0,0,2.22,4.1,4.44,5.71,2.22,1.61,12.3,8.07,14.02,8.77,1.71.71,22.39,2.32,22.79,2.02.4-.3,0-15.43,0-15.43l-7.26-6.55-1.31.4Z"/></g></svg>