<?xml version="1.0" encoding="UTF-8"?><svg id="Layer_1" xmlns="http://www.w3.org/2000/svg" viewBox="0 0 613.73 106.68"><defs><style>.cls-1{fill:#fff;}</style></defs><path class="cls-1" d="m0,106.68V0h613.73v106.68H0ZM4.69,4.54v97.28h356.31c.07-1.53.17-2.76.17-3.99.01-29.62-.05-59.24.1-88.85.02-3.69-1.11-4.52-4.65-4.52-115.72.09-231.44.08-347.16.09-1.47,0-2.94,0-4.75,0Zm594.22,86.22V15.87c-1.59,0-3.04,0-4.5,0-12.02-.05-11.94,0-18.85,9.79-5.24,7.42-10.71,14.67-16.24,22.24-.78-1-1.32-1.65-1.82-2.33-6.63-9.08-13.24-18.17-19.91-27.21-.7-.95-1.74-2.27-2.67-2.31-5.07-.23-10.15-.11-15.38-.11v74.83h14.38v-53.65c1.32,1.74,2.01,2.6,2.66,3.49,6.34,8.67,12.67,17.36,19.03,26.01,2.67,3.64,4.04,3.6,6.78-.07,3.36-4.51,6.69-9.03,10.07-13.52,3.79-5.03,7.62-10.03,11.44-15.04.26.09.51.18.77.27v52.5h14.26ZM425.46,15.88c0,2.04,0,3.52,0,4.99-.09,13.62.18,27.25-.37,40.84-.71,17.49-17.09,20.91-27.83,15.44-7.07-3.61-9.27-10.15-9.37-17.53-.14-10.99-.04-21.99-.06-32.98q-.01-11.42-11.41-10.76c-.25.01-.6-.09-.73.04-.76.75-2.09,1.55-2.09,2.33.03,15.61-.51,31.27.59,46.82.93,13.14,8.73,22.05,21.62,25.81,18.25,5.33,41.77-1.32,43.44-27.49.95-14.94.34-29.97.27-44.96,0-.85-1.4-2.37-2.23-2.43-3.71-.27-7.46-.12-11.84-.12Zm47.23,13.02v61.68h14.4V28.9c5.23,0,10.08,0,14.93,0,8.94,0,8.79,0,8.96-8.77.07-3.41-.89-4.48-4.39-4.45-17.86.17-35.72.07-53.58.09-1.22,0-2.43.12-3.85.2v12.94h23.54Z"/><path class="cls-1" d="m187.78,63.24c7.95,8.65,16.26,17.7,24.94,27.15-4.22.63-7.21.47-10.03-2.85-6.62-7.8-13.63-15.27-20.7-22.67-1.28-1.34-3.54-2.24-5.42-2.39-4.34-.35-8.75.07-13.11-.17-3.32-.19-4.6.71-4.47,4.31.28,7.84.09,15.69.09,23.81h-5.3c-.07-1.25-.2-2.45-.2-3.66-.01-22.24.04-44.48-.08-66.71-.02-3.04.75-4.16,3.94-4.08,10.99.27,21.99,0,32.97.48,9,.39,16.99,7.07,19.41,15.27,2.96,10.03.57,20.08-7.14,25.28-4.28,2.88-9.67,4.13-14.9,6.25Zm-28.5-6.53c10.59,0,20.85.62,31-.18,9.79-.77,14.94-8.03,14.59-18.36-.31-9.03-6.52-15.9-15.57-16.61-5.96-.47-11.97-.31-17.96-.39-3.95-.05-7.91,0-12.06,0v35.54Z"/><path class="cls-1" d="m73.42,27.11c-2.19,1.3-3.44,2.04-4.78,2.84-10.1-11.79-22.75-11.6-35.97-7.54-6.76,2.08-10.49,7.88-9.91,13.78.38,3.8,2.14,6.97,5.65,8.17,6.57,2.24,13.36,3.84,20.04,5.75,5.5,1.57,11.14,2.79,16.43,4.89,6.65,2.64,9.98,7.98,10.12,15.23.14,7.34-2.54,13.15-8.99,16.93-14.64,8.58-36.96,5.58-47.74-6.44-1.21-1.35-2.12-2.99-3.42-4.84,1.81-.93,3.2-1.66,4.64-2.4,9.89,12.96,22.91,15.71,37.8,11.79,6.42-1.69,11.29-5.45,12.11-12.67.59-5.16-.96-9.93-5.85-11.9-6.53-2.63-13.48-4.23-20.28-6.17-4.91-1.4-9.96-2.36-14.76-4.05-6.12-2.15-10.6-6.15-11.31-13.1-.77-7.53,1.82-13.77,8.51-17.4,12.27-6.65,25.11-7.23,37.75-1.21,3.62,1.72,6.37,5.26,9.97,8.35Z"/><path class="cls-1" d="m346.82,16.28v4.97h-45.63v29.18h43.48v4.94c-1.25.06-2.57.18-3.88.19-11.99.01-23.99.11-35.98-.06-3.17-.05-4.03.98-3.97,4.05.19,8.46.06,16.93.06,25.71h47.05v5.19h-52.41c-.06-1.2-.16-2.4-.17-3.59-.01-22.24.06-44.48-.09-66.72-.02-3.35.97-4.22,4.22-4.18,14.74.15,29.48.06,44.23.07.97,0,1.94.16,3.09.26Z"/><path class="cls-1" d="m136.56,55.56c-8.79,0-17.52,0-26.25,0-4.75,0-9.51-.13-14.24.11-1.04.05-2.86,1.38-2.88,2.15-.2,8.98-.13,17.96-.13,27.43h47.12v5.13h-52.41c-.07-1.2-.2-2.51-.21-3.82-.01-22.12.06-44.25-.08-66.37-.02-3.26.83-4.29,4.17-4.25,14.62.18,29.25.07,43.87.09,1.68,0,3.55-.42,3.66,2.41.1,2.83-1.45,2.9-3.54,2.89-12.75-.05-25.5.09-38.24-.09-3.38-.05-4.56.79-4.44,4.33.26,8.1.08,16.21.08,24.75,1.75.08,3.21.2,4.66.2,11.75.01,23.5.11,35.24-.06,3.5-.05,4.96.92,3.62,5.09Z"/><path class="cls-1" d="m217.85,16.36c3.63-.84,5.69-.38,7.17,3.38,8.09,20.54,16.53,40.95,24.85,61.4.31.77.73,1.49,1.48,3.03,1.2-2.79,2.14-4.88,3-7.01,7.68-18.97,15.45-37.9,22.91-56.95,1.49-3.8,3.42-5.03,7.54-3.76-1.33,3.42-2.56,6.76-3.91,10.05-8.44,20.54-16.93,41.05-25.32,61.6-.82,2.01-1.81,2.99-4.09,2.85-1.98-.12-3.39-.26-4.32-2.54-9.5-23.34-19.14-46.62-28.74-69.92-.23-.56-.33-1.18-.59-2.15Z"/></svg>